<mxfile host="app.diagrams.net" modified="2023-03-28T23:42:44.413Z" agent="5.0 (Macintosh; Intel Mac OS X 10_15_7) AppleWebKit/537.36 (KHTML, like Gecko) Chrome/111.0.0.0 Safari/537.36" etag="_gBCA1wROjRJOKuTN2D3" version="21.0.10" type="github">
  <diagram id="3228e29e-7158-1315-38df-8450db1d8a1d" name="Page-1">
    <mxGraphModel dx="847" dy="399" grid="0" gridSize="10" guides="1" tooltips="1" connect="1" arrows="1" fold="1" page="1" pageScale="1" pageWidth="1200" pageHeight="700" background="#EFF1F3" math="0" shadow="0">
      <root>
        <mxCell id="0" />
        <mxCell id="1" parent="0" />
        <mxCell id="3rUZ3CN064QcZNEnWqN9-26" value="" style="rounded=1;whiteSpace=wrap;html=1;fillColor=none;dashed=1;strokeWidth=3;strokeColor=#4A919B;" parent="1" vertex="1">
          <mxGeometry x="428" y="1114.08" width="344" height="235.92" as="geometry" />
        </mxCell>
        <mxCell id="LN-XwHLoH8wJf_DFHqXR-15" value="" style="endArrow=none;html=1;rounded=0;strokeColor=#FDD276;startArrow=classic;startFill=1;strokeWidth=2;dashed=1;entryX=0.5;entryY=1;entryDx=0;entryDy=0;" parent="1" target="LN-XwHLoH8wJf_DFHqXR-13" edge="1">
          <mxGeometry width="50" height="50" relative="1" as="geometry">
            <mxPoint x="599.9" y="1167.08" as="sourcePoint" />
            <mxPoint x="599.9" y="1122.71" as="targetPoint" />
          </mxGeometry>
        </mxCell>
        <mxCell id="3rUZ3CN064QcZNEnWqN9-39" value="" style="rounded=1;whiteSpace=wrap;html=1;fillColor=none;dashed=1;strokeWidth=3;strokeColor=#4A919B;" parent="1" vertex="1">
          <mxGeometry x="428" y="908" width="341" height="205.08" as="geometry" />
        </mxCell>
        <mxCell id="3rUZ3CN064QcZNEnWqN9-22" value="" style="rounded=1;whiteSpace=wrap;html=1;fillColor=none;dashed=1;strokeWidth=3;strokeColor=#4A919B;" parent="1" vertex="1">
          <mxGeometry x="177" y="757" width="115" height="164.26" as="geometry" />
        </mxCell>
        <mxCell id="Sud6pk3loR96N63fgRS5-1" value="" style="shape=image;verticalLabelPosition=bottom;verticalAlign=top;imageAspect=0;image=data:image/svg+xml,PHN2ZyB4bWxuczp4bGluaz0iaHR0cDovL3d3dy53My5vcmcvMTk5OS94bGluayIgeG1sbnM9Imh0dHA6Ly93d3cudzMub3JnLzIwMDAvc3ZnIiBoZWlnaHQ9IjIwMCIgd2lkdGg9IjIwMCIgdmVyc2lvbj0iMS4xIiB2aWV3Qm94PSIwIDAgMTAyNCAxMDI0IiBjbGFzcz0iaWNvbiI+PGRlZnM+PHN0eWxlIHR5cGU9InRleHQvY3NzIj5AZm9udC1mYWNlIHsgZm9udC1mYW1pbHk6IGZlZWRiYWNrLWljb25mb250OyBzcmM6IHVybCgiLy9hdC5hbGljZG4uY29tL3QvZm9udF8xMDMxMTU4X3U2OXc4eWh4ZHUud29mZjI/dD0xNjMwMDMzNzU5OTQ0IikgZm9ybWF0KCJ3b2ZmMiIpLCB1cmwoIi8vYXQuYWxpY2RuLmNvbS90L2ZvbnRfMTAzMTE1OF91Njl3OHloeGR1LndvZmY/dD0xNjMwMDMzNzU5OTQ0IikgZm9ybWF0KCJ3b2ZmIiksIHVybCgiLy9hdC5hbGljZG4uY29tL3QvZm9udF8xMDMxMTU4X3U2OXc4eWh4ZHUudHRmP3Q9MTYzMDAzMzc1OTk0NCIpIGZvcm1hdCgidHJ1ZXR5cGUiKTsgfSYjeGE7PC9zdHlsZT48L2RlZnM+PHBhdGggZmlsbD0iIzRBOTE5QiIgZD0iTTAgNzI4djEzNmMwIDM1LjMgMjguNyA2NCA2NCA2NGg4OTZjMzUuMyAwIDY0LTI4LjcgNjQtNjRWNzI4YzAtNC40LTMuNi04LTgtOEg4Yy00LjQgMC04IDMuNi04IDh6IG03NzQgOTZjMCA0LjQtMy42IDgtOCA4SDQyNGMtNC40IDAtOC0zLjYtOC04di00OGMwLTQuNCAzLjYtOCA4LThoMzQyYzQuNCAwIDggMy42IDggOHY0OHogbTEyMiAwYzAgNC40LTMuNiA4LTggOGgtNDhjLTQuNCAwLTgtMy42LTgtOHYtNDhjMC00LjQgMy42LTggOC04aDQ4YzQuNCAwIDggMy42IDggOHY0OHpNMCA1MzZ2MTQ0YzAgNC40IDMuNiA4IDggOGgxMDA4YzQuNCAwIDgtMy42IDgtOFY1MzZjMC00LjQtMy42LTgtOC04SDhjLTQuNCAwLTggMy42LTggOHogbTc3NCA5NmMwIDQuNC0zLjYgOC04IDhINDI0Yy00LjQgMC04LTMuNi04LTh2LTQ4YzAtNC40IDMuNi04IDgtOGgzNDJjNC40IDAgOCAzLjYgOCA4djQ4eiBtMTIyIDBjMCA0LjQtMy42IDgtOCA4aC00OGMtNC40IDAtOC0zLjYtOC04di00OGMwLTQuNCAzLjYtOCA4LThoNDhjNC40IDAgOCAzLjYgOCA4djQ4ek0wIDM0NHYxNDRjMCA0LjQgMy42IDggOCA4aDEwMDhjNC40IDAgOC0zLjYgOC04VjM0NGMwLTQuNC0zLjYtOC04LThIOGMtNC40IDAtOCAzLjYtOCA4eiBtNzc0IDk2YzAgNC40LTMuNiA4LTggOEg0MjRjLTQuNCAwLTgtMy42LTgtOHYtNDhjMC00LjQgMy42LTggOC04aDM0MmM0LjQgMCA4IDMuNiA4IDh2NDh6IG0xMjIgMGMwIDQuNC0zLjYgOC04IDhoLTQ4Yy00LjQgMC04LTMuNi04LTh2LTQ4YzAtNC40IDMuNi04IDgtOGg0OGM0LjQgMCA4IDMuNiA4IDh2NDh6TTk2MCA5Nkg2NGMtMzUuMyAwLTY0IDI4LjctNjQgNjR2MTM2YzAgNC40IDMuNiA4IDggOGgxMDA4YzQuNCAwIDgtMy42IDgtOFYxNjBjMC0zNS4zLTI4LjctNjQtNjQtNjR6TTc3NCAyNDhjMCA0LjQtMy42IDgtOCA4SDQyNGMtNC40IDAtOC0zLjYtOC04di00OGMwLTQuNCAzLjYtOCA4LThoMzQyYzQuNCAwIDggMy42IDggOHY0OHogbTEyMiAwYzAgNC40LTMuNiA4LTggOGgtNDhjLTQuNCAwLTgtMy42LTgtOHYtNDhjMC00LjQgMy42LTggOC04aDQ4YzQuNCAwIDggMy42IDggOHY0OHoiLz48L3N2Zz4=" parent="1" vertex="1">
          <mxGeometry x="554.99" y="785" width="96.01" height="96.01" as="geometry" />
        </mxCell>
        <mxCell id="IkI1S986DNAKy2W6fzRO-3" value="" style="shape=image;verticalLabelPosition=bottom;labelBackgroundColor=default;verticalAlign=top;aspect=fixed;imageAspect=0;image=data:image/svg+xml,PHN2ZyB4bWxuczp4bGluaz0iaHR0cDovL3d3dy53My5vcmcvMTk5OS94bGluayIgeG1sbnM9Imh0dHA6Ly93d3cudzMub3JnLzIwMDAvc3ZnIiBoZWlnaHQ9IjEyOCIgd2lkdGg9IjEyOCIgdmVyc2lvbj0iMS4xIiB2aWV3Qm94PSIwIDAgMTAyNCAxMDI0IiBjbGFzcz0iaWNvbiI+PHBhdGggZmlsbD0iIzRBOTE5QiIgZD0iTTY5MS4yIDY0SDMzNWMtNTguMiAwLTEwNy41IDQ3LTEwNS4zIDEwNS4zdjY4NS40YzAgNTguMiA0NyAxMDUuMyAxMDUuMyAxMDUuM2gzNTRjNTguMiAwIDEwNy41LTQ3IDEwNy41LTEwNy41VjE2OS4zQzc5Ni41IDExMSA3NDkuNCA2NCA2OTEuMiA2NHogbTYyLjcgNzkwLjdjMCAzNS44LTI5LjEgNjIuNy02Mi43IDYyLjdIMzM1Yy0zNS44IDAtNjIuNy0yOS4xLTYyLjctNjIuN3YtNDdoNDgxLjZ2NDd6IG0wLTkxLjhIMjcyLjNWMjU2LjZoNDgxLjZ2NTA2LjN6IG0wLTU1MS4xSDI3Mi4zdi00MC4zYzAtMzUuOCAyOS4xLTYyLjcgNjIuNy02Mi43bDM1Ni4yLTIuMmMzNS44IDAgNjIuNyAyOS4xIDYyLjcgNjIuN3Y0Mi41eiIvPjxwYXRoIGZpbGw9IiM0QTkxOUIiIGQ9Ik01NDUuNiAxMjIuMmgtNjkuNGMtMTMuNCAwLTIyLjQgOS0yMi40IDIyLjQgMCAxMy40IDkgMjIuNCAyMi40IDIyLjRoNjkuNGMxMy40IDAgMjIuNC05IDIyLjQtMjIuNCAwLTEzLjQtOS0yMi40LTIyLjQtMjIuNHpNNTEyIDkwNGMxNy45IDAgMzEuNC0xMy40IDMxLjQtMzEuNCAwLTE3LjktMTMuNC0zMS40LTMxLjQtMzEuNC0xNy45IDAtMzEuNCAxMy40LTMxLjQgMzEuNFM0OTQuMSA5MDQgNTEyIDkwNHoiLz48L3N2Zz4=;" parent="1" vertex="1">
          <mxGeometry x="63" y="852.08" width="114" height="114" as="geometry" />
        </mxCell>
        <mxCell id="IkI1S986DNAKy2W6fzRO-4" value="" style="shape=image;verticalLabelPosition=bottom;labelBackgroundColor=default;verticalAlign=top;aspect=fixed;imageAspect=0;image=data:image/png,iVBORw0KGgoAAAANSUhEUgAAAgAAAAIACAYAAAD0eNT6AAAABHNCSVQICAgIfAhkiAAAAAlwSFlzAAAOxAAADsQBlSsOGwAAABl0RVh0U29mdHdhcmUAd3d3Lmlua3NjYXBlLm9yZ5vuPBoAACAASURBVHic7N13mBRV1sDhX1XnyYmchpyj5CwiZkUBUQyYd3WNq6urq67u6q7sqp+7rlnMgmLGrCiSREUQARWJimSYwOSO9f3RoIgDTFfd7urpOe/z9CNC31tnerq7Tt2691wNIUR95gEK9z6aA/lAI6Bg75/3PTyABuTsbecG0vf+uRII7P1zKWAAfqBov8duYNfeP28FNgI/7n2eEKIe0uwOQAhxWDrQDugN9AA6AG33Ppph3+fYALYRTQY2AuuAlcDXe/8/YlNcQog6kARAiOTiAHoBQ4me8HsRPemnH6pREqoAviGaDHwNfEo0OQjbGZQQ4heSAAhhr3SgLzAMGL73v7m2RhQ/lcByYCGwaO9/S2yNSIgGTBIAIRKvHXAScCIwkuj9+IYoTDQheAt4E1hG9LaCEEIIkRLSgUnAE0Qn0BnyqPWxBZgOTATSTL3SQgghhM28RK/ynwHKsP/kWt8eVURHBc6l/s1/EEII0cA4iA7rP4ec9FU+yoBngRP2vsZCCCFEUmgB3AD8gP0ny1R/bAXuIroEUgghhEg4F3Aa8C7RyWx2nxgb2iO897U/be/vQgghhIirTOAqolXw7D4JyiP62AbcRuounxRCCGGjZkRPMiXYf8KTR+2PMuA/QJvaf4VCCCFE3XUHZgBB7D/ByaNujwDRiZhda/l9CiGEEIdUCDwChLD/hCYPc48wMAvohBBCCHEYrYme+OWKP3Ue+xKB9gghfialgIWIyiN6j/931LfSvG4HNMuCppmQlwY5PsjyQLYXsryQ64O0vT+SzwUODd3pxJeZgc/pQ68OYYQjEI5gVEV3BTaq/ESKq4jsqSKypzr635IqIkUVhLeWEt5aihEI2fhDmxIAHgJuR/YgEEISANHgOYHfEz0p5Nkcy6FleaFDPrQvgJbZ0CwzeuLPT6/bJ1kDj+7G5/TicVjMcQwI7y4nvKUkmhBsKia4ZjuhtTuIlFVb6zv+ioBbgUeJ3uIRokGSBEA0ZOOA/wO62R3Ib/hc0L0JdG4M7fOjj8YZprrSAI/DS7rLh1OPfyG98I4yQmu2E1y7g+B3Wwmu3IJRHYj7cU1YBVwDzLE7ECHsIAmAaIhaAf8DTrY7kJ/5XNC9KfRqCj2bQccCcOiWutQ1nTSnD5/Lg461viwJRwiu3kZg+U8Elm8iuHJzsiUErwFXEN2MSIgGQxIA0ZDowKXAP4Asm2OJDt8Pbg2D20Sv9i2e8PfRNZ10pw+f04eWjJ/wcITA1z/hX7QW/6J1hLeV2h0RRGsI3EB0AqhhcyxCJEQyfj0IEQ9dgceAYbZG0bEAhhZGT/qFagvX7bviT3N60ZLyzF+70Pqd+Betw79gDcE12+0OZwFwCbDa7kCEiLf68y0hhDlO4M/AzYDHlggaZ8CYDtFHqxzl3WtopLvSSEvWK/4YhH4soub9ldR8+C3hnWV2hVED3AFMQyYJihRWz78uhDikdkQrwg1J+JG9ThjRDo7qGL2vH6czs8/pJcOdZu89/niIGAS++pGaD76h5pPVGDVBO6JYBJwDbLTj4ELEmyQAIlVNIrrMS/0l96E0zYTju8CxXSAzfgMOHoebDHc6Ti3+s/rtZlT6qX53JVUvf2nHfIEy4E9E30tCpBRJAESqyQYeAM5K6FG7NYHxPWBoG2WT+Wrj0BxkutOtr+Ovj/aOClS9/CX+xesSPVXvZaJFoooTelQh4kgSAJFK+hP9om6T0KP2agbTToj7YdKcPjLcaWjysaX48ucIrtyc6MP+AEwAliX6wELEQ4rdOBQN2DnAfOzYCnb1TohjWVyXw0m+N4dMd7qc/AGjJkho9TY7Dl0IfApcZMfBhVBNEgBR33mI7gH/DOCzJYJAGL7dqbxbDchwpZPnycGpO5X3X18Fvv4JIxi26/AeostJH6G+7RkhxAEkARD1WSuiV/1X2h0Iq9SuX3fqTvK8OaS77MlpkllwxU92hwDRWgHzgBZ2ByKEWZIAiPqqF9Hh2IF2BwLAhiI1/WiQ7koj3ytX/QcTWrvD7hD2GQwsAY6wOxAhzJAEQNRHxwALgZZ2B/Kz9dYTAF3TyfVkkeFKUxBQ6gquU3+7xYJmREcCTrI7ECFiJQmAqG8uB94GMu0O5Fd2VkC1+WI1bt1Fvi8Hty63lQ/FqKghUlRhdxgHSie6odCldgciRCwkARD1hQ7cC9wPxKX6Tbu2HfB6Ldxz31VpqlmGK41cT3bqVfOLg/DOctNtvV4f7dp2UBjNrziAB4F/I9+rop6QN6qoDxzAdKJ7tyunaRpTz76ATz5YRNvCtuY72hXblamGRo4nk3RXmlTkqKPwDvP7A7Rv254FH33GVX/4I7oet6++64Bnie5BIURSkwRAJDs38CJwXjw6b9O6kDdeepd7/3U/6ekZtC1sb76z4qo6P9Wh6eR5s/E47NmfqL6KFJsf/i8sbIfX6+PWv/yd1158m9at4lYyYgowE1kmKJKcJAAimfmI3ludEI/Op559AfPnfM6woSN+/rvGjRqb77CmbsWA3LqLPG+uzPI3wajja1ybJo2b/Pzn4cNGsuCjLzhnynkKoqrVROBV7KpNIUQdSAIgklU6MBs4XnXHGRkZPPbQU9z7r/vJyMj49UHT08137D/8ycnr9JDrzUav7/v22sTwm59oeeDvNiMjg/vufoBnps8kOyvbami1OQF4l2SbsCrEXnIJIpJRGtEvzhGHe2KsenbvxROPPnvQyWCWJgEGDl2dLs3pI9NtIcGIUXhrKaEfdhPeVETopxLCm4uJlNdgVAcwymt+3mJX87rQMr1oPjd6phdHyzycrfNwtM7H2SYfR/PEbqh4SBYqAHo83lr//oTjTqZL566cf/HZfPPdKtP9H8Qo4C3gOKDu94iESABJAESycRPd0Ef5yf/0iWdy77T/4vMdfJ19dXW1+QN4D/5xynJn4HPWfgJSJbyjjMCyHwgs20Rg2Y9EdtdtxrwRDEN5zS9/sXzTr/5dL8jE3a9N9HFEGxyNs1SGHRPN6zLdtqbm4L/b9u068uE787jtjlt4dPqDpo9xECOBN4jWCqg5zHOFSBhJAEQycQEvEb1aUsbj9nDPtP9y5uSzD/vcigrzy8xI++3JSdM0slwZeJ3xmexnVPrxL1xL9furCCz7IS5b5EZ2l1PzwSpqPoheHbs6N8U7rgfeo7ujZyf2FreWZn5eXUXFoScQejxe/vn3f9Oje0+uu+EqAsGA6WPVYizRiYGTgPjtHCVEDCQBEMnCQXT51MkqOy3IL+Dp6TMZPHBonZ5fXGJhu/cDTk4akO3OxONQPxk8tHYHlTM/w79gLUYcdyKsTfD77QS/307FI5/gGdGJ9CmDcHZocviGClhJAOr6uz3rjHNpW9iO8y6aQlGxohLPUeOJblp1NhBR2bEQZkgCIJLFI8BklR126dyVGU+/TJvWhXVus37DWvMH9P0yAqChkePNwq2bH7KuTXDlZipnfIZ/8bq4XO3HwgiEqPnoW2o++hb3EYVkXDgCV/f47o2j+cwnAOvX1/13O3TwcN5/6xPOOm8S369ZbfqYtTgTKAd+p7JTIcyQVQAiGdwCXKiyw7FjxvHe7LkxnfzD4TAbNm4wf9BG0RUFGhq53mylJ//wlhJKr59F8eXP4f/U/pP/gQJLf6D4smcp/fNLhLeWxu04jibm5x+s37ieSKTuF95tC9vx3uy5jBk91vQxD+IS4CbVnQoRK0kAhN0mA7er7HDSaZN57slZZGbGtvrqu++/xe83OUdL06B5FpqmkePNxKVojb8RDFM54zOKzpuO/3MLyUmC+Bevp+i8x6l4cmFcbk04WuaBbm4JZU1NdcxX81lZWbzw7KtMmXyOqWMewh1EbwUIYRtJAISdRgBPo7AQ7oXn/44H//s4LlfsV9/zF8w1f+CmmeB2kO3OVLahT/D77dGT6SOfJPw+vxWGP0TlUwspuuAJgmu2K+1b8zgtrUJYsOiTmNs4HA7+e+9DXPa7K00ftxYa0fLWR6rsVIhYSAIg7NIFeB1QNj3+hmv/wr/uvNd0nff5Cz8xf/AW2eR41E34q35zOSV/eJbw5hIl/dkh/FMxJZc9S9XLXyrt19E6z3TbeQs+MdVO0zT+/td/cv21Skfu3URXvXRS2akQdSUJgLBDDvAmYP6bfD+apnHXHXdb+nIuLilm3nzzIwCers2V1PU3Kv2U3vwqZXe/F12fX88ZwTDl989hz19fx6hWs6zO1amp6bZzP5lD6R7zcxRuuPYv/PPv/0ZTV8kxn+hnIS6lCIU4FEkARKJpwBOAkn1ZNU1j2h33cPEF1rZif+31lyyt+07rb2ETob0iJZWUXD0T/4I1lvtKNjWfrKbkqhlESqwXw3P3M7+Jjz/g5/XZr1g6/iUXXsZdd9ytMgnoRHQJrNSHFgkVl33VhTiEWwFrZ+v93HHbXVxy0WWW+jAMg2v+dDk7d+001V7zOMm86mg0h/l8Orx9DyXXzCS0cZfpPpJdpKgC//zv8Qxpj55lvoCQnp9B1YtfQNjcUvrt27cy9ewLLJ3A+/XtT3p6BnPnfWS6jwN0BoLAAlUdCnE4kgCIRDoaeAxFI083//k2rrjsGsv9vP/hOzz82AOm27v7tMZ3fC/T7UObiim54nki2/eY7qO+MMprqJn3PZ4hHUxXEdScOoGlPxA2+Xrt2LmDfn37076dtUGogf0HkZGeqTIJGA0sAdap6lCIQ5EEQCRKO+BDohv9WPbn627m2qtvsNyPYRhceuVFbN++zXQfaRP74+rW3FTbyO5ySq6eSWSXhRLE9YxRFSCwcA2e0V3Q083NmzDKqwks2Wg6hh82beTsM6daHsYf2H8QhmHw6eKFlvrZSwOOBWYB8SumIMRekgCIRHAS3RGto4rOzjvnQm6/9R8quuL5F57hyWceN9+BQyf7huNNVagzKv2UXPsC4U0Wyg/XU0ZVgMCXG/GO6Ybmib1mgqN5DlUvfQmGuYpIW7dtobBNW3p072mq/f6GDx1JcXExy5YrWe2QBgwDnkLKBYs4k0knIhH+DtysoqPjjjmRpx+fgcNhPXctLilm8Ig+luq9e4a0J+euSTG3M4JhSq6ZSXDlZtPHrguHw0GP7r0YMmgYnTt1oUP7jrRo3pLs7BzS06JbE1dWVbJnTymbt/zE+g3r+H7Naj79bCGrvlkRU+U8M9y9W5F775ngjP2uUOn1sywVRyooaMTnC5aTk219u+NwOMy5F5zBex++Y7mvvW4HblPVmRC1kQRAxNswYB4KRpv69O7Hm6+8R9reE5cVhmEw9aIpvP3ubEv9ZN82Hu+RXWJuV/7AR1TNWmLp2AfjcDgYPXIMp0+cwtgx40yf4EpKS5jz8QfMenkG8xbMJRyOz7LE9DMHkfH72Ovh1Mz5lj1/t/b7O/nEU3ny0ecs9fFzPDXVjJ90AkuWfq6iuwgwhuhnR4i4kARAxFM2sBwotNpRm9aFvP/mXBo1amw5KICHHr2fm2/7s6U+HI0yyZ/5ezRXbLmNf9FaSv/yivJ6/unpGZx/7oX8/uLLadbU3JyEg9m2fSsPPXo/Tz4znaqqSqV9o0HOPyfhGRLbUkojGGb3GQ8T2W1t/sS0O+/hovN/b6mPfYqKizj2pDFs2KhkHt9GoA9QpqIzIQ4kcwBEPD1BtNyvJVlZWbz5yvu0atlaQUjw4Ufvc9V1l1ke3s64cCTuni1jahPeUUbp9bMw/OpK+zqdTn530R94evpMjj/mRDIzYtsDoS4yMzI5ctRYpp59AYFAgK9XfKX09kDgi434xnVHS6v7pEDNoaNpWJoMCDBvwVz69e1P28J2lvoBSPOlceSoo3jx5RkEApYLH+UCLYHXLAcmRC0kARDxcgpwp9VONE1j+sPPMGjAEAUhwdJlSzhz6kTzm/7speemk33TiWjO2D5CZf94i9A6c/UGanNEvwHMfOYVzpg0BZ/P/Nr6ukrzpXHUkUdz7LgTWLHqa7Zt36qkX8MfIry9DO+YrjG1c7ZvTPWbyy0lVJFIhHfee4tRI46kWTPrIyf5efl06tjZcsGhvXoDy4DUqw4lbCcJgIiHbOBtwPyuLXtde/UNXDD1YusRAYs+XcAZ555GRUWF5b7SzxuGu29sFen8i9ZS+ZSS5WJomsYlF17GYw89RbMmzZT0GYsmjZswZfI56LrO4s8XYZicjb+/8I9FuLo0w9mq7hWiNacDwgaBZT9aOnYwGOCNt15lwBGDaN3KfKXBfTp26EwgGOCzzz+13BfRUbTpgF9FZ0LsIwmAiIf/oGCXs7FjxnHfvx9QUnL19dmvcN5FU6iqsl6K1tEyl+wbT4yp8p9RE6T0xpcxKqx/h3u9Pp545BkuveQKJashzNJ1neFDR9K1czfe/eAdwmHrtzWC327Fd3KfmF5bV+dm1Mz5FqPC2qiO3+/n1TdepmOHTnTuFNtIRG2GDx3J0mVL2PiD5W2cs4gm1cqWGAgBkgAI9UYC92Nxgmmb1oW8PHO25WHtQDDALbffyF///hdCCk5QADm3nIKzdX5MbapmfK6kxn92VjYvPvcqY0YfbbkvVTp36sKQwcN4+93Z+P3WEhyjvAYtzR3T3ArNqeNonkPNR99aOjZAOBxi9luvUVZexvBhIy0lWJqmcfRRx/LGm6+yx8IGRHsdAXwE/GS1IyH2kc2AhEpeoqV+LZ38nU4njzzwhOX12V+v+IpjTxrDI48/oGSIGsA7ugvugW1jamNUB6h6yfqSv/T0DF6eOZshg4ZZ7ku1oYOH8/KM2UqWaFbN+gKjJhhTG8/QDnhGqNlV1zAMHnr0fo47+ShWrPraUl+5Obk8/L/pOJ2xFzs6gE70s6Vs+2whZARAqPRnIPaqOAf40zU3cvqEM0233717F7fdeQvX3nClsklqAHpOGjl3TkBLi63qX/UrX+JftNbSsV0uF89Mf4FhQywvqoib5s1a0L/fAF5/4xVLNQOMmiB6Thqu7i1iaufq0YKa91cpW2Gxfcc2npvxFEXFRfTp3Y+0NHNVrFs0b0kkEmHRYsv7/DQCKgE1E0lEgycJgFClBfAiEHtN3P0M7D+Y+//vYXQ99sGpLVs3M+3uO7n0yov4Yslnyq76AdA1sm8/FVenJjE1M4Jh9vztDYwqa0vC7rrjHiacerqlPhKhTetCMjIy+Gjuh5b6Ca3fRdqp/WKaC6Cne3AWFlDzsfVbAfsYhsGyr77kiacfo7i4iC6du5KZGfvc1sEDhzJv/ly2bttiNaRBRMsEW5/JKho8KQQkVHkGOMdKB5mZmXzywWIK29R9iL2ouIg5H73Piy/PYMGieXErXZt+1mAyLhkdczsV1epOOek0nnjkWUt9JNrUi6bw1jtvWOoj+6+nxLwsEKD8oblUvaCkGt9v6LrOyOGjmTxxCkeNGUd+Xt3ngvzw40ZGjxtCebnljZ+eAs632okQkgAIFQYBi7H4furdqy9nnXEuHTt0olXLVmRl5ZCRkYGmaVRWVlJaWsKWLZtZt2FttF794gV8890qtVf6tXD3aU3uvWdADFej+5T8aRaBL8zPAm/cuAmfzf+K7Kxs033YoaS0hMEj+rC7aLfpPjyD25MzzcQdpVCE4mtmElwR3/lyuq7TvWsPhgweTudOXejYvhPNm7cgJyeX9PR0DMOgoqKCsrJSftr8E+vWr+X5F55h+dfLrB46AgwmunWwEKZJAiCs0oie/AfZHUg8ONs2Ivf+s9AzvTG3jeyuYNekByBiPkF56P7pnD7hDNPt7TTjxWe54hoLJXYdOo1e/gN6XuwTC41KP8VXziC0bof54ye3xUT32Yhv9itSmqwCEFZNJkVP/o6m2eTeM9nUyR+gZs43lk7+A/sPZtJpk023t9uZp59Nv779zXcQjlAzx9z9fC3dQ+60iTia1q+RkxgMASbaHYSo3yQBEFY4SNEtS/WCDHLvnoyen2G6D//i9ZZiuO6aPyspgmQXTdO49uobLPXh/8z8a6gXZJLz78noBeZ/h0nudmQit7BAEgBhxTlAZ7uDUM3RPIe8+8/GEUNJ2gMZ/hDBb8zP+O7VozdjRo813T5ZHDP2OHp062m6fXDlZoyA+WV9ztZ55D1wDs7W5n+XSawrYH69rGjwJAEQZrmAW+wOQjVXl2bkPXQujubWihAFV27GCJpfCz/1nAvr9dX/Ppqmce7ZF5hubwSsJVKw91bOA+fGXFegnvgrYLnKkGiYJAEQZp0PWN8/NYl4j+pK7n+moOeYK/iyv8BX5jen8Xi8jD95guUYksVp4yfhdpkvD2F1ox8APctL7j2T8Y7uYrmvJNMBmGp3EKJ+kgRAmOEBbrY7CFU0t5Osa48l+9ZT0LwuJX0G12w33XbM6LGWyyAnk9ycXEaPGmO6feh786/l/jSfm+zbx5N5zTg0d0pdNN9MdEROiJhIAiDMmAK0sjsIFfTWeeQ9dC6+k/so7Tf8Y7HptqNGjFYXSJIYOXy06bahn8y/lrVJG9+PvAfPiXlDpyRWCNTPtaLCVpIACDOutjsAy9xOtLOPIH/6hTg7NFbateEPEd5VZrr98KGjFEaTHEaOML87dHj7HksTAWvj7NiE/CcvJPOKsWg+S9Wrk8WfkLouIkaSAIhYHQv0sjsIS4a0gccmknH+cHS3+lVU4c3Fptf/e70+OndKufvUdO3cDY/HXD0FIgbhLZa30/0tp07axP7kP3kBnmEd1fefWD2B+r9sRCSUJAAiVtfZHYApGjCoNdx3Mtx6NHqTLHxOX1wOFd5h/uq/fdv2pjZCSna6rtOurfk5o+EdexRG82uOZjnk/GMC+dPPj04SrL/X0fXzsylsk1IzYUTc9QaOsjuImLidMKwQJvWCtr+sBU9z+uL2PW9Um9/5r337en8lelDt23Xku9XmKvsZldZ2U6wLZ4cmZN8+nvR1O6mc+Rn++WuU33qIs6OJjs6tsDsQUT9IAiBiYe3ev9sJwVD8q5drQPemMLYjDG8L6e4D/lnD5/LE7fBWtv7Ny03JgjWAtZ/NSlIVK2eHxmTfcjJGpZ+auaupfn8VwZU/xf99q2toLgeG33TSoQFXAReqC0qkMkkARF1lA9Y2pL90MAxqA0s3w5Kf4JvtUFSlJrrGGdC7efTRpznkH3wtv8/pRY/j3S8rCUBGRsqWrSUjI9N0W6PKrzCSutHSPfhO7I3vxN6Ed5UTXPYjgb2P8E7zt3n252iUiatXSzyD2uMe2Bb/orWU/fs9K11OBq4B1AQoUpokAKKuzgLMV8jJ8cGYjuB2RK/Mx+4d6i6ugrW7YWMx7KiAneWwqxKqguAPQVUAdA3SXJDmjj4y3dAiG1rmQKtsaJUDTep+cklzxefe/z4WruDMT5SrB3w+86+7UWPvULyjUSaOY3rgPaYHAOFtpYQ2FRP+cTehn4oJbyomUuHHqPJjVNRgVAcxwhH0dA94XOjpbvQmWTiaZONomo2zXSNcXZr9ZqdD77geVDw+n0iJ6cQ4negy3Yet/LyiYZAEQNTVRZZan9QtevI/UF5adHLeoNaWuq8rj8ONQ4vvJDvNY/5j5ffXKIwkuVRXV5tuq3mT66vK0SwHR7McGKS2GKbmdpI2vh8VTy600s1FSAIg6iD1phuLeBgI9DXd2u2A45JjaZvPGf8rbC3N/LryiooKhZEkl4qKctNttbT4zdlINr7x/SwlkcARQD9F4YgUJgmAqIuLLbU+uhPkxnfYvS4cmo7HEf+iL1YSgOIStVXvkomVn83Ka1rf6DlpeMf1sNqNtRE70SBIAiAOx4uVyX+aBuMtf5kp4U3A1T9gqbLc+vVrFUaSXNZvMP+zNaQEACDt9AFW6xGcATSsF03ETBIAcTjHAlmmW/dtDi2z1UVjQSKG/wEcTcy/XOs3ricSiSiMJjlEIhE2bNxgur2jSXK8hxLF2Tof9xGFVrrIBcapiUakKkkAxOFY22RkXCdFYVjjTsDkv30cLfOiKxdMqKmp5vs1qxVHZL9vV39jfoKjruFokTq7I9aV7zjLFbcnq4hDpC5JAMShpAEnmG6d7o7W3U8C3gTc+99H8zhxNDY/CrBg0SfqgkkS8xfMNd3W0TQ71bbvrRPPyE5oGZZGrU4B7J98I5KWJADiUE4EzFemGd0+Wv3PZpqm4XEkdha5o7X5qnfzFnyiLpAkMX/hJ6bbOlulbnXEQ9HcTrxHWlo9k0n0Fp4QtZIEQBzKJEutxyZHXXu3w42uJXaHF1enpqbbzv1kDqV74rD7nU2KS4qZN9/8CICzSzOF0dQvvuMt3wawVr1TpDRJAMTBuIFjTLdukQ2dG6uLxgKvnvjJ0O5+5m99+AN+Xp/9isJo7PXa6y8RCJovj2zltazvXN2a42yTb6WL4wGXonBEipEEQBzMCKJDiOZ0b0L8d085PA0Ssvb/QK4eLS3dt3762ekYhv2vn1WGYfDM80+abq95nLi6NVcYUT0TMXB1b2GlhyxgqKJoRIqRBEAczHGWWn+wBi5+Gd5dDSH7lrW5HG60BA//g/UT14pVXzPn4w8URmSP9z98h1XfrjTd3moiVV8ZwTDVby6naOpjVL9jeXdfa59lkbIkARAHY/1LY8se+O9CuHAWfLTWlgEBj8O+0U/PsA6W2t993131ehTAMAzuvm+apT48Q629hvWR/9N1FE19nLK73yO0SUllSJkIKGolCYCoTSugm7LedlbA3fPg+reiSUEC2TH8v4/36O7gMP8R+3LpF8x6eabCiBLr+Ree4avlS8134NDxjumqLqAkF95aSskfX6D0xpcJbylR2XUvwNJ9BJGaJAEQtYnPkOGq7fCH1+DNb+PS/YGcugOHVssOhAmi56bj6V9oqY9b/35TvVwRUFxSzN/uvMVSH56BbX+zXW6qqnplKUXnTyew9Id4dK9hZUKvSFmSAIjajIlbz/4QPPgp/O1DqDQ/M7wu3DZe/e9jdVOX3bt3cc2fLlcUTWIYg9tdTgAAIABJREFUhsHV1/2BouIiS/14j+mpKKLkZVQF2HP7G5T/90OMmmA8D3VkPDsX9ZMkAKI28Z81vPhHuPbN6O2BOHFr9k8e84zqjF5gfjEFwOy3XuPxJ+vP9u4PP/Y/3n53tqU+HI0y8QxPjjoS8RLZXU7xFc9T8/F3iTjcsEQcRNQv9o2PimTVCrgtIUfaUwMLNkK/FpCjuGKpBpmeDDSLW6pZDsOho2kQWLLRUj/zFsylT+9+tGvbXlFk8fHhR+9z1XWXWd7QKOOikbh7tFQUVfIJrdtJ8VUzCG9Weq//UHKBx4DyRB1QJD8ZARAHGp7QoxVVwp/fgR+UzHb+mVNzoifJ29t3cl/0bGsJTjAY5ILfncOyr75UFJV6S5ct4YLfnUMwaG0oW89Nx3dCb0VRJZ/Q+p2U/HEmkd3xG/06CBkFEL+SHN+QIpkkvmjInhq48V2lKwTcNi7/O5DmdZF2+kDL/VRWVjDhzJNYtHiBgqjUWvTpAiZOOZmqqkrLfaVNHoDmTZ7fn0qhTUWU/PEFInuq7Ti8JADiVyQBEAdK7AjAPqXVcPN70WRAAZdu//3//aVNGoCjmfUtbcvKypg0ZTyz33pNQVRqvD77FSZNOYWysjLLfTla5pI2ob+CqJJPpKya0htfJlJaZVcI9ny2RdKSBEDszwtYm7ZuxfZyuGMOhK1XDnTpyXUFqXmcZP1xnJK+/P4aLvjdOdx4y58s1di3KhQK8bc7b+GiS6fiD/iV9Jl5xdjUrPwXilB60yuJvOdfm15AYrfFFElNEgCxv+6Avd++q7bDc8ssdaGj49CS763tHtgOz4hOSvoyDINHpz/IcScfxYpVXyvpMxZfr/iKcSeO5j8P3KusWqF3dBc8g5N7kqNZFdPnE1y52e4wXICl/YVFakm+b0lhJ/uu/vf34tfw9VbTzZ1JNvy/v8wrx6JnqVvxsPzrZYw9bgR/vvk6dhftVtbvwezevYvr//JHjj5hFF+v+EpZv3pOGplXjFXWXzIJLP2Byhc+tzuMfSzvLyxShywDFPubCgyxOwgAVm6HY7uAM/Yc1et0J0URoNro6R6chQXUfKyuGqJhGCz76kueePoxiouL6NK5K5mZWcr6B9iydTPT7r6TS6+8iC+WfKZ2jwJdI/v2U3F1aqKuzyRh1AQpveEljDI1c1sUWAd8aHcQIjnICIDYn+nSa6NGHEmjRo3VRbKjHF4wd4WZzCMAEN3gJm3yIOX9VlVV8tCj99N7QBcmnHESs16eaakaX1FxES++NIPTJp9In4Fdefix/1FdrX4CW/qZg/AMaqe832RQ+dRCwlvVlXJu1Kgxo0ZYKuonIwDiZ/ZWSRHJZgdg6iz+1GPPM2L4aP7+j1t5+rkn1Fwhuh3w2CRonBFTs3xfDs4kqAJ4SKEIxdfMJLjip7geRtd1unftwZDBw+ncqQsd23eiefMW5OTkkp4erbNfWVlJaWkJW7ZsZt2GtXy/ZjWfLl7AN9+tivtuhO4+rcm99wxLmyYlq/C2UorOeQwjGLbcl6ZpnH/uRdx84+3Mm/8x519yttmutgHm96kWKUUSALFPAbDLbOPPFyynQ/to6dZX33iJK665lJoaBWudx3WCa0bG1KRxWkG9eGMblX6Kr5xBaN0Ou0OxhbNtI3LvPws902t3KHGx5863qPlgleV+fL40HrjvEU456TQA1qz9niGj+lnpMg+wdTmCSA6pl3YLs9qabehxeyhs80vz006ZxDuvf0hBfoH1qOasjS4PrCOHpteLkz+Alu4hd9okHE2z7Q4l4RyNs8j516SUPfmHt5ZSM+cby/00atSYd96Y8/PJH6BtYTvcLktzXEx/1kVqkQRA7FNotmHHDp1wOn895N67V19enfU2OdkWi99EDHij7l+kyX7//0B6QQY5/56MXhDbbY76TC/IIPfeM3A0VjtRMZlUvbQk+t61ICsri1nPvUavHr8ui+xyuWjXztJyyUIrjUXqkARA7FNotmHnTl1r/fvuXXvwzBMv4HJZLMrzwfdQE6rTUx31LAEAcLbOI++Bc3C2zrM7lLhzNM8h7/6zcbRK3Z/VqApQ/e5KS324XW5mPvMKvXr2qfXfu3TuZqV7GQEQgCQA4hemvxRat25z0H8bNmQE1//xJrNdR1UFYfEPdXqqo56+pR1Ns8l94Fxc3VvYHUrcuLo0I++hc3E0t14SOZn5F6zBqLZWofHGG25l8MCDb8vRumVrK90XWmksUkf9/LYU8VBotmGL5ofetvWqy69lyCCL+5B8vL5OT3No9WUGwG/pWV5y75mMd3TqFWvzHtWV3P9MQc9JszuUuKu2eO9/2JARXP77qw75nJbWEgAZARCAJADiFwe/jD+MVof5MnI4HNx15z3ouoW32/ItUH34bWZ1vX7XttJ8brJvH0/2TSemxI54mttJ5hVjyb71lJT4eQ7HqPQTWPaj6fa6rvPPO+4+7GflcJ+5wzD9WRepRRIAsY/pMmx1+TLq0a0np5x42mGfd1ChSLQ64GEk4x4AZniP6UHe/87G2Trf7lBMc7bJJ++hc0mbmJq7+9UmsOzH6HvVpAnjJ9G96+ErcltMABRW7BL1WWp8WwqrdMD0jdmWLQ59C2Cfa6++wewhor7acsh/1jQNPYXe0s6OTch/8sLoDnm+5CxtXBvN4yT9vOHkTb8AZ4eGda6xcvUPcM2V19fpeRYTgDykBoxAEgARlYfJfSHS0tJJT6/bErauXboddFZznaw99GY3Glrqfa05ddIm9if/yQvwDOtodzSH5RnRifxnLybj/OForvp9O8aM4Optptv27XMEnTvVbf5HRkYGXq/pTaWcWEj4Reqof2umRDyYXpOVm5Mb0/MnTzyTFSuXmzvYhiIwDDjIRD+9Hk8APBxHsxxy/jGB0LodVD67mJp5qyG+VXrrTgPPkA6knzMUV7cGXGU2YhDaYLqYJqdPOCOm5+fm5LJtu+lqm/lINcAGTxIAAdEywKbEmgAcOcrClq/VQdhZAU0ya/1nLUXu/x+Ks0MTsm8fT/q6nVTO/Az//DUYgbrVSFBN8zjxjOxM+pmDcLZvWEP9tQlv34NRc/iJqgcT62cjLzePbdtNb5tdQHRnQNGASQIgwEICkJcX2yS1Th07k52VzZ6yPeYOuKvyoAlA/SkCbJ2zQ2OybzkZo9KPf+Faqt9fRWDZDwkZFXB1bop3XA+847qjZ5kehk454R0m39NAdlY27dt1iKlNTm5syfcB6u/sUqGMJAACwHQd2pwYRwA0TaNnz94sXDTf3AF3VRyy74ZGS/fgPaYH3mN6EN5VTnDZjwT2PsI7y5Qcw9EkC3e/NnsfhQ2qbHEsIrvqvmfFgXr36hvzMtncHEvVFGvPokWDIgmAADA9xTwzI/bvkWZNmpk9HFQcvMKa1oBGAGrjaJSJY28yANHtaEObign/uJvQT8WENxUTqfBjVPkxKmow9tZV0HxutAwPWpoHPdOLo1Uuzlb5ONrk42yT3yA3KzIjUuE33bZpk6Yxt8nMtHQO91hpLFKDJAACLHwZeDyxN82xcuXiP/j97oZ9+v8tR7McHM1yYFA7u0NpEKzc/8/NjX1E3uKOgPVnXamIm9SfNSXqwvSXgdMZe3U3S1cugfDB/60BTAIUSSx4iPfmYaSnp8fcxu22dBEvIwBCEgABWBoBiD13MD0BEOAQa8s1I1nWxYkGyULdg7Ky2OdruN2WSivLCICQBEAAFr4MXCaGIYuLisweDjyHuGvVACcBiuShHeq9eRglJcUxtzHz2duPjAAISQAEAKYvJZzO2L/0dhebL5ZCxsG/9OT0L+ykZ3hNt91dFPtnwu2WOQDCGkkABCTw3GkYBqtWrTDfQaPY75UKkQh6I/NzW1asXI6R2FtYki8LSQBEYn2/ZjUlpRYqkBZIAiCSk6Nxlum2JaUlrF23RmE0QhyeJAAioRZ/vsh8Y7fzoFUAhbCbo1k2mtv8PABLnw0hTJAEQCTUS6+8YL5x21zQZeRSJCmHjrPQdFVtXn71RYXBCHF4kgCIhPl+zWo+X7LYfAcdzH+5CpEIzs6xV/TbZ/Hni1i3fq3CaIQ4NEkARMI8/uTD1jro3YC3mhX1grtvG9NtDcPg8ScfURiNEIcmCYBIiDVrv+fZGU+Z70DToJeFPQSESAB3vzaW5tc//ex0GQUQCSMJgEiIm2+7gWDQfK10ujeBbPPrrIVIBD03DVePlqbbB4IBbvjLHxVGJMTBSQIg4u7ZGU/x0dwPrXUyUja0EfWD98gultp/Mv9jnn/hGUXRCHFwshugiKsvl37BDTdZvKJxOSQBqAsDImXVGJV+jFAEozoAgRBGIIRRE8QIhjGqAhCO/KapluYBxy9j15qmRbcIzvCiZ3rR0j3o6R5wyjXD4XjHdKXiobkYFjYH+tON19CtS3f69jlCYWRC/JokACJuNv6wnqkXTcEfML9POgAj2zbo4X+jOkB4aynh7XuI7K4gUloVfeypIlJUSWRP9c//TyS+1eQ0ryuaDGR40DK9ONs2wjOoHZ6hHcAhyQGAnpuOZ1RnauZ8a7oPv7+Gcy88kzdffZ/CNm0VRifELyQBEHHx7XffMOHMk9i5c4f1zk7ubr2PJBfeUUZ4S0n0RL9t32MP4a2lREqr7A7vZ0ZNEKMmSKSoAoDgqi1Uv7kcR6s8sm84HldP8/e/U0nahP6WEgCArdu2cPz4sbwy8026dummKDIhfiEJgAAImW0YCAR+83cffzKHSy47z1rJ330GtIJOjer01PqwGbBREyS0YRehDTsJrd9FaP1OQht2ESmvsTs0S8I/FVNyzUyybx+PZ1hHu8Oxnatbc9wD2xL4YqOlfnbs2M5Jp43j0QefYszosb/6t9o+ezEw/ZkXqUMSAAFg+hKzdL+TfHV1FX/9+1944unH1GxsogHn1P0eqJFkKYBREyS4ehvBlZsJrt1BaN1OwttK4z5MbxcjGGbP398kf/r5OFrk2h2O7TIuGEnxko2WM9OS0hJOP2s8F0y9mNtvuROfLw349WfPhOQZVhK2kQRAgIUvg+KSYoLBIC++PIN77pvGpp9+VBfVUR2hY92r/yV4N7XfCO8sI7hyC8FvthBctZngup21TrhLZUZ1gIpH55F9+3i7Q7Gdq2szvEf3oOaDVZb7MgyD6U89yocfvc+1V9/A5IlTKC4pttJlpeWgRL0nhdUFwBnATDMNWzRvia7r/LR5k9qI0t3w2CTI9dW5icfhIceTuM2CwltLCSzZSODrTQRXbiG8syxhx05qDp1Gr1+BnlX3392hGIEQ/rmr8X/5A5Fd5dFDtMrF3bs17iMK0XPTlBwnHiLFlew++1GMSosTYQ/QqmVrIpEIW7ZuNtvFZGCWwpBEPSQJgAAYCiTXVmTXjYqOAMTAqTvJ9+bEKaDo1W1g2Y8ElmzE/8VGwlsUzHFIUTnTJuEZ3N5yP/4Fayj7vw9+nnT4Gxo4OzTBM6At7v6FuHq1QnM5LB9Xpep3V1B21zt2h3GgIcBndgch7CW3AATAD3YH8Csj28V88gcIRUIYhoGmKcprDQiu3U7gi43RK/1VmyHUsIb0zVKxcqFq1heUP/DxoZ9kQGjtDkJrd1A54zM0rwt371a4+7fFPaAtzrb2byDlO64X/sXr8c/73u5Q9qd4yE7UR5IACIDtQAWQYXcgtMqBK4ebbh42wjg1a2/r8LZSat5fRfX7qwhvLbXUV0N1QuP25OV1YFOgjE3+CnYEq2OapBlY+gPlDx7m5F8LoyaI//MN+D/fAICzsADvsT3wHd0DvcC+t3f29cdRtGEX4Z8s3bdXpYzoZ140cHILQOwzHxhhawQZHrjvZGiRbbqLLHcGPqe5okHhraVUPD6Pmo+/qx9rCpPYN0vfoVuXDj//f1U4xDp/KaurS1lTXcqamuhjU005kQNfbAOKznuc0A+71QXk0PEd25P084fjaJS4eSL7C20qovj3zyifD2DCPGC03UEI+0kCIPa5F7jGtqN7nHDnsdDd/H7qAB6HmxxPVkxtjJogFY/Oo+qNZTLEr0CPbp1YueStOj23JhLiu+oSvq7czfKq3XxduZtvln7DrkvjUwtfcztJO30A6ecNt2WuQGD5Jkqvn4Xht3UZ/r3AtXYGIJJDcs2WEXbKAE635chuB/x1HPRubrmrCBHSnL46zwMIrd1B6XUv4v9sfcquz0+0/959Cz261W0Oh1PTaeZOp096I47NacN5jbsSnvs9H338aXyCC0cIrtiM/9P1uHu3Qs9J7AoCR9NsnB2bROcD2Pd+mwYk1YQEYQ8p3i32mQNY2K/XJJ8L/nYs9GuhpDvDMAhE6vZj1HzwDcWXPkNoU5GSYwuYetapTJ54vKU+dmzbpSiagwut20HxJU/hn5/486BncHtypk1C87kTfmyin/HYJ1eIlCQJgNhnD4leCpifDtNOgN7NlHZbHao+7HOqXlvGnn++ZWnHNvELTdO49OIpTH/oH5b7Sk9TUz/gcAx/iNK/vk71OysScrz9uY8oJPe+M+2YmLgIKE/0QUVyklUAYn+vkKjJQT2awk1HxVTop6784SChSBinXvsdrqpXl1L+nw+VHzcZ+HxeGhXk4fN6yMhIx+t14/N6SUvz4fG4ycxIx+n87esSCASprPolcaqp8VO6p4w9e8rZU1ZOaWn0v7Ud76jRQ7juqgsZNWKgkp+hV4/OSvqpk4hB2b/egYiB78TeiTsu4OrSjPxHz6P01tcIrtqSqMO+kKgDieQnkwDF/vKArYAnbkdw6HBGHzizT1y3j/U5vWS5f3t1FViykZIbXqp3JXqzMjNo17YV7dq2onWr5jQqyKNpkwIaFeTRqCCPxo3yadK4gPT0+F49l5TuYc+eCvyBAC6nk1Ytm+Fyqb2OKCndQ+vOo6ioSGC5eqdO7t2Tcfdtk7hj7hOKUPHMIiqfWxzv96UfaAZIBSsBSAIgfmsWMCkuPXcogCuG1Xl3Pys0TSPfm4tD+yXJCG8poeiSpzEqknPnvZzsLHr17Eznjm2jJ/vCVrQtjJ708/PiV+EwGd146z3cdc8jCT2mnuUj77HzcDQ1vwzViuB32yi75z1CaxVsoV27F4mW/RYCkARA/NYwYKHSHnN90V39ju0Mqqr01cGvlgQaUHLNTAJfKdysyCSHw0HH9m3o1bMLvXt2oWf3TvTq0Zk2rdVMhEwFfn+AEUefyZKlKxN6XPeAtuTePTmhx/yViEH1W19T8cQCIiXK9+sZBHyhulNRf0kCIGqjpiiQ1wnn9ofju0TX+dsg15ON2+Gi+t2VlN31ti0xNG/WmKGD+zFscD+GDOpLrx6d8fnMFStqSEr3lDHprCuZMzdOSwIPIvvmk/Ae3T2hxzyQUROkevZyKqbPx6hRsjhnPjBKRUcidcgkQFGbO4H3LPdSE4KSanDb9zbbEygnjwwqHpmbkOM5HA569ejMsCHRk/2wwf3kyt6knOwsPnjzSWbMepMHH53B4s+/SsiWz+UPfoxnVGc0G9+3mttJpKRS1ckf4DZVHYnUISMA4mDeA45R0tOg1nD1CMhJzPKuAznf/p7Q/xbErf+2hS05ZuwIjhk7gjGjB5OVaf+WCqlo2/ZdfPDRQj6Ys5A5cz9l56741W/IuvZYfCf3iVv/hxIpqaJs2tv4F69X1eU7wAmqOhOpQxIAcTDdgeWoGiXK9cHvh8CIdol910UMuHAWbFe39Dk9zcvIob04btxojhk3lk4dC5X1LerGMAyWr/iODz5ayIcfLWLh4qX4/QFl/Tta5FLw3CWgJ/DNakDNx99Rfv8clff/g0Bf4BtVHYrUIQmAOJRpwPVKe+zeFM7pp6Tsb518tQVuetdyN26XkykTjuKM045k6MAeeNwunL4CdLc9G8uIX6uqqubjeZ/x4KPP896HC5TcKsi978yELQsMLP2BiicXEly5WXXXdwC3qO5UpAZJAMSheIClREcD1OpYAOM6RUcEsuM4Ie6hxTDb2sVP9y6FzJp+Kx3a/vpeviQAyenrlauZdPaVrF33g6V+0ib2J/OKsWqCqkWkpIqaT1ZT8+4Kgt/HZXfe74he/du+/aBITpIAiMPpB3xKvIoDOfRofYBeTaF9PjTPhoL06B4BXgV3H6a+ADsrTDc/cnhfXnrir2Rm/Hb+giQAyaukdA+nnH4pCxZ9aboPR9NsCl681HIsRnUAoyZIeGc54c0lhNbuILD8x+hJP34bAlUDQ4Cv43UAUf9JAiDq4hwgPvuzJrHGjXJZOuchGjfKrfXfJQFIbjt3FdF70Mls3xH/zYWS0IXAE3YHIZKbbAcs6mIF0BTob3cgifTEf6/niD6dDvrvuisNzRG/qsnCmvT0NFq1aMbLr1tf0VrP3A9Y35VJpDwZARB15SC6kchEuwNJhMaNctnw5XOHrHMvIwDJLxQK06rTyIY0CvAmcCog21yKw5LtgEVdhYneCkhMRR2bTZkwRvkmNyLxnE4HZ55+ot1hJMoHwGTk5C/qSBIAEYsa4ETA+rq6JDfp5NF2hyAUmTheTT2rJPcucArRyX9C1IkkACJWVcB4YKbdgcRL65aNOaJ3R7vDEIoMHtiHFs2b2B1GPD1D9DOZnNtciqQlCYAwIwCcRbTASFw3MLfD1b+bgJbAXQtFfOm6ztWXn2d3GPFgAH8BphL9TAoRE/mWE1YdR/QKpMDuQFRo06oJKxdMx+N2Hfa5zrRG6C6p+18fVFfX0Kn3ODZviUvBHTtsJ3ri/8DuQET9JSMAwqp3gR7AG3YHYpWua/z3H5fX6eSvaQ50Z3oCohIq+Hxe/nfvrakysjMb6I2c/IVFkgAIFXYQvQd5JvCTzbGYdv0VZ3DsUQPr9FzdkwUxnEx27S7m7v9MZ/SxZ9O8/TA8ud1p3n4Yo489m3v++wS7dhebDbveSvRrcsqJY7n2yguU9plgm4HTiE7222lzLCIFpEQ6LJJKGnAdcC2QZXMsdXbeGcfw4L+vxuGoQ06s6bgzW4F2+OcahsG/73ucO+56kPKKg+/wlpWZwS03/oFrr7wgVa5SD8rO1yQUCnPB72/k2ZmvK+kvQUqAu4H/AMq2CRRCKgEK1YLAPOBhoBzoCST1WPnVv5/AfXf+AV2v24CYw5OJ7jr8jxQMhjjzvD/ynweeJhAIHvK5/kCADz9axOo1Gxh/0tF1jqW+sfs10XWdU048ij1l5Xy+JOnL5G8D/k10wu2HRD9bQigjCYCIlxpgAdGypCuBTKAtSXTbqUWzAp5/+CZ+f97JMVxhajjTGqFph//oXHHt33j6+ddiiumbb9dSUrqH448ZFVO7+iIZXhNN0zj26JEMOKIn8xZ+QXl5Ul5U3wycTrTwlizvE3GR2mONItksI7o9qa1aNm/EHy44hYvPPbHWXf4ORXel40xrfNjnfbLgc4489hyzITLn7ac5avQQ0+2TUTK+JmXlFTz8+Ezuf+jZZFshMA34s91BiNQmCYBIlB5ERwISKj3NS6OCHFo2K2DIgO6MGdGXEYN7mi7z60pvhub0HvZ5w446g08/W2bqGADDhx7Bgg9Tq9ZSMr8mwWCITxZ8zseffMbCxV+yZesOdu4qorLStsJ6m4iOmKVcnQ2RPCQBEInyL+BPZhtffM4J/G/alQrDiZ2mO3Fltjrs87Zs3UGrTiMxDPN7vWuaxqbv59GyRVPTfSSThviaDB0zmcWff2Wli5FEb6MJERdJcz9WpDSd6BJB0y48+3hFoZinu+u2qGH+wiWWTnQQnSm/aLH5q+Vk0xBfk/PPmWC1i7NUxCHEwUgCIBLhaKCl2caDjuhK354dFIZjhlanmf8AW7btUHLEzVuT6p60JQ3xNZk88XjS0mKbY3KA0wGPonCE+A1JAEQimJ/5RXT4326604um123eQEVFlZJjJunsdFMa4muSlZnBhFMs7USYCzSIrQyFPSQBEPHmJVq5zJS8nEwmnjxSYTjm6K5Mu0MQ9dAFUy3fBjhVRRxC1EYSABFvYwDTO+acNWksPq/No6CaA92VZm8Mol4aNXwgbQtN3/0COAGp1yLiRBIAEW+mr/4Bpkw4SlUcpulOX0x1/4XYR9M0Jk+wdAurETBYUThC/IokACKeNKJXMKa0bdMsCSb/UefJf0LUZsJ4y7fxT1IRhxAHkgRAxNNAoIXZxqefMtr+jXE0Dd11+MI/QhxM/349aNf28PUjDuFkVbEIsT9JAEQ8WbpySYrJfw4f8jERVp160tFWmncFOioKRYifyTebiKdjzTbs1L4lvbq1UxmLKTL5T6gw8VTTH4V9xqqIQ4j9SQIg4iUb6GO28aknjFAYilkamiQAQoFBA3rTonkTK12MVhSKED+TBEDEy3AsLF86evQRCkMxR3O467TtrxCHo2ka444abqWL0cjeLUIxSQBEvJi+gZ+Z4WPwEV1VxmKK7pDJf0Kdo8cMs9K8MdBFUShCAJIAiPgZZbbh6GF9TG/Xq5LmlDLsQp2jjxqGrlv6yj1SVSxCgCQAIj4ygH5mG48dabqpUrpTRgCEOgX5ufTpZWlka7SiUIQAJAEQ8TEAcJltfPSR/RWGYo6mu0Du/wvFLN4GGKQqDiFAEgARH73NNmzaJI/2hc1VxmKKDP+LeDhylKVzeGuipYGFUEISABEPphOAAX06q4zDNN1paR93IWo1aEBvq/MAkuP+mEgJkgCIeDCdAPRPkgRAc7jtDkGkoJzsLDp1KLTShf3rY0XKkARAqOYkWrrUlAF9kyQB0ExPYRDikAYNMJ0fgyQAQiFJAIRqnQFT0+c1TaNvL/tLnmu6W7b/FXEzeKDpApkgCYBQSBIAoVp3sw3btmlKXk6mylhM0Rxy9S/ix+IIQGtA9qcWSkgCIFQzvYNPl46tVcZhmqZLAiDip1uXDjgcppeYakB7heGIBkwSAKFaG7MNk2H5H+y9BSBEnHg8bgrbtLDSRQdVsYiGTRIAoVqh2YavlBruAAAgAElEQVQd2lr6UlRGbgGIeOva2dJFvP0TZURKkARAqFZotmGHtskyAmD/PgQitXXpZPpOGcgIgFBEEgChkkZ0kpIpSXELQNNAk4+FiK+uXWQEQNhPvumESvlAmpmGuq7RumUTxeHETpP6/yIBOrQzPVUGIDnulYl6TxIAoVKe6YY5WTgcSfB2lKt/kQAtmltKdhurikM0bPJtJ1TKMdswPy9LZRymaZrc/xfx17yZpXN4FiCbVQjLJAEQKmWbbZifmxwJALrcAhDx5/N5ycm29J6XUQBhmSQAQqUUGAGQBEAkRrOmlnb2lQRAWCYJgFDJ9AhAMpQAjpI9AERiSAIg7CYJgFDJ9Fk8Lc3U/kHqyflfJEh2tqWkN0NVHKLhkgRAqGR6/NxCbfSkk5mpZq+W7KzU+Y6X1+S3fF5LSa9HVRyi4ZIEQCSFpFgCCEq2AW7eVM3obPNm9tdFUEVek9+yOOqVJENmoj5Lkm9dkSJMnz2TJgEwrCcAI4cPQLOYSGiaxrAh/SzHkizkNfmttDRLK/kkARCWJcm3rmjodAVX3iqoCKNF8yYMHdzXUh/Dhx5ByxZNrQeTJOQ1+S25BSDsJgmASApWrw5VMRTNArzzr3+01P72m69UEkcykdfk15xOS/NeJAEQlkkCIFQyzDasrKpRGYd5RlhJN6NGDOQPvzvLVNur/jCVI0cOVhJHMpHX5NcCgaCV5pYaCwGSAAi1ykw3LK9UGYd5RkRZV/f962YmTzw+pjZnTDqBu//xZ2UxJBt5TX7hDwSsNE+SjFnUZ5IACJX2mG5YlnoJgNPpYOZT/8c9/7yR7KxDr/nOzsrk/6bdxIwn77U6NJzU5DX5hcURAL+qOETDJTufCJVKzTbckyQjAIbpmxi10zSNP155PueeNZ5nnn+dt96dy/drN7C7qISC/Fy6dGrHiccdyblnnUp+nulKyvWKvCZRfr+lEQBJAIRlyTHzSqSKQcBnZhr26dGBzz94QHE4sdNdaTjTUmetuUheZ0y9mhdffsds87OB5xWGIxoguQUgVDI9ArCryHRTtSKKhwCEOIit23ZaaV6hKg7RcEkCIFQqMdtw244iqmvsH9U0CNkdgmggNm/ZbqX5VlVxiIZLEgCh0i6gykzDSMTgh007FIcTOyMcxMJqRiHqJBwOWx0BkARAWCYJgFDJADaabfz9up8UhmKeEVFTC0CIg/nmu3VWJgGGAUvDB0KAJABCvQ1mG3665BuVcZhmRKTGioivJUtXWGm+lWgSIIQlkgAI1dabbfjpF6tUxmGaEbZ/LoJIbZ8v+dpKc0uNhdhHEgCh2lKzDb9auY7SMvsnNxshKbIm4scwDN79YL6VLpapikU0bJIACNUWm20YCoWZ/e6nKmMxJRKWBEDEz5KlK62uADCdZAuxP0kAhGrria4GMOXlNy1dGalhGHIbQMTNa7M/tNqFjAAIJSQBEPFg+jL+4wVfsW1HkcpYTIkEkqM0sUgtgUCQJ599xUoX3wGbFYUjGjhJAEQ8mK5vGgyGePCJ2SpjMSUSqkTqAQjVZr36Djt27rbSxduqYhFCEgARD7MB09vqPf7s21RW2Xsf3oiEMEKWNmsR4lcMw+A/DzxttRvTybUQB5IEQMTDduBzs42LS8t5YPrrCsMxJxwotzsEkUJeef19vlxmaalrKbBQUThCSAIg4sbSjc5/3f8CO3eZ3lpAiUiwHCMiewMI64LBEDfddq/VbmYCUqVKKCMJgIiXZ7CwZ3l5RTV/nWZ5uNSyiIwCCAXuvf8J1q77wWo30xWEIsTPHHYHIFJWFdAN6Gm2g+Wr1tO/Tyc6tGuhLqoYGZEADncWaJptMYj6bfWaDZw59RpCIUvVe1cAtyoKSQhARgBEfD1spbFhGFz6p/9QXGrjVbgRIey391aEqL+CwRBTL76eGutbXVv6LAlRG0kARDzNB7600sHW7bu54Mp/EQ6bXlRgWdhfhhGRFQEidldc+ze++NLSxj8Q3fznSQXhCPErcgtAxNtWYIqVDtZt2EJldQ1HjzpCUUgmRELo7gz7ji/qnYcem8Hf/vk/FV3dDCxS0ZEQ+5MEQMTbWuA4oKWVTj778jsK8rIZ0LezmqhiZERCaLoTzeGx5fiifnnl9fe58LKbiEQsF5PaBkwFZDmKUE4SAJEIm4BzrHby/twvKcjLor9NSUAkXI3uTEfT5WMjDm722x8x+dyrrE762+d64DMVHQlxIPkmE4mwHugFdLXa0ftzvyQj3cfg/t2sR2WCEfHjcGfacmyR/J6d+TrnXnQ9gYCS5fpLgEuRmtQiTiQBEImyGLgYcFvtaM68pWzdVsS4I/vjcCR4HmskjGGE0V1piT2uSGqGYXD7P/7HNdf/Q9WVfwSYiGz8I+JIEgCRKGVAABinorOvVq5j/qcrGD2sDznZiZ2cZ4QDoDnQnTIfQMCOnbuZfO7VPP7ULJXdPgg8prJDIQ4kCYBIpC+A0UAbFZ39tGUnT7/4Po0b5dKnRwcVXdaZEapBc7jRHK6EHlckl9ffnMPxp17E1ytXq+z2W+B0pOyviDMpbyYSrSWwHMhX2emoYb2Zdusl9O2Z2ETAmdYY3ZWe0GMK+61es4Fr//xP3nl/nuquq4FBwErVHQtxIEkAhB1OBl5H8ftP1zWmTDiKP10+mS4dW6vs+hA0nL5G6G5JAhqC9Rs2cc9/n+Dxp2YRDMZlZd5lwEPx6FiIA0kCIOzyN+CWeHSsaRrHjBnA5ReewpgR/RIwUVDD4c3B4cmJ83GEHSKRCAsWfckDjz7Pq298QDisZJJfbR4FfhevzoU4kCQAwi4a0R0Dz47nQRoV5HDaCcM55bhhDO7fjfQ0b9yOpbszcHoLZOOgFPD/7d13fBRl4gbwZ3Y3IY30QgIh9ICICAJSBAUFQU48OcUKtvPOwsmd5eygB6dYzvP0RPSU+wB2xIKKHAoiLUgTkN7Te9tsNsm2+f2x6g80Ccns7LwzO8/38/EvMjOPySTz7Mw779vQ0Igt23bhs5Xf4IPlK1FYVBrsQ64CcDk44Q9piH+pSKRwAP+Df2Bg0NlsVgwa0AtDB/VFn55d0LNbBrIy0xDbMQqRkR0QHxv42wSSrQNskamQLDYVElMw2escqK9vQF1dPXLzC3H0WC6OHMvFth17sHX7HrXe5W+L3QBGA+Da06QpFgBzSQMwFsAQAH0B9ASQDCAaQKTAXESkrQYA9QAqABwFcAj+iYe+AVAmMBdpiAUg9KUDuOHH/waCP3MiapkM/1s6bwF4F/61CChE8WIQunrCP4/4rQB4P5qI2ssHYDmAOQAOCM5CQcACEHqSATwD4GYAGs+TS0QhyAdgEYCHAFQKzkIqYgEILdcCeAVAouggRBRyKgDcDUDVOY9JHE4FHBoi4L/wPw0O5iOi4IgCcDWATgDWgK8sGh7vABhfPIAV8L9GRESkhW8BXAGgVnQQUo4FwNiS4W/i54gOQkSmsxvAJfA/GiADYgEwrigAXwMYIToIEZnWNgDjADhEB6H24yhxY7IAWAZe/IlIrKEA3gE/TBoSBwEa08MA7hAdgogIQDb8MwtuEh2E2oetzXiGAtgMTu5DRPrhATAcwA7RQajtWACMxQIgB8Aw0UGIiH5hO/wlIGjrJZO6OAbAWG4HL/5EpE9D4J+BlAyCdwCMIwzAYQDdBOcgImrJcfjHBHCSIAPgc2TjuB4qXfxtFgkX947FxOx4DOkSjdQYGxKi9HUqWDqEw9IhXHQMopBUVe9GWZ0b207asXJvBdYcrIbHJ6ux6x4ArgOwVI2dUXDxDoBxbAQwKtCdXNYvHo9dnIFeyREqRAoeFgAi7Rwpc+JvX5zAFz+ostbPBgBj1NgRBRcLgDH0gv/2v+Kfl9Ui4ZFxGfjTBWnqpQoiFgAi7S3OKcZfPzoKtzeguwEy/H+zjquTioKF8wAYw20AJijdWAKwYGp33Dw0Wb1EQSbZrJBsPD2JtHRuZkd0T47E5z8ENLuvBCAP/jeWSMf4FoAxjA1k41mjO2HqgAS1shBRCLtqcCr+NDYz0N2MUyMLBRcfAeifBf4Vt2KUbNwlPhxbZvZHuM1YP2o+AiASp9Htw9Cnt6GwpknpLuwAEgD41EtFauMdAP3LgsKLPwDcNybdcBd/IhIrIsyCByZ0DWQXsQACvo1AwcUCoH/ZSjcMs0qY3C9ezSxEZBJXDExBmDWgDw991MpCwcECoH9dlG44NDMa8ZEcSEdE7RcXacOQrNhAdsE7ADrHAqB/HZVu2C2hg5o5iMhkuicFNF+I4r9dpA0WAP2LVrphSkyYmjmIyGTSYgMaiMsCoHMsAPqneI7e8MCe3xGRyYXbArpE6Gt+cfoVFgAiIiITYgEgIiIyIRYAIiIiE+IzGmqT/BoX3txajrVH7ciraYLTxQm+iPQiKtyKbkkRuLhvAm4blYGuifpe7ZP0gQWAWiXLwL83leKZb4rgCmyFMCIKEqfLi/3F9dhfXI/XNxTh4YlZuGccX8On1rEAUKueWF2AV3PKRMcgojZq8vjwxOcnUO5wY+6UHqLjkI5xDAC16IsDNbz4ExnUK+sKsHJvpegYpGMsANQsWQbmfV0oOgYRBeDJz09A5pM7agELADVrV5ETxyoVLwVKRDpwpMyJPYUO0TFIp1gAqFl7ip2iIxCRCnbl14mOQDrFAkDNqnR6REcgIhWUO9yiI5BOsQBQs7w+PjgkCgX8XaaWsAAQERGZEAsAERGRCbEAEBERmRALABERkQmxABAREZkQCwAREZEJcTEgUt1jM7rg8Zu6BLQPOW2YSmmIjG/egu8wb8F3omNQiOEdACIiIhNiASAiIjIhFgAiIiITYgEgIiIyIRYAIiIiE2IBICIiMiG+Bki6UF7jxlurK7BySzUOFzSgyr4NifER6J0Vj8kXdcf0K/ohKSFSdEyiNquobsDSTw9g5boTOJJbg6qaRp7TpCssACSULAMvLivGU0sLYHd6T/u3kvJ6lJTXY8P2Qjy1cCseuWMYZt00GJIkKCxRG8gy8OLinXh64VbYHa7T/o3nNOkJCwAJ4/HKuPmpo1i2rvKMX2t3uPDQ8xuxc18ZFs2fAJuVT69IfzxeH255cDWWrTp8xq/lOU2isQCQMPe9crJNF/9TffDlYSQnRuKFhy8MUip1OJxubN5ZhJzvi3DoRDXyiurgcLrR5PKeeWNqVodwK2KiwpDVORbZ3RMwYlA6Rg7OQHRkmOhoP7t//vo2XfxPZZRzmkIPCwAJsX63HQs/LVW07YK3d2PKuJ646PzAphsOhjU5efjvh/vw+brjaGzixT4Ytu/9//MmooMVl4/tiVuv6o+xwzMFpgI2bC/Ewnf3KNpWz+c0hS7ecyIh5izKD2j7uQu2qJREHeu3FWDUNe9h8u2f4MP/HeHFXyONTV4sW3UYk37/MUZf9z42bi8UlmX2vzYHtL3ezmkKfSwApLmiChdy9tUFtI/NO4tQWOpQKZFydfUu3PbIV7j01o+wY1+Z6Dimtu2HUoy/ZTn+8PjXcDjdmh67qMyBLbuKA9qHXs5pMg8WANLchj12yHJg+5BlYPP3ReoEUujQiWqMvOY9vL3iQMD/P6QOWQaWfLwfo655D0dO1mh23A3bi0LinCZzYQEgzRVVqPPprLBE3KelHfvKMG7Gh5peZKjtDp2oxtjpy7BzvzZ3ZYrK1DkXRZ7TZD4sAKQ5td55tljEvDx94FgVLv/jJ6isbhByfGqbiuoG/OYPn+Dg8aqgH0utM1HUOU3mxAJAmktPUue1rfTUaFX20x41dU248q4VqKpp1PzY1H5VNY2YevdnqP3FhDxqS0+NUWk/2p/TZF4sAKS50efEBnwXQJKAkYMy1AnUDnfNWYOThXbNj0vKHc+vxZ+eXBvUY4wekmHYc5rMiwWANJeRHI4R/TsGtI+RgzPQOU2dT11t9b8Nufho9VFNj0nq+ODLw/hy/cmg7T8jNQbDz00PaB8izmkyNxYAEuLJWwObtGX23cNVStI2Xp+M+5/5VtNjkroefn4jfL7gva7xt1kjA9pe63OaiAWAhBgzMBZ3/raTom1n3nguLhym7YxpH60+whH/BnfweBU+/ip4d3BGD+mMO68fqGhbEec0EQsACfP8XVmYNjapXdtMm9QH8x+4IEiJWvaf9/dqfkxS35sfBvfn+NyDozFtUp92bSPqnCZiASBhbFYJSx7tjWfvzEJctLXVr42LCcdzD47B4mcnar5qWkFJHTbuEDfFLKln3XcFKC6rD9r+bVYLFj87Ec88MBpxMeGtfq3Ic5oI4GJAJJgkAbOuSscN41Pw9lfl+CKnGofzG1Fp9yIpIQLZ3RNw2YXdceOUfkiMjxCScU1OflCfHZN2fD4Za7fk4YYp/YJ2DEkCZt00CDdO6Yu3VhzEym9P4PDJalRWN+rmnCYCWABIJ5LjbJh1VTpmXeUfSS2nDROc6P9t2hnY9Kwdo6y4/bedMXZIAuKi+SunVI3Dg7Xbq/HGp4VwOJUvtrRhe1FQC8BPkhIiMeumQZh106CgH4tICf41IjqDQGaSi4+xYdn8AeidGaViInPqCuCcXjGYNCIJ0x75AbUOj6L9aDEzIJER8MET0RmcLFA+8c99N3TlxV9l2VlRuPf6roq350RORH4sAERnUBfANLKTRiarmIR+Mmlk+94eOZW9rknFJETGxQJAdAYNTcpuNQNAUpw66x7Q6VLiWx9h3xpno/KfJ1EoYQEgCiK1Vj6k0/H7ShQ4FgAiIiITYgEgIiIyIb4GSKQjPhnYdagOW/bWorTKBbcndCcgCrNJSEsMx/Cz43BudkdYeFufSFMsAEQ6sXlPLZ584zgO5TpFR9Fc36wozLm9B0YMiBMdhcg0+AiASAeWrizG9Dn7THnxB4CDuU7cOHsf3vqyRHQUItNgASASbO32asx5/Ti8Jl9vwOuTMfu1Y1i3o1p0FCJTYAEgEsjtkfHEf47D5Nf+n/lk4PHXjsPl9omOQhTyWACIBFqzrQp5JY2iY+hKfmkjvt1ZIzoGUchjASASaNOeWtERdGnDLhYAomBjASASqLic89I3p4jfF6KgYwEgEqjBpXxd+1DG7wtR8LEAEBERmRALABERkQmxABAREZkQCwAREZEJsQAQERGZEAsAERGRCXE1QCKDumfGIGR3TxAdo0UHj1fh5aW7RMcgohawABAZ1KQx3TB2eKboGC1am5PPAkCkY3wEQEREZEIsAERERCbEAkBERGRCLABEREQmxEGAREHU7YpNoiMQETWLdwCIiIhMiAWAdEoWHYCIKKSxAJA+ySwARETBxAJAOqWfAmCxSKIjNMtq1WcuIjIGFgDSJ9knOsHPkhMiRUdoVmpSlOgIRGRgLACkTzoqAJmdYkRH+BWLRUJGqv5yEZFxsACQPumoAIwb0VV0hF8ZMiANsTHhomMQkYGxAJAuST6P6Ag/u3JCL9ERfuXK8frLRETGwgJAuiTL+ikAg89KxWUXdhcd42cpiZH4/dVni45BRAbHAkC6JPncoiOcZv4DF6BjtD5uuT/34BjdZGlJWaUTSz89IDoGEbWCBYB0SdbRIwAA6NMtAf+dP0H4K4F/vnkwrp2cLTRDa2odLjz5cg76TVyMdz8/KDoOEbWCBYB0SW93AADgN2N74ONXpiBOwOA7SQLuv+08PHXvKM2P3RYutxdvLtuLAZOX4OnXtqG+QX8/PyI6HRcDIn3yuUQnaNalo7Ow6f1r8egLm/DpmmOaHHNg3xTMv/8CjB2eqcnx2sPrk7H0k/2Yt2ArCkrqRMchonZgASB98jSJTtCiXlnxeP9fk/HD4Qp88tVRfPNdAfKL61Ba4YTL7Q1o3xaLhNSkKKSnRGPYOZ0w5eIeGHt+pvBHD78ky8AnXx/FEy/l4NCJatFxiEgBFgDSJ69+C8BPBvRJxoA+yXj8btFJtJXzfTEee3ETNu0oCtoxUhP0PciRKBSwAJA+yV7/f5JVdBL60c79ZXj8n5uxJicv6MfKStfn9MtEoYQFgPTL2wjYokWnML3cQjuefWM7/rt8H3w+bRZpmjgiSZPjEJkZCwDpluR2QmYBEKaozIG/v7oViz/aD49Xu6mZx56XgL5ZXOiIKNhYAEi/PA2iE5hStb0J/3hzO155azcamrSdjyE1IRzzZ3KaYyItsACQfnmcohOYirPRg38v3YUXFu1ATZ32gzB7donEgr/2RVoiBwASaYEFgHRL5h0ATbg9Pvx3+T48tXArSsrrNT9+eJgFMy7rhHuv74qoiLYN+pS1GYpAFNJYAEi3JJ8bstcNWMNERwlJPp+MD/93BE++vAXH8mo0P77VIuHKsSm497quyEjp0K5ty6qVTxSl93UUiLTCAkD65q4DrImiU4Sc1RtzMftfm7HrQLmQ408YnoQHbuyK3pnKBvut3lKp+NgJce0rG0ShigWAdE1yOyBHsACoZevuEjz24mas31Yg5Pjnnx2Hh2ZkYVB2R8X7OFHUgBfeUT4XQVoy3ywhAlgASO/cnF9eDQeOVWHOSzlYodH6Bb/Uv0c0/jo9CxcOTlC8D49Xxgdfl2L+4lzY65W/nTCoX4ribYlCCQsA6ZvbCcg+QOLClUrkFdVh7oIteGfFQXg1msTnVN3SI3Dv9V3xm9EpULqcgSwDKzdX4Pm38nCiKPCBoUPOTgt4H0ShgAWAdE4G3A4gPFZ0EENxNnrw9MKteGnJ92hyBbZAkRKpCeG455pMXDshDTar8oWMNuyqwbNLcvHDMYcquSwWCeNHZamyLyKjYwEg3ZNctZBZANpsbU4+7npiDU4W2jU/dmy0DXdM7YxbLs9AZAfld212H3Hg2aUnsWl3rYrpgAuHdUF6KscAEAEsAGQETbVATKboFIbw0pLv8fDzGzW/3R8RbsFNk9Nx51VdEB+j/M/KsYIGPP92LlblVAblXf+brjxL/Z0SGRQLAOmfx+lfHtjK17dac//89fj3W7s0PabNKuHqi1Mx69qu6JSk/P364oomvPhePpavLYPHG5zy0rdHIq6e1Cco+yYyIhYAMgTJZYccydHbLZm34DtNL/6SBFw2Mhn33dAVPTorX7q3us6DBR8WYMnKYjS5grvg0OyZw2FVOhKRKASxAJAxuGoAFoBmffDlYcxb8J1mxxt9bjwemJ6Fc3rFKN6Hs9GLRZ8V47WPClDnDP4gxd9d2htTJ3CRIaJTsQCQMTTVALIXkNo2V7xZFJU5MGvuN5oca2DvGPx1ehZGDYxXvA+3R8a7q0vw8gcFKA9gOt/26JwWg5cfH6vJsYiMhAWAjEGWITVVQ45IFp1EV2bNW4dqe3BX7uvZJRL335CFiSOSICm8g+6TgRXry/HCO3nIK2lUN2ArEmI7YMXCK5AYH6HZMYmMggWAjKOxCmAB+Nm2H0rx2drjQdt/elI4Zl3XFVeNSw3oXf6126vx3Fu5OHBC25UG42LC8fGCKejfO0nT4xIZBQsAGYfLzscAp/j7q8F57p/Q0YY7f9cFMyanIyJc+bv82w/Y8eySXGzdr/18BD0y4/DRK5ejbw+uI0HUEhYAMg7ZB6mxEnJkqugkwhWX1eOrjbmq7jMqwopbL0/HH6d2Qcco5SXrUK4Tzy3NxdfbqlRM13bXTs7GCw9fyNv+RGfAAkDG0lAOsABg2arDqk32Y7NKuO7STrhnWhekJCh/l7+grAkvvJOHT9aVQcCyA+jdLR7/fOQiXDKyq/YHJzIgFgAyFne9f2Igm7J15EPFV5uUL4f7k5/e5X9geha6pSv/tFxd58HrHxdi0WdFQX+XvzkZqTF49M5huGnqWbBZuWgUUVuxAJDhSA3lkDuad0EXWQZ27CsNaB9D+sVi7h97oF935fPiO5xe/OeTQrzxaRHqG7VfcCgxLgL33XYe7rphICI78E8ZUXvxt4aMp6HCvzaASZcILiipQ1WN8lfpJgxPwqsPZiueFc/l9mHplyV4ZVkBquxuxTmUioqwYeb0c3HvrechviOnhyZSigWAjEf2QmqsMO1gwNJKp+Jtw8Ms+PsdPRRd/H0y8OXmCjyzJFfTd/l/EmazYMaVZ+GxO8/nin5EKmABIGNylgARKVA8M42B1dYpn/hnQM9oRQP9Vm+pxHNv5eFIvvLyoZQkAVdP7IM5fxqOnl2Vz0JIRKdjASBj8jT6pweOSBCdRHP1TuW33ZPi23fx33vMgcdfO47vD9UpPmYgJlyQhb/NGolz+3EdCCK1sQCQcTWUmLIABPKGXXvulyxaUYSnF5+E26P9O33DBnbCvD+PxJihXTQ/NpFZsACQYUmuOsDtgBymfFU6at4n35bjb2+e0Py42d0TMHvmcEyd0NuMT3eINMUCQMZWXwDE9xWdIqSUVrnw0L+PanrMzPSOmH33cFw/pa/itxOIqH1YAMjYmuz+NQLCY0UnCRlLVxajUaMJfRLjI3DvLedh5o3nIqID13gg0hILABmfowBIPEt0ipCx+rvgz+EfExWGWTcNwqybBiM2Rvn0w0SkHAsAGZ7kdkB21QLhcaKjGJ4sA/mlwXvH/6d3+WffPRxpyeaezplINBYACglSXT7kpFi0b5w7/VJ9gxcNTerf/rdYJFw7ORtzZg5HVmc+riHSAxYACg0eJyRnBeQovi+uN+NGZOLp+y7AwL782RDpCQsAhQzZkQ9EJgISB5O1ZPsBO26cva/Ff/d41Xvnf9R5GZj351EYMShdtX0SkXpYAChkSLIHqC+EHMP14FtSWevGxt01QT1Gv56JeOyu8/G7S3sH9ThEFBgWAAot9aX+NQJskaKTmE6YzYLX543HNZf1gYXv8hPpnjnXU6UzCmQyFptV5B9/GZL9uMDjm1dkhA3X/SabF38ig2ABoGYlRyu/OZSWGKZiEgXc9YCzVGyGILLodI5cveYiouaxAFCzBqYrf0f7vD7i12qXHPmAV/s167WQnKDPxxvJifrMRUTNYwGgZp2THotgC30AAA+MSURBVIXeyRHt3q5v10gM7CW+AED2Qao76Z/ZJsRkpOrg+9uMjFQuykRkJCwA1CxJAh67JKPd2z31Bx2NwG+yh+SjgKzOseimw8l0xgztLDoCEbUDCwC1aFLfeNw1Mq3NX3/fNRmYPCIhiInaT6rPBzxO0TFUd/m4HqIj/MqUi3uKjkBE7cACQK16YkJnzBnfGeG2lgd4RYRbMP+PWfr69P8TWYZUewyANqvbaeUvtwxGVIR+3uK97MLuOCc7WXQMImoHFgA6o7tHpWHLzP6YOSoNZ6VFIjrcgphIKwb0iML912Zg7+KB+Ms0Hc/25mkA6nJFp1BVRmoM7pkxSHQMAEBEByvm/WWk6BhE1E76+QhButYlPhyzx3fG7PH+57xxo421hKvkLAfCOkKOCJ1PqY/PHI5dB8uxav1JoTleemwszuqVJDQDEbUf7wCQedhPAJ560SlUY7VIWPLsREwc003I8cNsFrw8eyxmXHmWkOMTUWBYAMg8ZBlSzRFIPrfoJKqJjQnH8n9fjjl/GoHoSO0mYDqrVxJWvTkVt08boNkxiUhdfARA5uJ1AbXHgIRsAKExc53VIuHhPw7Frb/rj9fe24MVa45h75FK1Y8T0cGKsednYtplfTDtsuyAposmIvFYAMh8XHZItccgx/USnURVaclRmD1zOGbPHA67w4WiMgfKKp3weAKbDCkq0obOaTFIS45CeBiXWiYKFSwAZE6NVYC1CIhp/2RHRhAbE47YmET07ZEoOgoR6RTHAJBpSfUFkBorRMcgIhKCBYDMrfYE0FQjOgURkeZYAMjkZEi1R4GmWtFBiIg0xTEARLIPUu0RID4bcnhH0WlUUVndgO/2lKCkvB5VtU2K92OzSkhNikL3LnEYek4abFZ+ZiAKFSwARAAg+4Caw0BCXyBMn8vtnoksA++vPIQ3lu1Fzs4ieH3qLoWcENsBl13UAw/8/jwOLiQKAazzRD+RvZCqDwAuu+gk7bbrQDlGXfMebn7wf9i4vVD1iz8AVNub8PaKAxhy5Tu4Z+43aGjyqH4MItIOCwDRqWQfpJrDgMs4YwI+Wn0UF8/4EDv3l2lyPI/Xh9ff/wEXT/8QhaUOTY5JROpjASD6pZ9KQFO16CRntHpjLqbf/yXqG7Sf3njn/jJMvO0jVNuVjzEgInFYAIia8+O6AXCWik7SooPHq3DDfV8G5XZ/Wx05WYPp938JWVwEIlKIgwCpTfJrXHhzaznWHrUjr6YJkgXonh6BCcPicceUNGR16iA6YlBIdbmApxFyx66ApK+57+97ej3q6l2iY+DrzXlYtuowpk3qIzoKEbUD7wBQq2QZeHljKUa8vA8LNpfiYFkDnC4f6ht92HvCiRfeL8KAm3fjH+8XiY4aPA2l/rkC4BOd5GfrvivAmpw80TF+NudfOfB49fP9IaIzYwGgVj2xugBzvy6Ey9vyPd4mtw+PvJ6HBxfmaphMY03VQNVBwCf+EzcALPlkv+gIpzlRUIvNO0O4BBKFIBYAatEXB2rwak7bR5a/uKwYn23S/8A5pSS3A6jcBzSJfU3Q4/Vh1YaTQjM057O1x0VHIKJ2YAGgZskyMO/rwnZv9+gbeSE9IEzyuSHVHATqi4VlyCuqQ1VNo7Djt+T7A+WiIxBRO7AAULN2FTlxrLL9r3cdymvArqP1QUikL5Ij3/+WgE/7yXBKyvX5/S0u02cuImoeCwA1a0+xU/G2Ow6Z5ELQVA2p8gfNFxKq1OGnfwCoqFJ+zhCR9lgAqFmVTuWfbMtrtJ+URhifG1LNIUj2XGj17MOn02cs+kxFRC1hAaBmBTK5jKeVNwZCVkMppKp9gNskdz+IyPA4ERCRWjxOSNX7IUekAB27ApL++nX3jEhMHJHU4r83uX1YtIKv8xGZAQsAkZpkGVJDGeCqhRzbDQiPE53oNH26RuHBGVkt/rvD6WUBIDIJ/X1EIQoF3iZI1Yf8rwx6GkSnISL6Fd4BIF0or3HjrdUVWLmlGocLGlBV60FinA19ukRi8ogE3DghBclxBjxdm+yQmvYCkamQO3YBJKvoRKSRiuoGLP30AFauO4EjuTWoqmlEYnwEemfFY/JF3TH9in5ISogUHZNMzIB/USmUyLJ/BsGnlhbA7vSe9m8llW6UVLqxfrcdf19SgEdndMGsq9L1tiZPG8j+QYJNlZBjOgMRqbpbWIjUI8vAi4t34umFW2F3nD51dEl5PUrK67FheyGeWrgVj9wxDLNuGszTgYRgASBhPF4ZNz91FMvWVZ7xa+1OLx5cmIsdhxz478O9YLMa8C+mz+N/XdBRDDm6ExCZxiIQYjxeH255cDWWrTp8xq+1O1x46PmN2LmvDIvmT4DNyieypC2ecSTMfa+cbNPF/1QffFOJB141+KJDPhekujxIlXv8AwZ1+l4/td/989e36eJ/qg++PIy/PrshSImIWsYCQEKs323Hwk9LFW274OMSrPte7II8qvA2AfaTQPn3kOoLIflMNIFSCNqwvRAL392jaNsFb+/Guu8KVE5E1DoWABJizqL8gLafuziw7fVEkj2AoxCo2A3YcwEPp9Q1otn/2hzQ9nMXbFEpCVHbcAwAaa6owoWcfXUB7WPT3joUlrvQOSVcpVQ6IPsgNZQCDaWALRqISoEckazqhEInihrw6vKWP2m6PHwcoURRmQNbdgW2QuTmnUUoLHWgc1qMSqmIWscCQJrbsMce8GNvWQY276vD1Re1PKudoXnqAXs9JEc+5IhEoEMSENYx4EGDh/OceGaJwcdQ6NCG7UXqnNPfF+HqiX3UCUV0BiwApLmiCnWedReWu878RUbn80JylgPOcsiWMP/Mgm5OLKQ3RWUOVfZTWKLOfojaggWANKfWm28Wk71BJ/ncQGMFrM5q0VGaZbIfx2nU+n+3mO2kJqE4CJA0l54Ups5+kkPo+X87JOl0RsSUpCjREYRJT1XnuX16arQq+yFqCxYA0tzoc2IDvgsgScDI/h3VCWQw6Un6LD7pKea9eI0ekqHOOT0oQ51ARG3AAkCay0gOx4gAL96jzu4YWm8AtEPXtHBdrosw6KxU0RGEyUiNwfBz0wPax8jBGXwDgDSlv78iZApP3pqJ8ffuV7z97JszVUxjLFaLhEnnJ2Dp6nLRUU4z5YIUoLFKdAxh/nbn2Rj/B+WvAs6+vX/L3z+uKElBwAJAQowZGIs7f9sJr35S0u5tZ07thAvPjQ1CKuOYMTFFVwWgZ+cIjOhWC6k2BGZoVGhMTwR0Tl/Uuw6obWF+DBMXKwoePgIgYZ6/KwvTxrbvPf5pY5PwzB1ZQUpkHGMGxmLC0HjRMX4297ZMYy7QpDKe02QkLAAkjM0qYcmjvfHsnVmIi7a2+rVx0VY8f1cWljzamxeaH/3j7izERrX+fdPCpcPiMXVMiE7I1E48p8lI+AiAhJIkYNZV6bhhfAre/qocX+RU43B+Iypr3UiKC0N21whMHp6AGyakICmWp+up+mRG4p3ZvXHFI4fg9YmZwrdPZiSWPNqLqxqfguc0GQXPPtKF5DgbZl2VjllXBTaS2mzGD43H8rnZmPH3I7A7vZoee2CvaCyf2wfxMfwz0hy9nNO+Jhc8dmUzDPqaTDDbponxEQCRwU0aHo81L/bHednavIdvs0q444o0fPtSf2SmdtDkmESkPlZ3ohBwTs8obHplAJatq8R/PivFph/qVH8skBRrw+QRCXjgugz0yYxUdd9EpD0WAKIQIUn+EeXTxiah0u7BtgMOFFW6UFThQkOTT9E+k2Jt6JQUjh4ZHTC0bwysnKueKGSwABCFoKRYGyaer5/XBIlIfzgGgIiIyIRYAIiIiEyIjwBIdfOWFGDekgLRMYiIqBW8A0BERGRCLABEREQmxAJARERkQiwAREREJsQCQEREZEIsAERERCbEAkDN4pSvRKGBv8vUEhYAalZyNKeIIAoFqVyumVrAAkDNGpgeJToCEang3Axtlokm42EBoGadkx6F3skRomMQUQD6pETg7E5cupmaxwJAzZIk4LFLMkTHIKIAPH5JZ9ERSMdYAKhFk/rG466RaaJjEJECM0el4dLsONExSMc4OoRa9cSEzkiJtuHpb4rg8sii4xDRGXSwWfDwuHSWdzojFgA6o7tHpeGK/glYtK0ca4/akVvdhHqXT3QsIvpRdLgFWQkdcHHvWNwyNAVd4sJFRyIDYAGgNukSH47Z4ztj9ng+UyQiCgUcA0BERGRCLABEREQmxAJARERkQiwA+udRuqHLy1H7RKRcgH9DFP/tIm2wAOhfvdINyxxuNXMQkckU212BbF6nVg4KDhYA/VP8S3SyqknNHERkMnk1LAChjAVA/wqUbri9oB41DV41sxCRSVQ3eLA9X/ENSADIVysLBQcLgP4dVLqh2yvj8wPVamYhIpP4bH8NPL6AxgAcUisLBQcLgP7lIYBbaS+sL0GTh7P2EVHbNbp9+Of6kkB2YQfvAOgeC4D++QBsULpxQY0Lz60L6BeZiEzmmXXFKKwN6Pn/egB8DUnnWACM4ZtANn55YwmW/1ClVhYiCmEf7qnCgk2lge5mrRpZKLisogNQmxQBmAVAUrqDVYdq0cFqwfldY9RLRUQhZcmOCtz3WR4Ce/QPGcBdAGpUCUVBwwJgDDUALgHQVekOZBlYf7wOe4qdOLtTFJKiuQ4UEfkdKm/Enz/Nxas5ZYFe/AH/I8t/Bp6Kgk3xJ0rS3AwAi9XYkc0iYWyvWEzMjsPQzGikxYQhIYqFgMgsqpwelNa5sa2gHqsO1mLdMXugI/5PNR3AW2rtjIKHBcA4wuB/raa76CBERC04DiAbnAbYEDgI0DjcAJ4WHYKIqBXzwIu/YfAOgLFYAGwGcL7oIEREv7ANwHD4X10mA2ABMJ4hAHIA8KE9EemFG/6L/07RQajt+BaA8RQBcMH/VgARkR48BGC56BDUPrwDYEwSgBUAfiM6CBGZ3qcArgRn/jMcFgDjigLwFYCRooMQkWltBTAOQEDLBpIYfAvAuJwArgCwW3QQIjKlXQAuAy/+hsUCYGwVAC6A/04AEZFW1gG4CECl2BgUCA4CND4XgGUAkgAMFZyFiELfK/DPTMpP/gbHMQChZRr8v5zJooMQUcgph3+Rnw9FByF18A5AaNkHYBGABACDwIJHRIHzAngdwFQAOwRnIRXxAhG6egB4EMAt8K8jQETUHm4A7wF4CsBBwVkoCFgAQl8nANcBuAHAYPBnTkQt88E/m9/bAN4FUCo2DgUTLwbmkgL/yN2hAPoC6AX/4MEY+OcVICJzcAJwwD+K/wj8K41uhX90f4W4WKSl/wNdXy4df9+3HAAAAABJRU5ErkJggg==;" parent="1" vertex="1">
          <mxGeometry x="92.38" y="881.4499999999999" width="55.25" height="55.25" as="geometry" />
        </mxCell>
        <mxCell id="3rUZ3CN064QcZNEnWqN9-2" value="" style="rounded=1;whiteSpace=wrap;html=1;fillColor=none;dashed=1;strokeWidth=3;strokeColor=#4A919B;" parent="1" vertex="1">
          <mxGeometry x="177" y="922.26" width="117" height="109.87" as="geometry" />
        </mxCell>
        <mxCell id="3rUZ3CN064QcZNEnWqN9-4" value="" style="shape=image;verticalLabelPosition=bottom;verticalAlign=top;imageAspect=0;aspect=fixed;image=data:image/svg+xml,PHN2ZyB4bWxuczp4bGluaz0iaHR0cDovL3d3dy53My5vcmcvMTk5OS94bGluayIgeG1sbnM9Imh0dHA6Ly93d3cudzMub3JnLzIwMDAvc3ZnIiBoZWlnaHQ9IjIwMCIgd2lkdGg9IjIwMCIgdmVyc2lvbj0iMS4xIiB2aWV3Qm94PSIwIDAgMTAyNCAxMDI0IiBjbGFzcz0iaWNvbiI+PHBhdGggZmlsbD0iIzRBOTE5QiIgZD0iTTg4Ni43IDI0Ny42TDcxMy40IDczLjRjLTYtNi0xNC4yLTkuNC0yMi43LTkuNEgxOTJjLTM1LjMgMC02NCAyOC43LTY0IDY0djc2OGMwIDM1LjMgMjguNyA2NCA2NCA2NGg2NDBjMzUuMyAwIDY0LTI4LjcgNjQtNjRWMjcwLjJjMC04LjUtMy4zLTE2LjYtOS4zLTIyLjZ6TTgzMiA4NjRjMCAxNy43LTE0LjMgMzItMzIgMzJIMjI0Yy0xNy43IDAtMzItMTQuMy0zMi0zMlYxNjBjMC0xNy43IDE0LjMtMzIgMzItMzJoMzg0djE2MGMwIDM1LjMgMjguNyA2NCA2NCA2NGgxNjB2NTEyek03MDQgMjg4Yy0xNy43IDAtMzItMTQuMy0zMi0zMlYxMjhsMTYwIDE2MEg3MDR6Ii8+PHBhdGggZmlsbD0iIzRBOTE5QiIgZD0iTTY3MSA2NzJIMjg3Yy0xNy43IDAtMzIgMTQuMy0zMiAzMnMxNC4zIDMyIDMyIDMyaDM4NGMxNy43IDAgMzItMTQuMyAzMi0zMnMtMTQuMy0zMi0zMi0zMnpNMjg3IDQ4MGMtMTcuNyAwLTMyIDE0LjMtMzIgMzJzMTQuMyAzMiAzMiAzMmgzODRjMTcuNyAwIDMyLTE0LjMgMzItMzJzLTE0LjMtMzItMzItMzJIMjg3ek0yODcgMzUyaDE5MmMxNy43IDAgMzItMTQuMyAzMi0zMnMtMTQuMy0zMi0zMi0zMkgyODdjLTE3LjcgMC0zMiAxNC4zLTMyIDMyczE0LjMgMzIgMzIgMzJ6Ii8+PC9zdmc+" parent="1" vertex="1">
          <mxGeometry x="212.75" y="937.26" width="46" height="46" as="geometry" />
        </mxCell>
        <mxCell id="3rUZ3CN064QcZNEnWqN9-5" value="&lt;font style=&quot;font-size: 14px;&quot; color=&quot;#4a909b&quot;&gt;socket文件&lt;/font&gt;" style="text;html=1;strokeColor=none;fillColor=none;align=center;verticalAlign=middle;whiteSpace=wrap;rounded=0;" parent="1" vertex="1">
          <mxGeometry x="192.75" y="981.26" width="86" height="30" as="geometry" />
        </mxCell>
        <mxCell id="3rUZ3CN064QcZNEnWqN9-6" value="" style="shape=image;verticalLabelPosition=bottom;labelBackgroundColor=default;verticalAlign=top;aspect=fixed;imageAspect=0;image=data:image/svg+xml,PHN2ZyB4bWxuczp4bGluaz0iaHR0cDovL3d3dy53My5vcmcvMTk5OS94bGluayIgeG1sbnM9Imh0dHA6Ly93d3cudzMub3JnLzIwMDAvc3ZnIiBoZWlnaHQ9IjEyOCIgd2lkdGg9IjEyOC4xMjUiIHZlcnNpb249IjEuMSIgdmlld0JveD0iMCAwIDEwMjUgMTAyNCIgY2xhc3M9Imljb24iPjxwYXRoIGZpbGw9IiM0QTkxOUIiIGQ9Ik0yMDguMSAzMDQuOGMzNy4zIDAgNjkuNCA4IDk2LjYgMjEuNnYtMjkuNWMwLTE1LjYtMTIuNy0yOC4zLTI4LjMtMjguM0gxMzAuM2MtMTUuNiAwLTI4LjMgMTIuNy0yOC4zIDI4LjN2MzQuNGMyOS4xLTE2LjYgNjQuNC0yNi41IDEwNi4xLTI2LjV6TTgyMC45IDMwNC44Yy0zNy4zIDAtNjkuNCA4LTk2LjYgMjEuNnYtMjkuNWMwLTE1LjYgMTIuNy0yOC4zIDI4LjMtMjguM2gxNDYuMmMxNS42IDAgMjguMyAxMi43IDI4LjMgMjguM3YzNC40Yy0yOS4yLTE2LjYtNjQuNS0yNi41LTEwNi4yLTI2LjV6Ii8+PHBhdGggZmlsbD0iIzRBOTE5QiIgZD0iTTg0NC41IDQ1NC40YzE0LjgtMTQuOCAxNC44LTM4LjggMC01My41LTE0LjgtMTQuOC0zOC44LTE0LjgtNTMuNSAwLTE0LjggMTQuOC0xNC44IDM4LjggMCA1My41IDE0LjcgMTQuOCAzOC43IDE0LjggNTMuNSAweiIvPjxwYXRoIGZpbGw9IiM0QTkxOUIiIGQ9Ik05NDMuNSA0OTkuOWMtMTQuOC0xNC44LTM4LjctMTQuOC01My41IDAtMTQuOCAxNC44LTE0LjggMzguOCAwIDUzLjUgMTQuOCAxNC44IDM4LjggMTQuOCA1My41IDAgMTQuOC0xNC43IDE0LjgtMzguNyAwLTUzLjV6TTY5Ni42IDQ5NS4yYy0xNC44IDE0LjgtMTQuOCAzOC44IDAgNTMuNSAxNC44IDE0LjggMzguOCAxNC44IDUzLjUgMCAxNC44LTE0LjggMTQuOC0zOC44IDAtNTMuNS0xNC44LTE0LjctMzguOC0xNC43LTUzLjUgMHoiLz48cGF0aCBmaWxsPSIjNEE5MTlCIiBkPSJNNzk1LjYgNTk0LjNjLTE0LjggMTQuOC0xNC44IDM4LjggMCA1My41IDE0LjggMTQuOCAzOC44IDE0LjggNTMuNiAwIDE0LjgtMTQuOCAxNC44LTM4LjggMC01My41LTE0LjktMTQuOC0zOC44LTE0LjgtNTMuNiAweiIvPjxwYXRoIGZpbGw9IiM0QTkxOUIiIGQ9Ik0xNzQuMSAzNzkuNmMtMy45IDAtNy4xIDMuMi03LjEgNy4xdjQxLjljMCAzLjkgMi41IDkuMSA1LjUgMTEuNWwyOC41IDIyLjhjMyAyLjQgOCAyLjQgMTEgMGwyOC42LTIyLjhjMy0yLjQgNS41LTcuNiA1LjUtMTEuNXYtNDEuOWMwLTMuOS0zLjItNy4xLTcuMS03LjFoLTY0Ljl6TTYyIDU1Ni42YzAgMy45IDMuMiA3LjEgNy4xIDcuMUgxMTFjMy45IDAgOS4xLTIuNSAxMS41LTUuNWwyMi44LTI4LjVjMi41LTMgMi41LTggMC0xMWwtMjIuOC0yOC42Yy0yLjQtMy03LjYtNS41LTExLjUtNS41SDY5Yy0zLjkgMC03LjEgMy4yLTcuMSA3LjF2NjQuOXpNMjM5LjEgNjY4LjhjMy45IDAgNy4xLTMuMiA3LjEtNy4xdi00MS45YzAtMy45LTIuNS05LjEtNS41LTExLjVsLTI4LjUtMjIuOGMtMy0yLjQtOC0yLjQtMTEgMGwtMjguNSAyMi44Yy0zIDIuNC01LjUgNy42LTUuNSAxMS41bC0wLjEgNDEuOWMwIDMuOSAzLjIgNy4xIDcuMSA3LjFoNjQuOXpNMzUxLjIgNDkxLjdjMC0zLjktMy4yLTcuMS03LjEtNy4xaC00MS45Yy0zLjkgMC05IDIuNS0xMS41IDUuNWwtMjIuOCAyOC41Yy0yLjQgMy0yLjQgOCAwIDExbDIyLjggMjguNWMyLjQgMyA3LjYgNS41IDExLjUgNS41bDQxLjkgMC4xYzMuOSAwIDcuMS0zLjIgNy4xLTcuMXYtNjQuOXoiLz48cGF0aCBmaWxsPSIjNEE5MTlCIiBkPSJNNzc2LjEgMTYuM2MtOTIgMC0xNjIuOCAyNi41LTIxMC41IDc4LjctNjMuNCA2OS40LTY1LjUgMTYxLjctNjQuNSAxODkuMmgyOC4zYy0wLjctMjEuNyAwLjItMTA4IDU3LjMtMTcwLjMgNDIuMS00NiAxMDUuOS02OS4zIDE4OS40LTY5LjMgNy44IDAgMTQuMS02LjMgMTQuMS0xNC4xcy02LjMtMTQuMi0xNC4xLTE0LjJ6Ii8+PHBhdGggZmlsbD0iIzRBOTE5QiIgZD0iTTgxNC4xIDMxNC4zYy00NC45IDAtODYuNCAxNC4xLTEyMC42IDM3LjloLTIxLjljLTUuMi0xOC4xLTIxLjctMzEuNC00MS41LTMxLjRINTg3di0xLjZjMC0xNS42LTEyLjctMjguMy0yOC4zLTI4LjNoLTg3LjJjLTE1LjYgMC0yOC4zIDEyLjctMjguMyAyOC4zdjEuNmgtNDYuOWMtMTkuOCAwLTM2LjIgMTMuMy00MS41IDMxLjRoLTIxLjljLTM0LjItMjMuOS03NS43LTM3LjktMTIwLjYtMzcuOS0xMTYuNiAwLTIxMS4xIDk0LjUtMjExLjEgMjExLjF2NDI0LjJjMCA0NyA0MCA3OS4yIDkzLjYgMTkuOSA1MC42LTU1LjkgMTkyLjktMTk1LjkgMjU3LjktMjY4LjIgMS0wLjkgMi0xLjkgMy4xLTIuOCAxNC44IDE1IDM1LjMgMjQuNCA1OCAyNC40IDM3LjcgMCA2OS4yLTI1LjggNzguNC02MC42aDQyYzkuMyAzNC44IDQwLjcgNjAuNiA3OC40IDYwLjYgMjIuNyAwIDQzLjItOS4zIDU4LTI0LjQgMSAxIDIuMSAxLjkgMy4xIDIuOCA2NSA3Mi4zIDIwNy4zIDIxMi4zIDI1Ny45IDI2OC4yIDUzLjYgNTkuMyA5My42IDI3LjEgOTMuNi0xOS45VjUyNS40YzAtMTE2LjYtOTQuNS0yMTEuMS0yMTEuMS0yMTEuMXpNMjA2LjYgNzA0Yy05OS4zIDAtMTc5LjgtODAuNS0xNzkuOC0xNzkuOHM4MC41LTE3OS44IDE3OS44LTE3OS44Yzk5LjMgMCAxNzkuOCA4MC41IDE3OS44IDE3OS44UzMwNS45IDcwNCAyMDYuNiA3MDR6IG0yNzAuMS04My4zYzAgMy43LTIuOCA1LjYtNi4zIDQuMmwtNDMuMS0xOGMtMy41LTEuNS0zLjUtMy44IDAtNS4zbDQzLjEtMThjMy40LTEuNCA2LjMgMC40IDYuMyA0LjJ2MzIuOXpNNTk5IDYwNi45bC00MyAxOGMtMy41IDEuNC02LjMtMC40LTYuMy00LjJ2LTMyLjhjMC0zLjcgMi44LTUuNiA2LjMtNC4ybDQzIDE4YzMuNSAxLjQgMy41IDMuNyAwIDUuMnpNODE5LjkgNzA0Yy05OS4zIDAtMTc5LjgtODAuNS0xNzkuOC0xNzkuOHM4MC41LTE3OS44IDE3OS44LTE3OS44Yzk5LjMgMCAxNzkuOCA4MC41IDE3OS44IDE3OS44UzkxOS4yIDcwNCA4MTkuOSA3MDR6Ii8+PC9zdmc+;" parent="1" vertex="1">
          <mxGeometry x="208.75" y="859.76" width="50" height="50" as="geometry" />
        </mxCell>
        <mxCell id="3rUZ3CN064QcZNEnWqN9-9" value="&lt;font style=&quot;font-size: 14px;&quot; color=&quot;#4a909b&quot;&gt;socket_fd&lt;/font&gt;" style="text;html=1;strokeColor=none;fillColor=none;align=center;verticalAlign=middle;whiteSpace=wrap;rounded=0;" parent="1" vertex="1">
          <mxGeometry x="190.75" y="836.26" width="86" height="30" as="geometry" />
        </mxCell>
        <mxCell id="3rUZ3CN064QcZNEnWqN9-21" value="&lt;font color=&quot;#808080&quot;&gt;内核空间&lt;/font&gt;" style="text;html=1;strokeColor=none;fillColor=none;align=center;verticalAlign=middle;whiteSpace=wrap;rounded=0;" parent="1" vertex="1">
          <mxGeometry x="203.75" y="1002.1299999999999" width="60" height="30" as="geometry" />
        </mxCell>
        <mxCell id="3rUZ3CN064QcZNEnWqN9-23" value="&lt;font color=&quot;#ffffff&quot;&gt;socket&lt;/font&gt;" style="rounded=1;whiteSpace=wrap;html=1;strokeColor=none;fillColor=#4A909B;" parent="1" vertex="1">
          <mxGeometry x="186" y="912.26" width="97" height="18.63" as="geometry" />
        </mxCell>
        <mxCell id="3rUZ3CN064QcZNEnWqN9-7" value="" style="endArrow=none;html=1;rounded=0;strokeColor=#FDD276;startArrow=classic;startFill=1;strokeWidth=2;dashed=1;" parent="1" edge="1">
          <mxGeometry width="50" height="50" relative="1" as="geometry">
            <mxPoint x="233.64999999999998" y="937.26" as="sourcePoint" />
            <mxPoint x="233.64999999999998" y="892.89" as="targetPoint" />
          </mxGeometry>
        </mxCell>
        <mxCell id="3rUZ3CN064QcZNEnWqN9-25" value="&lt;font color=&quot;#808080&quot;&gt;用户空间&lt;/font&gt;" style="text;html=1;strokeColor=none;fillColor=none;align=center;verticalAlign=middle;whiteSpace=wrap;rounded=0;" parent="1" vertex="1">
          <mxGeometry x="205.75" y="755" width="60" height="30" as="geometry" />
        </mxCell>
        <mxCell id="3rUZ3CN064QcZNEnWqN9-29" value="" style="shape=image;verticalLabelPosition=bottom;labelBackgroundColor=default;verticalAlign=top;aspect=fixed;imageAspect=0;image=data:image/svg+xml,PHN2ZyB4bWxuczp4bGluaz0iaHR0cDovL3d3dy53My5vcmcvMTk5OS94bGluayIgeG1sbnM9Imh0dHA6Ly93d3cudzMub3JnLzIwMDAvc3ZnIiBoZWlnaHQ9IjEyOCIgd2lkdGg9IjEyOC4xMjUiIHZlcnNpb249IjEuMSIgdmlld0JveD0iMCAwIDEwMjUgMTAyNCIgY2xhc3M9Imljb24iPjxwYXRoIGZpbGw9IiM0QTkxOUIiIGQ9Ik0yMDguMSAzMDQuOGMzNy4zIDAgNjkuNCA4IDk2LjYgMjEuNnYtMjkuNWMwLTE1LjYtMTIuNy0yOC4zLTI4LjMtMjguM0gxMzAuM2MtMTUuNiAwLTI4LjMgMTIuNy0yOC4zIDI4LjN2MzQuNGMyOS4xLTE2LjYgNjQuNC0yNi41IDEwNi4xLTI2LjV6TTgyMC45IDMwNC44Yy0zNy4zIDAtNjkuNCA4LTk2LjYgMjEuNnYtMjkuNWMwLTE1LjYgMTIuNy0yOC4zIDI4LjMtMjguM2gxNDYuMmMxNS42IDAgMjguMyAxMi43IDI4LjMgMjguM3YzNC40Yy0yOS4yLTE2LjYtNjQuNS0yNi41LTEwNi4yLTI2LjV6Ii8+PHBhdGggZmlsbD0iIzRBOTE5QiIgZD0iTTg0NC41IDQ1NC40YzE0LjgtMTQuOCAxNC44LTM4LjggMC01My41LTE0LjgtMTQuOC0zOC44LTE0LjgtNTMuNSAwLTE0LjggMTQuOC0xNC44IDM4LjggMCA1My41IDE0LjcgMTQuOCAzOC43IDE0LjggNTMuNSAweiIvPjxwYXRoIGZpbGw9IiM0QTkxOUIiIGQ9Ik05NDMuNSA0OTkuOWMtMTQuOC0xNC44LTM4LjctMTQuOC01My41IDAtMTQuOCAxNC44LTE0LjggMzguOCAwIDUzLjUgMTQuOCAxNC44IDM4LjggMTQuOCA1My41IDAgMTQuOC0xNC43IDE0LjgtMzguNyAwLTUzLjV6TTY5Ni42IDQ5NS4yYy0xNC44IDE0LjgtMTQuOCAzOC44IDAgNTMuNSAxNC44IDE0LjggMzguOCAxNC44IDUzLjUgMCAxNC44LTE0LjggMTQuOC0zOC44IDAtNTMuNS0xNC44LTE0LjctMzguOC0xNC43LTUzLjUgMHoiLz48cGF0aCBmaWxsPSIjNEE5MTlCIiBkPSJNNzk1LjYgNTk0LjNjLTE0LjggMTQuOC0xNC44IDM4LjggMCA1My41IDE0LjggMTQuOCAzOC44IDE0LjggNTMuNiAwIDE0LjgtMTQuOCAxNC44LTM4LjggMC01My41LTE0LjktMTQuOC0zOC44LTE0LjgtNTMuNiAweiIvPjxwYXRoIGZpbGw9IiM0QTkxOUIiIGQ9Ik0xNzQuMSAzNzkuNmMtMy45IDAtNy4xIDMuMi03LjEgNy4xdjQxLjljMCAzLjkgMi41IDkuMSA1LjUgMTEuNWwyOC41IDIyLjhjMyAyLjQgOCAyLjQgMTEgMGwyOC42LTIyLjhjMy0yLjQgNS41LTcuNiA1LjUtMTEuNXYtNDEuOWMwLTMuOS0zLjItNy4xLTcuMS03LjFoLTY0Ljl6TTYyIDU1Ni42YzAgMy45IDMuMiA3LjEgNy4xIDcuMUgxMTFjMy45IDAgOS4xLTIuNSAxMS41LTUuNWwyMi44LTI4LjVjMi41LTMgMi41LTggMC0xMWwtMjIuOC0yOC42Yy0yLjQtMy03LjYtNS41LTExLjUtNS41SDY5Yy0zLjkgMC03LjEgMy4yLTcuMSA3LjF2NjQuOXpNMjM5LjEgNjY4LjhjMy45IDAgNy4xLTMuMiA3LjEtNy4xdi00MS45YzAtMy45LTIuNS05LjEtNS41LTExLjVsLTI4LjUtMjIuOGMtMy0yLjQtOC0yLjQtMTEgMGwtMjguNSAyMi44Yy0zIDIuNC01LjUgNy42LTUuNSAxMS41bC0wLjEgNDEuOWMwIDMuOSAzLjIgNy4xIDcuMSA3LjFoNjQuOXpNMzUxLjIgNDkxLjdjMC0zLjktMy4yLTcuMS03LjEtNy4xaC00MS45Yy0zLjkgMC05IDIuNS0xMS41IDUuNWwtMjIuOCAyOC41Yy0yLjQgMy0yLjQgOCAwIDExbDIyLjggMjguNWMyLjQgMyA3LjYgNS41IDExLjUgNS41bDQxLjkgMC4xYzMuOSAwIDcuMS0zLjIgNy4xLTcuMXYtNjQuOXoiLz48cGF0aCBmaWxsPSIjNEE5MTlCIiBkPSJNNzc2LjEgMTYuM2MtOTIgMC0xNjIuOCAyNi41LTIxMC41IDc4LjctNjMuNCA2OS40LTY1LjUgMTYxLjctNjQuNSAxODkuMmgyOC4zYy0wLjctMjEuNyAwLjItMTA4IDU3LjMtMTcwLjMgNDIuMS00NiAxMDUuOS02OS4zIDE4OS40LTY5LjMgNy44IDAgMTQuMS02LjMgMTQuMS0xNC4xcy02LjMtMTQuMi0xNC4xLTE0LjJ6Ii8+PHBhdGggZmlsbD0iIzRBOTE5QiIgZD0iTTgxNC4xIDMxNC4zYy00NC45IDAtODYuNCAxNC4xLTEyMC42IDM3LjloLTIxLjljLTUuMi0xOC4xLTIxLjctMzEuNC00MS41LTMxLjRINTg3di0xLjZjMC0xNS42LTEyLjctMjguMy0yOC4zLTI4LjNoLTg3LjJjLTE1LjYgMC0yOC4zIDEyLjctMjguMyAyOC4zdjEuNmgtNDYuOWMtMTkuOCAwLTM2LjIgMTMuMy00MS41IDMxLjRoLTIxLjljLTM0LjItMjMuOS03NS43LTM3LjktMTIwLjYtMzcuOS0xMTYuNiAwLTIxMS4xIDk0LjUtMjExLjEgMjExLjF2NDI0LjJjMCA0NyA0MCA3OS4yIDkzLjYgMTkuOSA1MC42LTU1LjkgMTkyLjktMTk1LjkgMjU3LjktMjY4LjIgMS0wLjkgMi0xLjkgMy4xLTIuOCAxNC44IDE1IDM1LjMgMjQuNCA1OCAyNC40IDM3LjcgMCA2OS4yLTI1LjggNzguNC02MC42aDQyYzkuMyAzNC44IDQwLjcgNjAuNiA3OC40IDYwLjYgMjIuNyAwIDQzLjItOS4zIDU4LTI0LjQgMSAxIDIuMSAxLjkgMy4xIDIuOCA2NSA3Mi4zIDIwNy4zIDIxMi4zIDI1Ny45IDI2OC4yIDUzLjYgNTkuMyA5My42IDI3LjEgOTMuNi0xOS45VjUyNS40YzAtMTE2LjYtOTQuNS0yMTEuMS0yMTEuMS0yMTEuMXpNMjA2LjYgNzA0Yy05OS4zIDAtMTc5LjgtODAuNS0xNzkuOC0xNzkuOHM4MC41LTE3OS44IDE3OS44LTE3OS44Yzk5LjMgMCAxNzkuOCA4MC41IDE3OS44IDE3OS44UzMwNS45IDcwNCAyMDYuNiA3MDR6IG0yNzAuMS04My4zYzAgMy43LTIuOCA1LjYtNi4zIDQuMmwtNDMuMS0xOGMtMy41LTEuNS0zLjUtMy44IDAtNS4zbDQzLjEtMThjMy40LTEuNCA2LjMgMC40IDYuMyA0LjJ2MzIuOXpNNTk5IDYwNi45bC00MyAxOGMtMy41IDEuNC02LjMtMC40LTYuMy00LjJ2LTMyLjhjMC0zLjcgMi44LTUuNiA2LjMtNC4ybDQzIDE4YzMuNSAxLjQgMy41IDMuNyAwIDUuMnpNODE5LjkgNzA0Yy05OS4zIDAtMTc5LjgtODAuNS0xNzkuOC0xNzkuOHM4MC41LTE3OS44IDE3OS44LTE3OS44Yzk5LjMgMCAxNzkuOCA4MC41IDE3OS44IDE3OS44UzkxOS4yIDcwNCA4MTkuOSA3MDR6Ii8+PC9zdmc+;" parent="1" vertex="1">
          <mxGeometry x="468" y="1051.58" width="50" height="50" as="geometry" />
        </mxCell>
        <mxCell id="3rUZ3CN064QcZNEnWqN9-30" value="&lt;font style=&quot;font-size: 14px;&quot; color=&quot;#4a909b&quot;&gt;对应客户端A&lt;br&gt;socket_fd&lt;/font&gt;" style="text;html=1;strokeColor=none;fillColor=none;align=center;verticalAlign=middle;whiteSpace=wrap;rounded=0;" parent="1" vertex="1">
          <mxGeometry x="450" y="1017.95" width="86" height="40.13" as="geometry" />
        </mxCell>
        <mxCell id="3rUZ3CN064QcZNEnWqN9-38" value="&lt;font color=&quot;#808080&quot;&gt;内核空间&lt;/font&gt;" style="text;html=1;strokeColor=none;fillColor=none;align=center;verticalAlign=middle;whiteSpace=wrap;rounded=0;" parent="1" vertex="1">
          <mxGeometry x="571" y="1320" width="60" height="30" as="geometry" />
        </mxCell>
        <mxCell id="3rUZ3CN064QcZNEnWqN9-40" value="&lt;font color=&quot;#ffffff&quot;&gt;epoll()&lt;/font&gt;" style="rounded=1;whiteSpace=wrap;html=1;strokeColor=none;fillColor=#535F80;" parent="1" vertex="1">
          <mxGeometry x="437" y="1104.08" width="328" height="18.63" as="geometry" />
        </mxCell>
        <mxCell id="3rUZ3CN064QcZNEnWqN9-41" value="" style="endArrow=none;html=1;rounded=0;strokeColor=#FDD276;startArrow=classic;startFill=1;strokeWidth=2;dashed=1;entryX=0.485;entryY=0.888;entryDx=0;entryDy=0;entryPerimeter=0;exitX=0.188;exitY=0.491;exitDx=0;exitDy=0;exitPerimeter=0;" parent="1" edge="1">
          <mxGeometry width="50" height="50" relative="1" as="geometry">
            <mxPoint x="493.6719999999999" y="1229.91672" as="sourcePoint" />
            <mxPoint x="493" y="1095.98" as="targetPoint" />
          </mxGeometry>
        </mxCell>
        <mxCell id="3rUZ3CN064QcZNEnWqN9-42" value="&lt;font color=&quot;#808080&quot;&gt;用户空间&lt;/font&gt;" style="text;html=1;strokeColor=none;fillColor=none;align=center;verticalAlign=middle;whiteSpace=wrap;rounded=0;" parent="1" vertex="1">
          <mxGeometry x="571" y="912.26" width="60" height="30" as="geometry" />
        </mxCell>
        <mxCell id="3rUZ3CN064QcZNEnWqN9-43" value="" style="shape=flexArrow;endArrow=classic;startArrow=classic;html=1;rounded=0;strokeColor=none;fillColor=#FDD276;" parent="1" edge="1">
          <mxGeometry width="100" height="100" relative="1" as="geometry">
            <mxPoint x="326" y="1194.26" as="sourcePoint" />
            <mxPoint x="389" y="1194.26" as="targetPoint" />
          </mxGeometry>
        </mxCell>
        <mxCell id="LN-XwHLoH8wJf_DFHqXR-3" value="&lt;font style=&quot;font-size: 14px;&quot; color=&quot;#4a909b&quot;&gt;客户端A&lt;/font&gt;" style="text;html=1;strokeColor=none;fillColor=none;align=center;verticalAlign=middle;whiteSpace=wrap;rounded=0;" parent="1" vertex="1">
          <mxGeometry x="78.5" y="961.08" width="86" height="30" as="geometry" />
        </mxCell>
        <mxCell id="LN-XwHLoH8wJf_DFHqXR-4" value="&lt;font color=&quot;#4a909b&quot;&gt;&lt;span style=&quot;font-size: 14px;&quot;&gt;服务端&lt;/span&gt;&lt;/font&gt;" style="text;html=1;strokeColor=none;fillColor=none;align=center;verticalAlign=middle;whiteSpace=wrap;rounded=0;" parent="1" vertex="1">
          <mxGeometry x="559.99" y="874.01" width="86" height="30" as="geometry" />
        </mxCell>
        <mxCell id="LN-XwHLoH8wJf_DFHqXR-8" value="" style="shape=image;verticalLabelPosition=bottom;labelBackgroundColor=default;verticalAlign=top;aspect=fixed;imageAspect=0;image=data:image/svg+xml,PHN2ZyB4bWxuczp4bGluaz0iaHR0cDovL3d3dy53My5vcmcvMTk5OS94bGluayIgeG1sbnM9Imh0dHA6Ly93d3cudzMub3JnLzIwMDAvc3ZnIiBoZWlnaHQ9IjEyOCIgd2lkdGg9IjEyOC4xMjUiIHZlcnNpb249IjEuMSIgdmlld0JveD0iMCAwIDEwMjUgMTAyNCIgY2xhc3M9Imljb24iPjxwYXRoIGZpbGw9IiM0QTkxOUIiIGQ9Ik0yMDguMSAzMDQuOGMzNy4zIDAgNjkuNCA4IDk2LjYgMjEuNnYtMjkuNWMwLTE1LjYtMTIuNy0yOC4zLTI4LjMtMjguM0gxMzAuM2MtMTUuNiAwLTI4LjMgMTIuNy0yOC4zIDI4LjN2MzQuNGMyOS4xLTE2LjYgNjQuNC0yNi41IDEwNi4xLTI2LjV6TTgyMC45IDMwNC44Yy0zNy4zIDAtNjkuNCA4LTk2LjYgMjEuNnYtMjkuNWMwLTE1LjYgMTIuNy0yOC4zIDI4LjMtMjguM2gxNDYuMmMxNS42IDAgMjguMyAxMi43IDI4LjMgMjguM3YzNC40Yy0yOS4yLTE2LjYtNjQuNS0yNi41LTEwNi4yLTI2LjV6Ii8+PHBhdGggZmlsbD0iIzRBOTE5QiIgZD0iTTg0NC41IDQ1NC40YzE0LjgtMTQuOCAxNC44LTM4LjggMC01My41LTE0LjgtMTQuOC0zOC44LTE0LjgtNTMuNSAwLTE0LjggMTQuOC0xNC44IDM4LjggMCA1My41IDE0LjcgMTQuOCAzOC43IDE0LjggNTMuNSAweiIvPjxwYXRoIGZpbGw9IiM0QTkxOUIiIGQ9Ik05NDMuNSA0OTkuOWMtMTQuOC0xNC44LTM4LjctMTQuOC01My41IDAtMTQuOCAxNC44LTE0LjggMzguOCAwIDUzLjUgMTQuOCAxNC44IDM4LjggMTQuOCA1My41IDAgMTQuOC0xNC43IDE0LjgtMzguNyAwLTUzLjV6TTY5Ni42IDQ5NS4yYy0xNC44IDE0LjgtMTQuOCAzOC44IDAgNTMuNSAxNC44IDE0LjggMzguOCAxNC44IDUzLjUgMCAxNC44LTE0LjggMTQuOC0zOC44IDAtNTMuNS0xNC44LTE0LjctMzguOC0xNC43LTUzLjUgMHoiLz48cGF0aCBmaWxsPSIjNEE5MTlCIiBkPSJNNzk1LjYgNTk0LjNjLTE0LjggMTQuOC0xNC44IDM4LjggMCA1My41IDE0LjggMTQuOCAzOC44IDE0LjggNTMuNiAwIDE0LjgtMTQuOCAxNC44LTM4LjggMC01My41LTE0LjktMTQuOC0zOC44LTE0LjgtNTMuNiAweiIvPjxwYXRoIGZpbGw9IiM0QTkxOUIiIGQ9Ik0xNzQuMSAzNzkuNmMtMy45IDAtNy4xIDMuMi03LjEgNy4xdjQxLjljMCAzLjkgMi41IDkuMSA1LjUgMTEuNWwyOC41IDIyLjhjMyAyLjQgOCAyLjQgMTEgMGwyOC42LTIyLjhjMy0yLjQgNS41LTcuNiA1LjUtMTEuNXYtNDEuOWMwLTMuOS0zLjItNy4xLTcuMS03LjFoLTY0Ljl6TTYyIDU1Ni42YzAgMy45IDMuMiA3LjEgNy4xIDcuMUgxMTFjMy45IDAgOS4xLTIuNSAxMS41LTUuNWwyMi44LTI4LjVjMi41LTMgMi41LTggMC0xMWwtMjIuOC0yOC42Yy0yLjQtMy03LjYtNS41LTExLjUtNS41SDY5Yy0zLjkgMC03LjEgMy4yLTcuMSA3LjF2NjQuOXpNMjM5LjEgNjY4LjhjMy45IDAgNy4xLTMuMiA3LjEtNy4xdi00MS45YzAtMy45LTIuNS05LjEtNS41LTExLjVsLTI4LjUtMjIuOGMtMy0yLjQtOC0yLjQtMTEgMGwtMjguNSAyMi44Yy0zIDIuNC01LjUgNy42LTUuNSAxMS41bC0wLjEgNDEuOWMwIDMuOSAzLjIgNy4xIDcuMSA3LjFoNjQuOXpNMzUxLjIgNDkxLjdjMC0zLjktMy4yLTcuMS03LjEtNy4xaC00MS45Yy0zLjkgMC05IDIuNS0xMS41IDUuNWwtMjIuOCAyOC41Yy0yLjQgMy0yLjQgOCAwIDExbDIyLjggMjguNWMyLjQgMyA3LjYgNS41IDExLjUgNS41bDQxLjkgMC4xYzMuOSAwIDcuMS0zLjIgNy4xLTcuMXYtNjQuOXoiLz48cGF0aCBmaWxsPSIjNEE5MTlCIiBkPSJNNzc2LjEgMTYuM2MtOTIgMC0xNjIuOCAyNi41LTIxMC41IDc4LjctNjMuNCA2OS40LTY1LjUgMTYxLjctNjQuNSAxODkuMmgyOC4zYy0wLjctMjEuNyAwLjItMTA4IDU3LjMtMTcwLjMgNDIuMS00NiAxMDUuOS02OS4zIDE4OS40LTY5LjMgNy44IDAgMTQuMS02LjMgMTQuMS0xNC4xcy02LjMtMTQuMi0xNC4xLTE0LjJ6Ii8+PHBhdGggZmlsbD0iIzRBOTE5QiIgZD0iTTgxNC4xIDMxNC4zYy00NC45IDAtODYuNCAxNC4xLTEyMC42IDM3LjloLTIxLjljLTUuMi0xOC4xLTIxLjctMzEuNC00MS41LTMxLjRINTg3di0xLjZjMC0xNS42LTEyLjctMjguMy0yOC4zLTI4LjNoLTg3LjJjLTE1LjYgMC0yOC4zIDEyLjctMjguMyAyOC4zdjEuNmgtNDYuOWMtMTkuOCAwLTM2LjIgMTMuMy00MS41IDMxLjRoLTIxLjljLTM0LjItMjMuOS03NS43LTM3LjktMTIwLjYtMzcuOS0xMTYuNiAwLTIxMS4xIDk0LjUtMjExLjEgMjExLjF2NDI0LjJjMCA0NyA0MCA3OS4yIDkzLjYgMTkuOSA1MC42LTU1LjkgMTkyLjktMTk1LjkgMjU3LjktMjY4LjIgMS0wLjkgMi0xLjkgMy4xLTIuOCAxNC44IDE1IDM1LjMgMjQuNCA1OCAyNC40IDM3LjcgMCA2OS4yLTI1LjggNzguNC02MC42aDQyYzkuMyAzNC44IDQwLjcgNjAuNiA3OC40IDYwLjYgMjIuNyAwIDQzLjItOS4zIDU4LTI0LjQgMSAxIDIuMSAxLjkgMy4xIDIuOCA2NSA3Mi4zIDIwNy4zIDIxMi4zIDI1Ny45IDI2OC4yIDUzLjYgNTkuMyA5My42IDI3LjEgOTMuNi0xOS45VjUyNS40YzAtMTE2LjYtOTQuNS0yMTEuMS0yMTEuMS0yMTEuMXpNMjA2LjYgNzA0Yy05OS4zIDAtMTc5LjgtODAuNS0xNzkuOC0xNzkuOHM4MC41LTE3OS44IDE3OS44LTE3OS44Yzk5LjMgMCAxNzkuOCA4MC41IDE3OS44IDE3OS44UzMwNS45IDcwNCAyMDYuNiA3MDR6IG0yNzAuMS04My4zYzAgMy43LTIuOCA1LjYtNi4zIDQuMmwtNDMuMS0xOGMtMy41LTEuNS0zLjUtMy44IDAtNS4zbDQzLjEtMThjMy40LTEuNCA2LjMgMC40IDYuMyA0LjJ2MzIuOXpNNTk5IDYwNi45bC00MyAxOGMtMy41IDEuNC02LjMtMC40LTYuMy00LjJ2LTMyLjhjMC0zLjcgMi44LTUuNiA2LjMtNC4ybDQzIDE4YzMuNSAxLjQgMy41IDMuNyAwIDUuMnpNODE5LjkgNzA0Yy05OS4zIDAtMTc5LjgtODAuNS0xNzkuOC0xNzkuOHM4MC41LTE3OS44IDE3OS44LTE3OS44Yzk5LjMgMCAxNzkuOCA4MC41IDE3OS44IDE3OS44UzkxOS4yIDcwNCA4MTkuOSA3MDR6Ii8+PC9zdmc+;" parent="1" vertex="1">
          <mxGeometry x="679" y="1051.58" width="50" height="50" as="geometry" />
        </mxCell>
        <mxCell id="LN-XwHLoH8wJf_DFHqXR-9" value="&lt;font style=&quot;font-size: 14px;&quot; color=&quot;#4a909b&quot;&gt;对应客户端C&lt;br&gt;socket_fd&lt;/font&gt;" style="text;html=1;strokeColor=none;fillColor=none;align=center;verticalAlign=middle;whiteSpace=wrap;rounded=0;" parent="1" vertex="1">
          <mxGeometry x="663" y="1017.95" width="86" height="40.13" as="geometry" />
        </mxCell>
        <mxCell id="LN-XwHLoH8wJf_DFHqXR-10" value="" style="endArrow=none;html=1;rounded=0;strokeColor=#FDD276;startArrow=classic;startFill=1;strokeWidth=2;dashed=1;entryX=0.5;entryY=1;entryDx=0;entryDy=0;exitX=0.817;exitY=0.487;exitDx=0;exitDy=0;exitPerimeter=0;" parent="1" target="LN-XwHLoH8wJf_DFHqXR-8" edge="1">
          <mxGeometry width="50" height="50" relative="1" as="geometry">
            <mxPoint x="705.048" y="1228.9730399999999" as="sourcePoint" />
            <mxPoint x="710.0000000000001" y="1101.58" as="targetPoint" />
          </mxGeometry>
        </mxCell>
        <mxCell id="LN-XwHLoH8wJf_DFHqXR-13" value="" style="shape=image;verticalLabelPosition=bottom;labelBackgroundColor=default;verticalAlign=top;aspect=fixed;imageAspect=0;image=data:image/svg+xml,PHN2ZyB4bWxuczp4bGluaz0iaHR0cDovL3d3dy53My5vcmcvMTk5OS94bGluayIgeG1sbnM9Imh0dHA6Ly93d3cudzMub3JnLzIwMDAvc3ZnIiBoZWlnaHQ9IjEyOCIgd2lkdGg9IjEyOC4xMjUiIHZlcnNpb249IjEuMSIgdmlld0JveD0iMCAwIDEwMjUgMTAyNCIgY2xhc3M9Imljb24iPjxwYXRoIGZpbGw9IiM0QTkxOUIiIGQ9Ik0yMDguMSAzMDQuOGMzNy4zIDAgNjkuNCA4IDk2LjYgMjEuNnYtMjkuNWMwLTE1LjYtMTIuNy0yOC4zLTI4LjMtMjguM0gxMzAuM2MtMTUuNiAwLTI4LjMgMTIuNy0yOC4zIDI4LjN2MzQuNGMyOS4xLTE2LjYgNjQuNC0yNi41IDEwNi4xLTI2LjV6TTgyMC45IDMwNC44Yy0zNy4zIDAtNjkuNCA4LTk2LjYgMjEuNnYtMjkuNWMwLTE1LjYgMTIuNy0yOC4zIDI4LjMtMjguM2gxNDYuMmMxNS42IDAgMjguMyAxMi43IDI4LjMgMjguM3YzNC40Yy0yOS4yLTE2LjYtNjQuNS0yNi41LTEwNi4yLTI2LjV6Ii8+PHBhdGggZmlsbD0iIzRBOTE5QiIgZD0iTTg0NC41IDQ1NC40YzE0LjgtMTQuOCAxNC44LTM4LjggMC01My41LTE0LjgtMTQuOC0zOC44LTE0LjgtNTMuNSAwLTE0LjggMTQuOC0xNC44IDM4LjggMCA1My41IDE0LjcgMTQuOCAzOC43IDE0LjggNTMuNSAweiIvPjxwYXRoIGZpbGw9IiM0QTkxOUIiIGQ9Ik05NDMuNSA0OTkuOWMtMTQuOC0xNC44LTM4LjctMTQuOC01My41IDAtMTQuOCAxNC44LTE0LjggMzguOCAwIDUzLjUgMTQuOCAxNC44IDM4LjggMTQuOCA1My41IDAgMTQuOC0xNC43IDE0LjgtMzguNyAwLTUzLjV6TTY5Ni42IDQ5NS4yYy0xNC44IDE0LjgtMTQuOCAzOC44IDAgNTMuNSAxNC44IDE0LjggMzguOCAxNC44IDUzLjUgMCAxNC44LTE0LjggMTQuOC0zOC44IDAtNTMuNS0xNC44LTE0LjctMzguOC0xNC43LTUzLjUgMHoiLz48cGF0aCBmaWxsPSIjNEE5MTlCIiBkPSJNNzk1LjYgNTk0LjNjLTE0LjggMTQuOC0xNC44IDM4LjggMCA1My41IDE0LjggMTQuOCAzOC44IDE0LjggNTMuNiAwIDE0LjgtMTQuOCAxNC44LTM4LjggMC01My41LTE0LjktMTQuOC0zOC44LTE0LjgtNTMuNiAweiIvPjxwYXRoIGZpbGw9IiM0QTkxOUIiIGQ9Ik0xNzQuMSAzNzkuNmMtMy45IDAtNy4xIDMuMi03LjEgNy4xdjQxLjljMCAzLjkgMi41IDkuMSA1LjUgMTEuNWwyOC41IDIyLjhjMyAyLjQgOCAyLjQgMTEgMGwyOC42LTIyLjhjMy0yLjQgNS41LTcuNiA1LjUtMTEuNXYtNDEuOWMwLTMuOS0zLjItNy4xLTcuMS03LjFoLTY0Ljl6TTYyIDU1Ni42YzAgMy45IDMuMiA3LjEgNy4xIDcuMUgxMTFjMy45IDAgOS4xLTIuNSAxMS41LTUuNWwyMi44LTI4LjVjMi41LTMgMi41LTggMC0xMWwtMjIuOC0yOC42Yy0yLjQtMy03LjYtNS41LTExLjUtNS41SDY5Yy0zLjkgMC03LjEgMy4yLTcuMSA3LjF2NjQuOXpNMjM5LjEgNjY4LjhjMy45IDAgNy4xLTMuMiA3LjEtNy4xdi00MS45YzAtMy45LTIuNS05LjEtNS41LTExLjVsLTI4LjUtMjIuOGMtMy0yLjQtOC0yLjQtMTEgMGwtMjguNSAyMi44Yy0zIDIuNC01LjUgNy42LTUuNSAxMS41bC0wLjEgNDEuOWMwIDMuOSAzLjIgNy4xIDcuMSA3LjFoNjQuOXpNMzUxLjIgNDkxLjdjMC0zLjktMy4yLTcuMS03LjEtNy4xaC00MS45Yy0zLjkgMC05IDIuNS0xMS41IDUuNWwtMjIuOCAyOC41Yy0yLjQgMy0yLjQgOCAwIDExbDIyLjggMjguNWMyLjQgMyA3LjYgNS41IDExLjUgNS41bDQxLjkgMC4xYzMuOSAwIDcuMS0zLjIgNy4xLTcuMXYtNjQuOXoiLz48cGF0aCBmaWxsPSIjNEE5MTlCIiBkPSJNNzc2LjEgMTYuM2MtOTIgMC0xNjIuOCAyNi41LTIxMC41IDc4LjctNjMuNCA2OS40LTY1LjUgMTYxLjctNjQuNSAxODkuMmgyOC4zYy0wLjctMjEuNyAwLjItMTA4IDU3LjMtMTcwLjMgNDIuMS00NiAxMDUuOS02OS4zIDE4OS40LTY5LjMgNy44IDAgMTQuMS02LjMgMTQuMS0xNC4xcy02LjMtMTQuMi0xNC4xLTE0LjJ6Ii8+PHBhdGggZmlsbD0iIzRBOTE5QiIgZD0iTTgxNC4xIDMxNC4zYy00NC45IDAtODYuNCAxNC4xLTEyMC42IDM3LjloLTIxLjljLTUuMi0xOC4xLTIxLjctMzEuNC00MS41LTMxLjRINTg3di0xLjZjMC0xNS42LTEyLjctMjguMy0yOC4zLTI4LjNoLTg3LjJjLTE1LjYgMC0yOC4zIDEyLjctMjguMyAyOC4zdjEuNmgtNDYuOWMtMTkuOCAwLTM2LjIgMTMuMy00MS41IDMxLjRoLTIxLjljLTM0LjItMjMuOS03NS43LTM3LjktMTIwLjYtMzcuOS0xMTYuNiAwLTIxMS4xIDk0LjUtMjExLjEgMjExLjF2NDI0LjJjMCA0NyA0MCA3OS4yIDkzLjYgMTkuOSA1MC42LTU1LjkgMTkyLjktMTk1LjkgMjU3LjktMjY4LjIgMS0wLjkgMi0xLjkgMy4xLTIuOCAxNC44IDE1IDM1LjMgMjQuNCA1OCAyNC40IDM3LjcgMCA2OS4yLTI1LjggNzguNC02MC42aDQyYzkuMyAzNC44IDQwLjcgNjAuNiA3OC40IDYwLjYgMjIuNyAwIDQzLjItOS4zIDU4LTI0LjQgMSAxIDIuMSAxLjkgMy4xIDIuOCA2NSA3Mi4zIDIwNy4zIDIxMi4zIDI1Ny45IDI2OC4yIDUzLjYgNTkuMyA5My42IDI3LjEgOTMuNi0xOS45VjUyNS40YzAtMTE2LjYtOTQuNS0yMTEuMS0yMTEuMS0yMTEuMXpNMjA2LjYgNzA0Yy05OS4zIDAtMTc5LjgtODAuNS0xNzkuOC0xNzkuOHM4MC41LTE3OS44IDE3OS44LTE3OS44Yzk5LjMgMCAxNzkuOCA4MC41IDE3OS44IDE3OS44UzMwNS45IDcwNCAyMDYuNiA3MDR6IG0yNzAuMS04My4zYzAgMy43LTIuOCA1LjYtNi4zIDQuMmwtNDMuMS0xOGMtMy41LTEuNS0zLjUtMy44IDAtNS4zbDQzLjEtMThjMy40LTEuNCA2LjMgMC40IDYuMyA0LjJ2MzIuOXpNNTk5IDYwNi45bC00MyAxOGMtMy41IDEuNC02LjMtMC40LTYuMy00LjJ2LTMyLjhjMC0zLjcgMi44LTUuNiA2LjMtNC4ybDQzIDE4YzMuNSAxLjQgMy41IDMuNyAwIDUuMnpNODE5LjkgNzA0Yy05OS4zIDAtMTc5LjgtODAuNS0xNzkuOC0xNzkuOHM4MC41LTE3OS44IDE3OS44LTE3OS44Yzk5LjMgMCAxNzkuOCA4MC41IDE3OS44IDE3OS44UzkxOS4yIDcwNCA4MTkuOSA3MDR6Ii8+PC9zdmc+;" parent="1" vertex="1">
          <mxGeometry x="575" y="1051.58" width="50" height="50" as="geometry" />
        </mxCell>
        <mxCell id="LN-XwHLoH8wJf_DFHqXR-14" value="&lt;font style=&quot;font-size: 14px;&quot; color=&quot;#4a909b&quot;&gt;对应客户端B&lt;br&gt;socket_fd&lt;/font&gt;" style="text;html=1;strokeColor=none;fillColor=none;align=center;verticalAlign=middle;whiteSpace=wrap;rounded=0;" parent="1" vertex="1">
          <mxGeometry x="557" y="1017.95" width="86" height="40.13" as="geometry" />
        </mxCell>
        <mxCell id="LN-XwHLoH8wJf_DFHqXR-17" value="" style="rounded=1;whiteSpace=wrap;html=1;fillColor=none;dashed=1;strokeWidth=3;strokeColor=#4A919B;" parent="1" vertex="1">
          <mxGeometry x="177" y="1069" width="115" height="166.13" as="geometry" />
        </mxCell>
        <mxCell id="LN-XwHLoH8wJf_DFHqXR-18" value="" style="shape=image;verticalLabelPosition=bottom;labelBackgroundColor=default;verticalAlign=top;aspect=fixed;imageAspect=0;image=data:image/svg+xml,PHN2ZyB4bWxuczp4bGluaz0iaHR0cDovL3d3dy53My5vcmcvMTk5OS94bGluayIgeG1sbnM9Imh0dHA6Ly93d3cudzMub3JnLzIwMDAvc3ZnIiBoZWlnaHQ9IjEyOCIgd2lkdGg9IjEyOCIgdmVyc2lvbj0iMS4xIiB2aWV3Qm94PSIwIDAgMTAyNCAxMDI0IiBjbGFzcz0iaWNvbiI+PHBhdGggZmlsbD0iIzRBOTE5QiIgZD0iTTY5MS4yIDY0SDMzNWMtNTguMiAwLTEwNy41IDQ3LTEwNS4zIDEwNS4zdjY4NS40YzAgNTguMiA0NyAxMDUuMyAxMDUuMyAxMDUuM2gzNTRjNTguMiAwIDEwNy41LTQ3IDEwNy41LTEwNy41VjE2OS4zQzc5Ni41IDExMSA3NDkuNCA2NCA2OTEuMiA2NHogbTYyLjcgNzkwLjdjMCAzNS44LTI5LjEgNjIuNy02Mi43IDYyLjdIMzM1Yy0zNS44IDAtNjIuNy0yOS4xLTYyLjctNjIuN3YtNDdoNDgxLjZ2NDd6IG0wLTkxLjhIMjcyLjNWMjU2LjZoNDgxLjZ2NTA2LjN6IG0wLTU1MS4xSDI3Mi4zdi00MC4zYzAtMzUuOCAyOS4xLTYyLjcgNjIuNy02Mi43bDM1Ni4yLTIuMmMzNS44IDAgNjIuNyAyOS4xIDYyLjcgNjIuN3Y0Mi41eiIvPjxwYXRoIGZpbGw9IiM0QTkxOUIiIGQ9Ik01NDUuNiAxMjIuMmgtNjkuNGMtMTMuNCAwLTIyLjQgOS0yMi40IDIyLjQgMCAxMy40IDkgMjIuNCAyMi40IDIyLjRoNjkuNGMxMy40IDAgMjIuNC05IDIyLjQtMjIuNCAwLTEzLjQtOS0yMi40LTIyLjQtMjIuNHpNNTEyIDkwNGMxNy45IDAgMzEuNC0xMy40IDMxLjQtMzEuNCAwLTE3LjktMTMuNC0zMS40LTMxLjQtMzEuNC0xNy45IDAtMzEuNCAxMy40LTMxLjQgMzEuNFM0OTQuMSA5MDQgNTEyIDkwNHoiLz48L3N2Zz4=;" parent="1" vertex="1">
          <mxGeometry x="63" y="1165.95" width="114" height="114" as="geometry" />
        </mxCell>
        <mxCell id="LN-XwHLoH8wJf_DFHqXR-19" value="" style="shape=image;verticalLabelPosition=bottom;labelBackgroundColor=default;verticalAlign=top;aspect=fixed;imageAspect=0;image=data:image/png,iVBORw0KGgoAAAANSUhEUgAAAgAAAAIACAYAAAD0eNT6AAAABHNCSVQICAgIfAhkiAAAAAlwSFlzAAAOxAAADsQBlSsOGwAAABl0RVh0U29mdHdhcmUAd3d3Lmlua3NjYXBlLm9yZ5vuPBoAACAASURBVHic7N13mBRV1sDhX1XnyYmchpyj5CwiZkUBUQyYd3WNq6urq67u6q7sqp+7rlnMgmLGrCiSREUQARWJimSYwOSO9f3RoIgDTFfd7urpOe/z9CNC31tnerq7Tt2691wNIUR95gEK9z6aA/lAI6Bg75/3PTyABuTsbecG0vf+uRII7P1zKWAAfqBov8duYNfeP28FNgI/7n2eEKIe0uwOQAhxWDrQDugN9AA6AG33Ppph3+fYALYRTQY2AuuAlcDXe/8/YlNcQog6kARAiOTiAHoBQ4me8HsRPemnH6pREqoAviGaDHwNfEo0OQjbGZQQ4heSAAhhr3SgLzAMGL73v7m2RhQ/lcByYCGwaO9/S2yNSIgGTBIAIRKvHXAScCIwkuj9+IYoTDQheAt4E1hG9LaCEEIIkRLSgUnAE0Qn0BnyqPWxBZgOTATSTL3SQgghhM28RK/ynwHKsP/kWt8eVURHBc6l/s1/EEII0cA4iA7rP4ec9FU+yoBngRP2vsZCCCFEUmgB3AD8gP0ny1R/bAXuIroEUgghhEg4F3Aa8C7RyWx2nxgb2iO897U/be/vQgghhIirTOAqolXw7D4JyiP62AbcRuounxRCCGGjZkRPMiXYf8KTR+2PMuA/QJvaf4VCCCFE3XUHZgBB7D/ByaNujwDRiZhda/l9CiGEEIdUCDwChLD/hCYPc48wMAvohBBCCHEYrYme+OWKP3Ue+xKB9gghfialgIWIyiN6j/931LfSvG4HNMuCppmQlwY5PsjyQLYXsryQ64O0vT+SzwUODd3pxJeZgc/pQ68OYYQjEI5gVEV3BTaq/ESKq4jsqSKypzr635IqIkUVhLeWEt5aihEI2fhDmxIAHgJuR/YgEEISANHgOYHfEz0p5Nkcy6FleaFDPrQvgJbZ0CwzeuLPT6/bJ1kDj+7G5/TicVjMcQwI7y4nvKUkmhBsKia4ZjuhtTuIlFVb6zv+ioBbgUeJ3uIRokGSBEA0ZOOA/wO62R3Ib/hc0L0JdG4M7fOjj8YZprrSAI/DS7rLh1OPfyG98I4yQmu2E1y7g+B3Wwmu3IJRHYj7cU1YBVwDzLE7ECHsIAmAaIhaAf8DTrY7kJ/5XNC9KfRqCj2bQccCcOiWutQ1nTSnD5/Lg461viwJRwiu3kZg+U8Elm8iuHJzsiUErwFXEN2MSIgGQxIA0ZDowKXAP4Asm2OJDt8Pbg2D20Sv9i2e8PfRNZ10pw+f04eWjJ/wcITA1z/hX7QW/6J1hLeV2h0RRGsI3EB0AqhhcyxCJEQyfj0IEQ9dgceAYbZG0bEAhhZGT/qFagvX7bviT3N60ZLyzF+70Pqd+Betw79gDcE12+0OZwFwCbDa7kCEiLf68y0hhDlO4M/AzYDHlggaZ8CYDtFHqxzl3WtopLvSSEvWK/4YhH4soub9ldR8+C3hnWV2hVED3AFMQyYJihRWz78uhDikdkQrwg1J+JG9ThjRDo7qGL2vH6czs8/pJcOdZu89/niIGAS++pGaD76h5pPVGDVBO6JYBJwDbLTj4ELEmyQAIlVNIrrMS/0l96E0zYTju8CxXSAzfgMOHoebDHc6Ti3+s/rtZlT6qX53JVUvf2nHfIEy4E9E30tCpBRJAESqyQYeAM5K6FG7NYHxPWBoG2WT+Wrj0BxkutOtr+Ovj/aOClS9/CX+xesSPVXvZaJFoooTelQh4kgSAJFK+hP9om6T0KP2agbTToj7YdKcPjLcaWjysaX48ucIrtyc6MP+AEwAliX6wELEQ4rdOBQN2DnAfOzYCnb1TohjWVyXw0m+N4dMd7qc/AGjJkho9TY7Dl0IfApcZMfBhVBNEgBR33mI7gH/DOCzJYJAGL7dqbxbDchwpZPnycGpO5X3X18Fvv4JIxi26/AeostJH6G+7RkhxAEkARD1WSuiV/1X2h0Iq9SuX3fqTvK8OaS77MlpkllwxU92hwDRWgHzgBZ2ByKEWZIAiPqqF9Hh2IF2BwLAhiI1/WiQ7koj3ytX/QcTWrvD7hD2GQwsAY6wOxAhzJAEQNRHxwALgZZ2B/Kz9dYTAF3TyfVkkeFKUxBQ6gquU3+7xYJmREcCTrI7ECFiJQmAqG8uB94GMu0O5Fd2VkC1+WI1bt1Fvi8Hty63lQ/FqKghUlRhdxgHSie6odCldgciRCwkARD1hQ7cC9wPxKX6Tbu2HfB6Ldxz31VpqlmGK41cT3bqVfOLg/DOctNtvV4f7dp2UBjNrziAB4F/I9+rop6QN6qoDxzAdKJ7tyunaRpTz76ATz5YRNvCtuY72hXblamGRo4nk3RXmlTkqKPwDvP7A7Rv254FH33GVX/4I7oet6++64Bnie5BIURSkwRAJDs38CJwXjw6b9O6kDdeepd7/3U/6ekZtC1sb76z4qo6P9Wh6eR5s/E47NmfqL6KFJsf/i8sbIfX6+PWv/yd1158m9at4lYyYgowE1kmKJKcJAAimfmI3ludEI/Op559AfPnfM6woSN+/rvGjRqb77CmbsWA3LqLPG+uzPI3wajja1ybJo2b/Pzn4cNGsuCjLzhnynkKoqrVROBV7KpNIUQdSAIgklU6MBs4XnXHGRkZPPbQU9z7r/vJyMj49UHT08137D/8ycnr9JDrzUav7/v22sTwm59oeeDvNiMjg/vufoBnps8kOyvbami1OQF4l2SbsCrEXnIJIpJRGtEvzhGHe2KsenbvxROPPnvQyWCWJgEGDl2dLs3pI9NtIcGIUXhrKaEfdhPeVETopxLCm4uJlNdgVAcwymt+3mJX87rQMr1oPjd6phdHyzycrfNwtM7H2SYfR/PEbqh4SBYqAHo83lr//oTjTqZL566cf/HZfPPdKtP9H8Qo4C3gOKDu94iESABJAESycRPd0Ef5yf/0iWdy77T/4vMdfJ19dXW1+QN4D/5xynJn4HPWfgJSJbyjjMCyHwgs20Rg2Y9EdtdtxrwRDEN5zS9/sXzTr/5dL8jE3a9N9HFEGxyNs1SGHRPN6zLdtqbm4L/b9u068uE787jtjlt4dPqDpo9xECOBN4jWCqg5zHOFSBhJAEQycQEvEb1aUsbj9nDPtP9y5uSzD/vcigrzy8xI++3JSdM0slwZeJ3xmexnVPrxL1xL9furCCz7IS5b5EZ2l1PzwSpqPoheHbs6N8U7rgfeo7ujZyf2FreWZn5eXUXFoScQejxe/vn3f9Oje0+uu+EqAsGA6WPVYizRiYGTgPjtHCVEDCQBEMnCQXT51MkqOy3IL+Dp6TMZPHBonZ5fXGJhu/cDTk4akO3OxONQPxk8tHYHlTM/w79gLUYcdyKsTfD77QS/307FI5/gGdGJ9CmDcHZocviGClhJAOr6uz3rjHNpW9iO8y6aQlGxohLPUeOJblp1NhBR2bEQZkgCIJLFI8BklR126dyVGU+/TJvWhXVus37DWvMH9P0yAqChkePNwq2bH7KuTXDlZipnfIZ/8bq4XO3HwgiEqPnoW2o++hb3EYVkXDgCV/f47o2j+cwnAOvX1/13O3TwcN5/6xPOOm8S369ZbfqYtTgTKAd+p7JTIcyQVQAiGdwCXKiyw7FjxvHe7LkxnfzD4TAbNm4wf9BG0RUFGhq53mylJ//wlhJKr59F8eXP4f/U/pP/gQJLf6D4smcp/fNLhLeWxu04jibm5x+s37ieSKTuF95tC9vx3uy5jBk91vQxD+IS4CbVnQoRK0kAhN0mA7er7HDSaZN57slZZGbGtvrqu++/xe83OUdL06B5FpqmkePNxKVojb8RDFM54zOKzpuO/3MLyUmC+Bevp+i8x6l4cmFcbk04WuaBbm4JZU1NdcxX81lZWbzw7KtMmXyOqWMewh1EbwUIYRtJAISdRgBPo7AQ7oXn/44H//s4LlfsV9/zF8w1f+CmmeB2kO3OVLahT/D77dGT6SOfJPw+vxWGP0TlUwspuuAJgmu2K+1b8zgtrUJYsOiTmNs4HA7+e+9DXPa7K00ftxYa0fLWR6rsVIhYSAIg7NIFeB1QNj3+hmv/wr/uvNd0nff5Cz8xf/AW2eR41E34q35zOSV/eJbw5hIl/dkh/FMxJZc9S9XLXyrt19E6z3TbeQs+MdVO0zT+/td/cv21Skfu3URXvXRS2akQdSUJgLBDDvAmYP6bfD+apnHXHXdb+nIuLilm3nzzIwCers2V1PU3Kv2U3vwqZXe/F12fX88ZwTDl989hz19fx6hWs6zO1amp6bZzP5lD6R7zcxRuuPYv/PPv/0ZTV8kxn+hnIS6lCIU4FEkARKJpwBOAkn1ZNU1j2h33cPEF1rZif+31lyyt+07rb2ETob0iJZWUXD0T/4I1lvtKNjWfrKbkqhlESqwXw3P3M7+Jjz/g5/XZr1g6/iUXXsZdd9ytMgnoRHQJrNSHFgkVl33VhTiEWwFrZ+v93HHbXVxy0WWW+jAMg2v+dDk7d+001V7zOMm86mg0h/l8Orx9DyXXzCS0cZfpPpJdpKgC//zv8Qxpj55lvoCQnp9B1YtfQNjcUvrt27cy9ewLLJ3A+/XtT3p6BnPnfWS6jwN0BoLAAlUdCnE4kgCIRDoaeAxFI083//k2rrjsGsv9vP/hOzz82AOm27v7tMZ3fC/T7UObiim54nki2/eY7qO+MMprqJn3PZ4hHUxXEdScOoGlPxA2+Xrt2LmDfn37076dtUGogf0HkZGeqTIJGA0sAdap6lCIQ5EEQCRKO+BDohv9WPbn627m2qtvsNyPYRhceuVFbN++zXQfaRP74+rW3FTbyO5ySq6eSWSXhRLE9YxRFSCwcA2e0V3Q083NmzDKqwks2Wg6hh82beTsM6daHsYf2H8QhmHw6eKFlvrZSwOOBWYB8SumIMRekgCIRHAS3RGto4rOzjvnQm6/9R8quuL5F57hyWceN9+BQyf7huNNVagzKv2UXPsC4U0Wyg/XU0ZVgMCXG/GO6Ybmib1mgqN5DlUvfQmGuYpIW7dtobBNW3p072mq/f6GDx1JcXExy5YrWe2QBgwDnkLKBYs4k0knIhH+DtysoqPjjjmRpx+fgcNhPXctLilm8Ig+luq9e4a0J+euSTG3M4JhSq6ZSXDlZtPHrguHw0GP7r0YMmgYnTt1oUP7jrRo3pLs7BzS06JbE1dWVbJnTymbt/zE+g3r+H7Naj79bCGrvlkRU+U8M9y9W5F775ngjP2uUOn1sywVRyooaMTnC5aTk219u+NwOMy5F5zBex++Y7mvvW4HblPVmRC1kQRAxNswYB4KRpv69O7Hm6+8R9reE5cVhmEw9aIpvP3ubEv9ZN82Hu+RXWJuV/7AR1TNWmLp2AfjcDgYPXIMp0+cwtgx40yf4EpKS5jz8QfMenkG8xbMJRyOz7LE9DMHkfH72Ovh1Mz5lj1/t/b7O/nEU3ny0ecs9fFzPDXVjJ90AkuWfq6iuwgwhuhnR4i4kARAxFM2sBwotNpRm9aFvP/mXBo1amw5KICHHr2fm2/7s6U+HI0yyZ/5ezRXbLmNf9FaSv/yivJ6/unpGZx/7oX8/uLLadbU3JyEg9m2fSsPPXo/Tz4znaqqSqV9o0HOPyfhGRLbUkojGGb3GQ8T2W1t/sS0O+/hovN/b6mPfYqKizj2pDFs2KhkHt9GoA9QpqIzIQ4kcwBEPD1BtNyvJVlZWbz5yvu0atlaQUjw4Ufvc9V1l1ke3s64cCTuni1jahPeUUbp9bMw/OpK+zqdTn530R94evpMjj/mRDIzYtsDoS4yMzI5ctRYpp59AYFAgK9XfKX09kDgi434xnVHS6v7pEDNoaNpWJoMCDBvwVz69e1P28J2lvoBSPOlceSoo3jx5RkEApYLH+UCLYHXLAcmRC0kARDxcgpwp9VONE1j+sPPMGjAEAUhwdJlSzhz6kTzm/7speemk33TiWjO2D5CZf94i9A6c/UGanNEvwHMfOYVzpg0BZ/P/Nr6ukrzpXHUkUdz7LgTWLHqa7Zt36qkX8MfIry9DO+YrjG1c7ZvTPWbyy0lVJFIhHfee4tRI46kWTPrIyf5efl06tjZcsGhvXoDy4DUqw4lbCcJgIiHbOBtwPyuLXtde/UNXDD1YusRAYs+XcAZ555GRUWF5b7SzxuGu29sFen8i9ZS+ZSS5WJomsYlF17GYw89RbMmzZT0GYsmjZswZfI56LrO4s8XYZicjb+/8I9FuLo0w9mq7hWiNacDwgaBZT9aOnYwGOCNt15lwBGDaN3KfKXBfTp26EwgGOCzzz+13BfRUbTpgF9FZ0LsIwmAiIf/oGCXs7FjxnHfvx9QUnL19dmvcN5FU6iqsl6K1tEyl+wbT4yp8p9RE6T0xpcxKqx/h3u9Pp545BkuveQKJashzNJ1neFDR9K1czfe/eAdwmHrtzWC327Fd3KfmF5bV+dm1Mz5FqPC2qiO3+/n1TdepmOHTnTuFNtIRG2GDx3J0mVL2PiD5W2cs4gm1cqWGAgBkgAI9UYC92Nxgmmb1oW8PHO25WHtQDDALbffyF///hdCCk5QADm3nIKzdX5MbapmfK6kxn92VjYvPvcqY0YfbbkvVTp36sKQwcN4+93Z+P3WEhyjvAYtzR3T3ArNqeNonkPNR99aOjZAOBxi9luvUVZexvBhIy0lWJqmcfRRx/LGm6+yx8IGRHsdAXwE/GS1IyH2kc2AhEpeoqV+LZ38nU4njzzwhOX12V+v+IpjTxrDI48/oGSIGsA7ugvugW1jamNUB6h6yfqSv/T0DF6eOZshg4ZZ7ku1oYOH8/KM2UqWaFbN+gKjJhhTG8/QDnhGqNlV1zAMHnr0fo47+ShWrPraUl+5Obk8/L/pOJ2xFzs6gE70s6Vs+2whZARAqPRnIPaqOAf40zU3cvqEM0233717F7fdeQvX3nClsklqAHpOGjl3TkBLi63qX/UrX+JftNbSsV0uF89Mf4FhQywvqoib5s1a0L/fAF5/4xVLNQOMmiB6Thqu7i1iaufq0YKa91cpW2Gxfcc2npvxFEXFRfTp3Y+0NHNVrFs0b0kkEmHRYsv7/DQCKgE1E0lEgycJgFClBfAiEHtN3P0M7D+Y+//vYXQ99sGpLVs3M+3uO7n0yov4Yslnyq76AdA1sm8/FVenJjE1M4Jh9vztDYwqa0vC7rrjHiacerqlPhKhTetCMjIy+Gjuh5b6Ca3fRdqp/WKaC6Cne3AWFlDzsfVbAfsYhsGyr77kiacfo7i4iC6du5KZGfvc1sEDhzJv/ly2bttiNaRBRMsEW5/JKho8KQQkVHkGOMdKB5mZmXzywWIK29R9iL2ouIg5H73Piy/PYMGieXErXZt+1mAyLhkdczsV1epOOek0nnjkWUt9JNrUi6bw1jtvWOoj+6+nxLwsEKD8oblUvaCkGt9v6LrOyOGjmTxxCkeNGUd+Xt3ngvzw40ZGjxtCebnljZ+eAs632okQkgAIFQYBi7H4furdqy9nnXEuHTt0olXLVmRl5ZCRkYGmaVRWVlJaWsKWLZtZt2FttF794gV8890qtVf6tXD3aU3uvWdADFej+5T8aRaBL8zPAm/cuAmfzf+K7Kxs033YoaS0hMEj+rC7aLfpPjyD25MzzcQdpVCE4mtmElwR3/lyuq7TvWsPhgweTudOXejYvhPNm7cgJyeX9PR0DMOgoqKCsrJSftr8E+vWr+X5F55h+dfLrB46AgwmunWwEKZJAiCs0oie/AfZHUg8ONs2Ivf+s9AzvTG3jeyuYNekByBiPkF56P7pnD7hDNPt7TTjxWe54hoLJXYdOo1e/gN6XuwTC41KP8VXziC0bof54ye3xUT32Yhv9itSmqwCEFZNJkVP/o6m2eTeM9nUyR+gZs43lk7+A/sPZtJpk023t9uZp59Nv779zXcQjlAzx9z9fC3dQ+60iTia1q+RkxgMASbaHYSo3yQBEFY4SNEtS/WCDHLvnoyen2G6D//i9ZZiuO6aPyspgmQXTdO49uobLPXh/8z8a6gXZJLz78noBeZ/h0nudmQit7BAEgBhxTlAZ7uDUM3RPIe8+8/GEUNJ2gMZ/hDBb8zP+O7VozdjRo813T5ZHDP2OHp062m6fXDlZoyA+WV9ztZ55D1wDs7W5n+XSawrYH69rGjwJAEQZrmAW+wOQjVXl2bkPXQujubWihAFV27GCJpfCz/1nAvr9dX/Ppqmce7ZF5hubwSsJVKw91bOA+fGXFegnvgrYLnKkGiYJAEQZp0PWN8/NYl4j+pK7n+moOeYK/iyv8BX5jen8Xi8jD95guUYksVp4yfhdpkvD2F1ox8APctL7j2T8Y7uYrmvJNMBmGp3EKJ+kgRAmOEBbrY7CFU0t5Osa48l+9ZT0LwuJX0G12w33XbM6LGWyyAnk9ycXEaPGmO6feh786/l/jSfm+zbx5N5zTg0d0pdNN9MdEROiJhIAiDMmAK0sjsIFfTWeeQ9dC6+k/so7Tf8Y7HptqNGjFYXSJIYOXy06bahn8y/lrVJG9+PvAfPiXlDpyRWCNTPtaLCVpIACDOutjsAy9xOtLOPIH/6hTg7NFbateEPEd5VZrr98KGjFEaTHEaOML87dHj7HksTAWvj7NiE/CcvJPOKsWg+S9Wrk8WfkLouIkaSAIhYHQv0sjsIS4a0gccmknH+cHS3+lVU4c3Fptf/e70+OndKufvUdO3cDY/HXD0FIgbhLZa30/0tp07axP7kP3kBnmEd1fefWD2B+r9sRCSUJAAiVtfZHYApGjCoNdx3Mtx6NHqTLHxOX1wOFd5h/uq/fdv2pjZCSna6rtOurfk5o+EdexRG82uOZjnk/GMC+dPPj04SrL/X0fXzsylsk1IzYUTc9QaOsjuImLidMKwQJvWCtr+sBU9z+uL2PW9Um9/5r337en8lelDt23Xku9XmKvsZldZ2U6wLZ4cmZN8+nvR1O6mc+Rn++WuU33qIs6OJjs6tsDsQUT9IAiBiYe3ev9sJwVD8q5drQPemMLYjDG8L6e4D/lnD5/LE7fBWtv7Ny03JgjWAtZ/NSlIVK2eHxmTfcjJGpZ+auaupfn8VwZU/xf99q2toLgeG33TSoQFXAReqC0qkMkkARF1lA9Y2pL90MAxqA0s3w5Kf4JvtUFSlJrrGGdC7efTRpznkH3wtv8/pRY/j3S8rCUBGRsqWrSUjI9N0W6PKrzCSutHSPfhO7I3vxN6Ed5UTXPYjgb2P8E7zt3n252iUiatXSzyD2uMe2Bb/orWU/fs9K11OBq4B1AQoUpokAKKuzgLMV8jJ8cGYjuB2RK/Mx+4d6i6ugrW7YWMx7KiAneWwqxKqguAPQVUAdA3SXJDmjj4y3dAiG1rmQKtsaJUDTep+cklzxefe/z4WruDMT5SrB3w+86+7UWPvULyjUSaOY3rgPaYHAOFtpYQ2FRP+cTehn4oJbyomUuHHqPJjVNRgVAcxwhH0dA94XOjpbvQmWTiaZONomo2zXSNcXZr9ZqdD77geVDw+n0iJ6cQ4negy3Yet/LyiYZAEQNTVRZZan9QtevI/UF5adHLeoNaWuq8rj8ONQ4vvJDvNY/5j5ffXKIwkuVRXV5tuq3mT66vK0SwHR7McGKS2GKbmdpI2vh8VTy600s1FSAIg6iD1phuLeBgI9DXd2u2A45JjaZvPGf8rbC3N/LryiooKhZEkl4qKctNttbT4zdlINr7x/SwlkcARQD9F4YgUJgmAqIuLLbU+uhPkxnfYvS4cmo7HEf+iL1YSgOIStVXvkomVn83Ka1rf6DlpeMf1sNqNtRE70SBIAiAOx4uVyX+aBuMtf5kp4U3A1T9gqbLc+vVrFUaSXNZvMP+zNaQEACDt9AFW6xGcATSsF03ETBIAcTjHAlmmW/dtDi2z1UVjQSKG/wEcTcy/XOs3ricSiSiMJjlEIhE2bNxgur2jSXK8hxLF2Tof9xGFVrrIBcapiUakKkkAxOFY22RkXCdFYVjjTsDkv30cLfOiKxdMqKmp5vs1qxVHZL9vV39jfoKjruFokTq7I9aV7zjLFbcnq4hDpC5JAMShpAEnmG6d7o7W3U8C3gTc+99H8zhxNDY/CrBg0SfqgkkS8xfMNd3W0TQ71bbvrRPPyE5oGZZGrU4B7J98I5KWJADiUE4EzFemGd0+Wv3PZpqm4XEkdha5o7X5qnfzFnyiLpAkMX/hJ6bbOlulbnXEQ9HcTrxHWlo9k0n0Fp4QtZIEQBzKJEutxyZHXXu3w42uJXaHF1enpqbbzv1kDqV74rD7nU2KS4qZN9/8CICzSzOF0dQvvuMt3wawVr1TpDRJAMTBuIFjTLdukQ2dG6uLxgKvnvjJ0O5+5m99+AN+Xp/9isJo7PXa6y8RCJovj2zltazvXN2a42yTb6WL4wGXonBEipEEQBzMCKJDiOZ0b0L8d085PA0Ssvb/QK4eLS3dt3762ekYhv2vn1WGYfDM80+abq95nLi6NVcYUT0TMXB1b2GlhyxgqKJoRIqRBEAczHGWWn+wBi5+Gd5dDSH7lrW5HG60BA//g/UT14pVXzPn4w8URmSP9z98h1XfrjTd3moiVV8ZwTDVby6naOpjVL9jeXdfa59lkbIkARAHY/1LY8se+O9CuHAWfLTWlgEBj8O+0U/PsA6W2t993131ehTAMAzuvm+apT48Q629hvWR/9N1FE19nLK73yO0SUllSJkIKGolCYCoTSugm7LedlbA3fPg+reiSUEC2TH8v4/36O7gMP8R+3LpF8x6eabCiBLr+Ree4avlS8134NDxjumqLqAkF95aSskfX6D0xpcJbylR2XUvwNJ9BJGaJAEQtYnPkOGq7fCH1+DNb+PS/YGcugOHVssOhAmi56bj6V9oqY9b/35TvVwRUFxSzN/uvMVSH56BbX+zXW6qqnplKUXnTyew9Id4dK9hZUKvSFmSAIjajIlbz/4QPPgp/O1DqDQ/M7wu3DZe/e9jdVOX3bt3cc2fLlcUTWIYg9tdTgAAIABJREFUhsHV1/2BouIiS/14j+mpKKLkZVQF2HP7G5T/90OMmmA8D3VkPDsX9ZMkAKI28Z81vPhHuPbN6O2BOHFr9k8e84zqjF5gfjEFwOy3XuPxJ+vP9u4PP/Y/3n53tqU+HI0y8QxPjjoS8RLZXU7xFc9T8/F3iTjcsEQcRNQv9o2PimTVCrgtIUfaUwMLNkK/FpCjuGKpBpmeDDSLW6pZDsOho2kQWLLRUj/zFsylT+9+tGvbXlFk8fHhR+9z1XWXWd7QKOOikbh7tFQUVfIJrdtJ8VUzCG9Weq//UHKBx4DyRB1QJD8ZARAHGp7QoxVVwp/fgR+UzHb+mVNzoifJ29t3cl/0bGsJTjAY5ILfncOyr75UFJV6S5ct4YLfnUMwaG0oW89Nx3dCb0VRJZ/Q+p2U/HEmkd3xG/06CBkFEL+SHN+QIpkkvmjInhq48V2lKwTcNi7/O5DmdZF2+kDL/VRWVjDhzJNYtHiBgqjUWvTpAiZOOZmqqkrLfaVNHoDmTZ7fn0qhTUWU/PEFInuq7Ti8JADiVyQBEAdK7AjAPqXVcPN70WRAAZdu//3//aVNGoCjmfUtbcvKypg0ZTyz33pNQVRqvD77FSZNOYWysjLLfTla5pI2ob+CqJJPpKya0htfJlJaZVcI9ny2RdKSBEDszwtYm7ZuxfZyuGMOhK1XDnTpyXUFqXmcZP1xnJK+/P4aLvjdOdx4y58s1di3KhQK8bc7b+GiS6fiD/iV9Jl5xdjUrPwXilB60yuJvOdfm15AYrfFFElNEgCxv+6Avd++q7bDc8ssdaGj49CS763tHtgOz4hOSvoyDINHpz/IcScfxYpVXyvpMxZfr/iKcSeO5j8P3KusWqF3dBc8g5N7kqNZFdPnE1y52e4wXICl/YVFakm+b0lhJ/uu/vf34tfw9VbTzZ1JNvy/v8wrx6JnqVvxsPzrZYw9bgR/vvk6dhftVtbvwezevYvr//JHjj5hFF+v+EpZv3pOGplXjFXWXzIJLP2Byhc+tzuMfSzvLyxShywDFPubCgyxOwgAVm6HY7uAM/Yc1et0J0URoNro6R6chQXUfKyuGqJhGCz76kueePoxiouL6NK5K5mZWcr6B9iydTPT7r6TS6+8iC+WfKZ2jwJdI/v2U3F1aqKuzyRh1AQpveEljDI1c1sUWAd8aHcQIjnICIDYn+nSa6NGHEmjRo3VRbKjHF4wd4WZzCMAEN3gJm3yIOX9VlVV8tCj99N7QBcmnHESs16eaakaX1FxES++NIPTJp9In4Fdefix/1FdrX4CW/qZg/AMaqe832RQ+dRCwlvVlXJu1Kgxo0ZYKuonIwDiZ/ZWSRHJZgdg6iz+1GPPM2L4aP7+j1t5+rkn1Fwhuh3w2CRonBFTs3xfDs4kqAJ4SKEIxdfMJLjip7geRtd1unftwZDBw+ncqQsd23eiefMW5OTkkp4erbNfWVlJaWkJW7ZsZt2GtXy/ZjWfLl7AN9+tivtuhO4+rcm99wxLmyYlq/C2UorOeQwjGLbcl6ZpnH/uRdx84+3Mm/8x519yttmutgHm96kWKUUSALFPAbDLbOPPFyynQ/to6dZX33iJK665lJoaBWudx3WCa0bG1KRxWkG9eGMblX6Kr5xBaN0Ou0OxhbNtI3LvPws902t3KHGx5863qPlgleV+fL40HrjvEU456TQA1qz9niGj+lnpMg+wdTmCSA6pl3YLs9qabehxeyhs80vz006ZxDuvf0hBfoH1qOasjS4PrCOHpteLkz+Alu4hd9okHE2z7Q4l4RyNs8j516SUPfmHt5ZSM+cby/00atSYd96Y8/PJH6BtYTvcLktzXEx/1kVqkQRA7FNotmHHDp1wOn895N67V19enfU2OdkWi99EDHij7l+kyX7//0B6QQY5/56MXhDbbY76TC/IIPfeM3A0VjtRMZlUvbQk+t61ICsri1nPvUavHr8ui+xyuWjXztJyyUIrjUXqkARA7FNotmHnTl1r/fvuXXvwzBMv4HJZLMrzwfdQE6rTUx31LAEAcLbOI++Bc3C2zrM7lLhzNM8h7/6zcbRK3Z/VqApQ/e5KS324XW5mPvMKvXr2qfXfu3TuZqV7GQEQgCQA4hemvxRat25z0H8bNmQE1//xJrNdR1UFYfEPdXqqo56+pR1Ns8l94Fxc3VvYHUrcuLo0I++hc3E0t14SOZn5F6zBqLZWofHGG25l8MCDb8vRumVrK90XWmksUkf9/LYU8VBotmGL5ofetvWqy69lyCCL+5B8vL5OT3No9WUGwG/pWV5y75mMd3TqFWvzHtWV3P9MQc9JszuUuKu2eO9/2JARXP77qw75nJbWEgAZARCAJADiFwe/jD+MVof5MnI4HNx15z3ouoW32/ItUH34bWZ1vX7XttJ8brJvH0/2TSemxI54mttJ5hVjyb71lJT4eQ7HqPQTWPaj6fa6rvPPO+4+7GflcJ+5wzD9WRepRRIAsY/pMmx1+TLq0a0np5x42mGfd1ChSLQ64GEk4x4AZniP6UHe/87G2Trf7lBMc7bJJ++hc0mbmJq7+9UmsOzH6HvVpAnjJ9G96+ErcltMABRW7BL1WWp8WwqrdMD0jdmWLQ59C2Cfa6++wewhor7acsh/1jQNPYXe0s6OTch/8sLoDnm+5CxtXBvN4yT9vOHkTb8AZ4eGda6xcvUPcM2V19fpeRYTgDykBoxAEgARlYfJfSHS0tJJT6/bErauXboddFZznaw99GY3Glrqfa05ddIm9if/yQvwDOtodzSH5RnRifxnLybj/OForvp9O8aM4Optptv27XMEnTvVbf5HRkYGXq/pTaWcWEj4Reqof2umRDyYXpOVm5Mb0/MnTzyTFSuXmzvYhiIwDDjIRD+9Hk8APBxHsxxy/jGB0LodVD67mJp5qyG+VXrrTgPPkA6knzMUV7cGXGU2YhDaYLqYJqdPOCOm5+fm5LJtu+lqm/lINcAGTxIAAdEywKbEmgAcOcrClq/VQdhZAU0ya/1nLUXu/x+Ks0MTsm8fT/q6nVTO/Az//DUYgbrVSFBN8zjxjOxM+pmDcLZvWEP9tQlv34NRc/iJqgcT62cjLzePbdtNb5tdQHRnQNGASQIgwEICkJcX2yS1Th07k52VzZ6yPeYOuKvyoAlA/SkCbJ2zQ2OybzkZo9KPf+Faqt9fRWDZDwkZFXB1bop3XA+847qjZ5kehk454R0m39NAdlY27dt1iKlNTm5syfcB6u/sUqGMJAACwHQd2pwYRwA0TaNnz94sXDTf3AF3VRyy74ZGS/fgPaYH3mN6EN5VTnDZjwT2PsI7y5Qcw9EkC3e/NnsfhQ2qbHEsIrvqvmfFgXr36hvzMtncHEvVFGvPokWDIgmAADA9xTwzI/bvkWZNmpk9HFQcvMKa1oBGAGrjaJSJY28yANHtaEObign/uJvQT8WENxUTqfBjVPkxKmow9tZV0HxutAwPWpoHPdOLo1Uuzlb5ONrk42yT3yA3KzIjUuE33bZpk6Yxt8nMtHQO91hpLFKDJAACLHwZeDyxN82xcuXiP/j97oZ9+v8tR7McHM1yYFA7u0NpEKzc/8/NjX1E3uKOgPVnXamIm9SfNSXqwvSXgdMZe3U3S1cugfDB/60BTAIUSSx4iPfmYaSnp8fcxu22dBEvIwBCEgABWBoBiD13MD0BEOAQa8s1I1nWxYkGyULdg7Ky2OdruN2WSivLCICQBEAAFr4MXCaGIYuLisweDjyHuGvVACcBiuShHeq9eRglJcUxtzHz2duPjAAISQAEAKYvJZzO2L/0dhebL5ZCxsG/9OT0L+ykZ3hNt91dFPtnwu2WOQDCGkkABCTw3GkYBqtWrTDfQaPY75UKkQh6I/NzW1asXI6R2FtYki8LSQBEYn2/ZjUlpRYqkBZIAiCSk6Nxlum2JaUlrF23RmE0QhyeJAAioRZ/vsh8Y7fzoFUAhbCbo1k2mtv8PABLnw0hTJAEQCTUS6+8YL5x21zQZeRSJCmHjrPQdFVtXn71RYXBCHF4kgCIhPl+zWo+X7LYfAcdzH+5CpEIzs6xV/TbZ/Hni1i3fq3CaIQ4NEkARMI8/uTD1jro3YC3mhX1grtvG9NtDcPg8ScfURiNEIcmCYBIiDVrv+fZGU+Z70DToJeFPQSESAB3vzaW5tc//ex0GQUQCSMJgEiIm2+7gWDQfK10ujeBbPPrrIVIBD03DVePlqbbB4IBbvjLHxVGJMTBSQIg4u7ZGU/x0dwPrXUyUja0EfWD98gultp/Mv9jnn/hGUXRCHFwshugiKsvl37BDTdZvKJxOSQBqAsDImXVGJV+jFAEozoAgRBGIIRRE8QIhjGqAhCO/KapluYBxy9j15qmRbcIzvCiZ3rR0j3o6R5wyjXD4XjHdKXiobkYFjYH+tON19CtS3f69jlCYWRC/JokACJuNv6wnqkXTcEfML9POgAj2zbo4X+jOkB4aynh7XuI7K4gUloVfeypIlJUSWRP9c//TyS+1eQ0ryuaDGR40DK9ONs2wjOoHZ6hHcAhyQGAnpuOZ1RnauZ8a7oPv7+Gcy88kzdffZ/CNm0VRifELyQBEHHx7XffMOHMk9i5c4f1zk7ubr2PJBfeUUZ4S0n0RL9t32MP4a2lREqr7A7vZ0ZNEKMmSKSoAoDgqi1Uv7kcR6s8sm84HldP8/e/U0nahP6WEgCArdu2cPz4sbwy8026dummKDIhfiEJgAAImW0YCAR+83cffzKHSy47z1rJ330GtIJOjer01PqwGbBREyS0YRehDTsJrd9FaP1OQht2ESmvsTs0S8I/FVNyzUyybx+PZ1hHu8Oxnatbc9wD2xL4YqOlfnbs2M5Jp43j0QefYszosb/6t9o+ezEw/ZkXqUMSAAFg+hKzdL+TfHV1FX/9+1944unH1GxsogHn1P0eqJFkKYBREyS4ehvBlZsJrt1BaN1OwttK4z5MbxcjGGbP398kf/r5OFrk2h2O7TIuGEnxko2WM9OS0hJOP2s8F0y9mNtvuROfLw349WfPhOQZVhK2kQRAgIUvg+KSYoLBIC++PIN77pvGpp9+VBfVUR2hY92r/yV4N7XfCO8sI7hyC8FvthBctZngup21TrhLZUZ1gIpH55F9+3i7Q7Gdq2szvEf3oOaDVZb7MgyD6U89yocfvc+1V9/A5IlTKC4pttJlpeWgRL0nhdUFwBnATDMNWzRvia7r/LR5k9qI0t3w2CTI9dW5icfhIceTuM2CwltLCSzZSODrTQRXbiG8syxhx05qDp1Gr1+BnlX3392hGIEQ/rmr8X/5A5Fd5dFDtMrF3bs17iMK0XPTlBwnHiLFlew++1GMSosTYQ/QqmVrIpEIW7ZuNtvFZGCWwpBEPSQJgAAYCiTXVmTXjYqOAMTAqTvJ9+bEKaDo1W1g2Y8ElmzE/8VGwlsUzHFIUTnTJuEZ3N5yP/4Fayj7vw9+nnT4Gxo4OzTBM6At7v6FuHq1QnM5LB9Xpep3V1B21zt2h3GgIcBndgch7CW3AATAD3YH8Csj28V88gcIRUIYhoGmKcprDQiu3U7gi43RK/1VmyHUsIb0zVKxcqFq1heUP/DxoZ9kQGjtDkJrd1A54zM0rwt371a4+7fFPaAtzrb2byDlO64X/sXr8c/73u5Q9qd4yE7UR5IACIDtQAWQYXcgtMqBK4ebbh42wjg1a2/r8LZSat5fRfX7qwhvLbXUV0N1QuP25OV1YFOgjE3+CnYEq2OapBlY+gPlDx7m5F8LoyaI//MN+D/fAICzsADvsT3wHd0DvcC+t3f29cdRtGEX4Z8s3bdXpYzoZ140cHILQOwzHxhhawQZHrjvZGiRbbqLLHcGPqe5okHhraVUPD6Pmo+/qx9rCpPYN0vfoVuXDj//f1U4xDp/KaurS1lTXcqamuhjU005kQNfbAOKznuc0A+71QXk0PEd25P084fjaJS4eSL7C20qovj3zyifD2DCPGC03UEI+0kCIPa5F7jGtqN7nHDnsdDd/H7qAB6HmxxPVkxtjJogFY/Oo+qNZTLEr0CPbp1YueStOj23JhLiu+oSvq7czfKq3XxduZtvln7DrkvjUwtfcztJO30A6ecNt2WuQGD5Jkqvn4Xht3UZ/r3AtXYGIJJDcs2WEXbKAE635chuB/x1HPRubrmrCBHSnL46zwMIrd1B6XUv4v9sfcquz0+0/959Cz261W0Oh1PTaeZOp096I47NacN5jbsSnvs9H338aXyCC0cIrtiM/9P1uHu3Qs9J7AoCR9NsnB2bROcD2Pd+mwYk1YQEYQ8p3i32mQNY2K/XJJ8L/nYs9GuhpDvDMAhE6vZj1HzwDcWXPkNoU5GSYwuYetapTJ54vKU+dmzbpSiagwut20HxJU/hn5/486BncHtypk1C87kTfmyin/HYJ1eIlCQJgNhnD4leCpifDtNOgN7NlHZbHao+7HOqXlvGnn++ZWnHNvELTdO49OIpTH/oH5b7Sk9TUz/gcAx/iNK/vk71OysScrz9uY8oJPe+M+2YmLgIKE/0QUVyklUAYn+vkKjJQT2awk1HxVTop6784SChSBinXvsdrqpXl1L+nw+VHzcZ+HxeGhXk4fN6yMhIx+t14/N6SUvz4fG4ycxIx+n87esSCASprPolcaqp8VO6p4w9e8rZU1ZOaWn0v7Ud76jRQ7juqgsZNWKgkp+hV4/OSvqpk4hB2b/egYiB78TeiTsu4OrSjPxHz6P01tcIrtqSqMO+kKgDieQnkwDF/vKArYAnbkdw6HBGHzizT1y3j/U5vWS5f3t1FViykZIbXqp3JXqzMjNo17YV7dq2onWr5jQqyKNpkwIaFeTRqCCPxo3yadK4gPT0+F49l5TuYc+eCvyBAC6nk1Ytm+Fyqb2OKCndQ+vOo6ioSGC5eqdO7t2Tcfdtk7hj7hOKUPHMIiqfWxzv96UfaAZIBSsBSAIgfmsWMCkuPXcogCuG1Xl3Pys0TSPfm4tD+yXJCG8poeiSpzEqknPnvZzsLHr17Eznjm2jJ/vCVrQtjJ708/PiV+EwGd146z3cdc8jCT2mnuUj77HzcDQ1vwzViuB32yi75z1CaxVsoV27F4mW/RYCkARA/NYwYKHSHnN90V39ju0Mqqr01cGvlgQaUHLNTAJfKdysyCSHw0HH9m3o1bMLvXt2oWf3TvTq0Zk2rdVMhEwFfn+AEUefyZKlKxN6XPeAtuTePTmhx/yViEH1W19T8cQCIiXK9+sZBHyhulNRf0kCIGqjpiiQ1wnn9ofju0TX+dsg15ON2+Gi+t2VlN31ti0xNG/WmKGD+zFscD+GDOpLrx6d8fnMFStqSEr3lDHprCuZMzdOSwIPIvvmk/Ae3T2hxzyQUROkevZyKqbPx6hRsjhnPjBKRUcidcgkQFGbO4H3LPdSE4KSanDb9zbbEygnjwwqHpmbkOM5HA569ejMsCHRk/2wwf3kyt6knOwsPnjzSWbMepMHH53B4s+/SsiWz+UPfoxnVGc0G9+3mttJpKRS1ckf4DZVHYnUISMA4mDeA45R0tOg1nD1CMhJzPKuAznf/p7Q/xbErf+2hS05ZuwIjhk7gjGjB5OVaf+WCqlo2/ZdfPDRQj6Ys5A5cz9l56741W/IuvZYfCf3iVv/hxIpqaJs2tv4F69X1eU7wAmqOhOpQxIAcTDdgeWoGiXK9cHvh8CIdol910UMuHAWbFe39Dk9zcvIob04btxojhk3lk4dC5X1LerGMAyWr/iODz5ayIcfLWLh4qX4/QFl/Tta5FLw3CWgJ/DNakDNx99Rfv8clff/g0Bf4BtVHYrUIQmAOJRpwPVKe+zeFM7pp6Tsb518tQVuetdyN26XkykTjuKM045k6MAeeNwunL4CdLc9G8uIX6uqqubjeZ/x4KPP896HC5TcKsi978yELQsMLP2BiicXEly5WXXXdwC3qO5UpAZJAMSheIClREcD1OpYAOM6RUcEsuM4Ie6hxTDb2sVP9y6FzJp+Kx3a/vpeviQAyenrlauZdPaVrF33g6V+0ib2J/OKsWqCqkWkpIqaT1ZT8+4Kgt/HZXfe74he/du+/aBITpIAiMPpB3xKvIoDOfRofYBeTaF9PjTPhoL06B4BXgV3H6a+ADsrTDc/cnhfXnrir2Rm/Hb+giQAyaukdA+nnH4pCxZ9aboPR9NsCl681HIsRnUAoyZIeGc54c0lhNbuILD8x+hJP34bAlUDQ4Cv43UAUf9JAiDq4hwgPvuzJrHGjXJZOuchGjfKrfXfJQFIbjt3FdF70Mls3xH/zYWS0IXAE3YHIZKbbAcs6mIF0BTob3cgifTEf6/niD6dDvrvuisNzRG/qsnCmvT0NFq1aMbLr1tf0VrP3A9Y35VJpDwZARB15SC6kchEuwNJhMaNctnw5XOHrHMvIwDJLxQK06rTyIY0CvAmcCog21yKw5LtgEVdhYneCkhMRR2bTZkwRvkmNyLxnE4HZ55+ot1hJMoHwGTk5C/qSBIAEYsa4ETA+rq6JDfp5NF2hyAUmTheTT2rJPcucArRyX9C1IkkACJWVcB4YKbdgcRL65aNOaJ3R7vDEIoMHtiHFs2b2B1GPD1D9DOZnNtciqQlCYAwIwCcRbTASFw3MLfD1b+bgJbAXQtFfOm6ztWXn2d3GPFgAH8BphL9TAoRE/mWE1YdR/QKpMDuQFRo06oJKxdMx+N2Hfa5zrRG6C6p+18fVFfX0Kn3ODZviUvBHTtsJ3ri/8DuQET9JSMAwqp3gR7AG3YHYpWua/z3H5fX6eSvaQ50Z3oCohIq+Hxe/nfvrakysjMb6I2c/IVFkgAIFXYQvQd5JvCTzbGYdv0VZ3DsUQPr9FzdkwUxnEx27S7m7v9MZ/SxZ9O8/TA8ud1p3n4Yo489m3v++wS7dhebDbveSvRrcsqJY7n2yguU9plgm4HTiE7222lzLCIFpEQ6LJJKGnAdcC2QZXMsdXbeGcfw4L+vxuGoQ06s6bgzW4F2+OcahsG/73ucO+56kPKKg+/wlpWZwS03/oFrr7wgVa5SD8rO1yQUCnPB72/k2ZmvK+kvQUqAu4H/AMq2CRRCKgEK1YLAPOBhoBzoCST1WPnVv5/AfXf+AV2v24CYw5OJ7jr8jxQMhjjzvD/ynweeJhAIHvK5/kCADz9axOo1Gxh/0tF1jqW+sfs10XWdU048ij1l5Xy+JOnL5G8D/k10wu2HRD9bQigjCYCIlxpgAdGypCuBTKAtSXTbqUWzAp5/+CZ+f97JMVxhajjTGqFph//oXHHt33j6+ddiiumbb9dSUrqH448ZFVO7+iIZXhNN0zj26JEMOKIn8xZ+QXl5Ul5U3wycTrTwlizvE3GR2mONItksI7o9qa1aNm/EHy44hYvPPbHWXf4ORXel40xrfNjnfbLgc4489hyzITLn7ac5avQQ0+2TUTK+JmXlFTz8+Ezuf+jZZFshMA34s91BiNQmCYBIlB5ERwISKj3NS6OCHFo2K2DIgO6MGdGXEYN7mi7z60pvhub0HvZ5w446g08/W2bqGADDhx7Bgg9Tq9ZSMr8mwWCITxZ8zseffMbCxV+yZesOdu4qorLStsJ6m4iOmKVcnQ2RPCQBEInyL+BPZhtffM4J/G/alQrDiZ2mO3Fltjrs87Zs3UGrTiMxDPN7vWuaxqbv59GyRVPTfSSThviaDB0zmcWff2Wli5FEb6MJERdJcz9WpDSd6BJB0y48+3hFoZinu+u2qGH+wiWWTnQQnSm/aLH5q+Vk0xBfk/PPmWC1i7NUxCHEwUgCIBLhaKCl2caDjuhK354dFIZjhlanmf8AW7btUHLEzVuT6p60JQ3xNZk88XjS0mKbY3KA0wGPonCE+A1JAEQimJ/5RXT4326604um123eQEVFlZJjJunsdFMa4muSlZnBhFMs7USYCzSIrQyFPSQBEPHmJVq5zJS8nEwmnjxSYTjm6K5Mu0MQ9dAFUy3fBjhVRRxC1EYSABFvYwDTO+acNWksPq/No6CaA92VZm8Mol4aNXwgbQtN3/0COAGp1yLiRBIAEW+mr/4Bpkw4SlUcpulOX0x1/4XYR9M0Jk+wdAurETBYUThC/IokACKeNKJXMKa0bdMsCSb/UefJf0LUZsJ4y7fxT1IRhxAHkgRAxNNAoIXZxqefMtr+jXE0Dd11+MI/QhxM/349aNf28PUjDuFkVbEIsT9JAEQ8WbpySYrJfw4f8jERVp160tFWmncFOioKRYifyTebiKdjzTbs1L4lvbq1UxmLKTL5T6gw8VTTH4V9xqqIQ4j9SQIg4iUb6GO28aknjFAYilkamiQAQoFBA3rTonkTK12MVhSKED+TBEDEy3AsLF86evQRCkMxR3O467TtrxCHo2ka444abqWL0cjeLUIxSQBEvJi+gZ+Z4WPwEV1VxmKK7pDJf0Kdo8cMs9K8MdBFUShCAJIAiPgZZbbh6GF9TG/Xq5LmlDLsQp2jjxqGrlv6yj1SVSxCgCQAIj4ygH5mG48dabqpUrpTRgCEOgX5ufTpZWlka7SiUIQAJAEQ8TEAcJltfPSR/RWGYo6mu0Du/wvFLN4GGKQqDiFAEgARH73NNmzaJI/2hc1VxmKKDP+LeDhylKVzeGuipYGFUEISABEPphOAAX06q4zDNN1paR93IWo1aEBvq/MAkuP+mEgJkgCIeDCdAPRPkgRAc7jtDkGkoJzsLDp1KLTShf3rY0XKkARAqOYkWrrUlAF9kyQB0ExPYRDikAYNMJ0fgyQAQiFJAIRqnQFT0+c1TaNvL/tLnmu6W7b/FXEzeKDpApkgCYBQSBIAoVp3sw3btmlKXk6mylhM0Rxy9S/ix+IIQGtA9qcWSkgCIFQzvYNPl46tVcZhmqZLAiDip1uXDjgcppeYakB7heGIBkwSAKFaG7MNk2H5H+y9BSBEnHg8bgrbtLDSRQdVsYiGTRIAoVqh2YavlBruAAAgAElEQVQd2lr6UlRGbgGIeOva2dJFvP0TZURKkARAqFZotmGHtskyAmD/PgQitXXpZPpOGcgIgFBEEgChkkZ0kpIpSXELQNNAk4+FiK+uXWQEQNhPvumESvlAmpmGuq7RumUTxeHETpP6/yIBOrQzPVUGIDnulYl6TxIAoVKe6YY5WTgcSfB2lKt/kQAtmltKdhurikM0bPJtJ1TKMdswPy9LZRymaZrc/xfx17yZpXN4FiCbVQjLJAEQKmWbbZifmxwJALrcAhDx5/N5ycm29J6XUQBhmSQAQqUUGAGQBEAkRrOmlnb2lQRAWCYJgFDJ9AhAMpQAjpI9AERiSAIg7CYJgFDJ9Fk8Lc3U/kHqyflfJEh2tqWkN0NVHKLhkgRAqGR6/NxCbfSkk5mpZq+W7KzU+Y6X1+S3fF5LSa9HVRyi4ZIEQCSFpFgCCEq2AW7eVM3obPNm9tdFUEVek9+yOOqVJENmoj5Lkm9dkSJMnz2TJgEwrCcAI4cPQLOYSGiaxrAh/SzHkizkNfmttDRLK/kkARCWJcm3rmjodAVX3iqoCKNF8yYMHdzXUh/Dhx5ByxZNrQeTJOQ1+S25BSDsJgmASApWrw5VMRTNArzzr3+01P72m69UEkcykdfk15xOS/NeJAEQlkkCIFQyzDasrKpRGYd5RlhJN6NGDOQPvzvLVNur/jCVI0cOVhJHMpHX5NcCgaCV5pYaCwGSAAi1ykw3LK9UGYd5RkRZV/f962YmTzw+pjZnTDqBu//xZ2UxJBt5TX7hDwSsNE+SjFnUZ5IACJX2mG5YlnoJgNPpYOZT/8c9/7yR7KxDr/nOzsrk/6bdxIwn77U6NJzU5DX5hcURAL+qOETDJTufCJVKzTbckyQjAIbpmxi10zSNP155PueeNZ5nnn+dt96dy/drN7C7qISC/Fy6dGrHiccdyblnnUp+nulKyvWKvCZRfr+lEQBJAIRlyTHzSqSKQcBnZhr26dGBzz94QHE4sdNdaTjTUmetuUheZ0y9mhdffsds87OB5xWGIxoguQUgVDI9ArCryHRTtSKKhwCEOIit23ZaaV6hKg7RcEkCIFQqMdtw244iqmvsH9U0CNkdgmggNm/ZbqX5VlVxiIZLEgCh0i6gykzDSMTgh007FIcTOyMcxMJqRiHqJBwOWx0BkARAWCYJgFDJADaabfz9up8UhmKeEVFTC0CIg/nmu3VWJgGGAUvDB0KAJABCvQ1mG3665BuVcZhmRKTGioivJUtXWGm+lWgSIIQlkgAI1dabbfjpF6tUxmGaEbZ/LoJIbZ8v+dpKc0uNhdhHEgCh2lKzDb9auY7SMvsnNxshKbIm4scwDN79YL6VLpapikU0bJIACNUWm20YCoWZ/e6nKmMxJRKWBEDEz5KlK62uADCdZAuxP0kAhGrria4GMOXlNy1dGalhGHIbQMTNa7M/tNqFjAAIJSQBEPFg+jL+4wVfsW1HkcpYTIkEkqM0sUgtgUCQJ599xUoX3wGbFYUjGjhJAEQ8mK5vGgyGePCJ2SpjMSUSqkTqAQjVZr36Djt27rbSxduqYhFCEgARD7MB09vqPf7s21RW2Xsf3oiEMEKWNmsR4lcMw+A/DzxttRvTybUQB5IEQMTDduBzs42LS8t5YPrrCsMxJxwotzsEkUJeef19vlxmaalrKbBQUThCSAIg4sbSjc5/3f8CO3eZ3lpAiUiwHCMiewMI64LBEDfddq/VbmYCUqVKKCMJgIiXZ7CwZ3l5RTV/nWZ5uNSyiIwCCAXuvf8J1q77wWo30xWEIsTPHHYHIFJWFdAN6Gm2g+Wr1tO/Tyc6tGuhLqoYGZEADncWaJptMYj6bfWaDZw59RpCIUvVe1cAtyoKSQhARgBEfD1spbFhGFz6p/9QXGrjVbgRIey391aEqL+CwRBTL76eGutbXVv6LAlRG0kARDzNB7600sHW7bu54Mp/EQ6bXlRgWdhfhhGRFQEidldc+ze++NLSxj8Q3fznSQXhCPErcgtAxNtWYIqVDtZt2EJldQ1HjzpCUUgmRELo7gz7ji/qnYcem8Hf/vk/FV3dDCxS0ZEQ+5MEQMTbWuA4oKWVTj778jsK8rIZ0LezmqhiZERCaLoTzeGx5fiifnnl9fe58LKbiEQsF5PaBkwFZDmKUE4SAJEIm4BzrHby/twvKcjLor9NSUAkXI3uTEfT5WMjDm722x8x+dyrrE762+d64DMVHQlxIPkmE4mwHugFdLXa0ftzvyQj3cfg/t2sR2WCEfHjcGfacmyR/J6d+TrnXnQ9gYCS5fpLgEuRmtQiTiQBEImyGLgYcFvtaM68pWzdVsS4I/vjcCR4HmskjGGE0V1piT2uSGqGYXD7P/7HNdf/Q9WVfwSYiGz8I+JIEgCRKGVAABinorOvVq5j/qcrGD2sDznZiZ2cZ4QDoDnQnTIfQMCOnbuZfO7VPP7ULJXdPgg8prJDIQ4kCYBIpC+A0UAbFZ39tGUnT7/4Po0b5dKnRwcVXdaZEapBc7jRHK6EHlckl9ffnMPxp17E1ytXq+z2W+B0pOyviDMpbyYSrSWwHMhX2emoYb2Zdusl9O2Z2ETAmdYY3ZWe0GMK+61es4Fr//xP3nl/nuquq4FBwErVHQtxIEkAhB1OBl5H8ftP1zWmTDiKP10+mS4dW6vs+hA0nL5G6G5JAhqC9Rs2cc9/n+Dxp2YRDMZlZd5lwEPx6FiIA0kCIOzyN+CWeHSsaRrHjBnA5ReewpgR/RIwUVDD4c3B4cmJ83GEHSKRCAsWfckDjz7Pq298QDisZJJfbR4FfhevzoU4kCQAwi4a0R0Dz47nQRoV5HDaCcM55bhhDO7fjfQ0b9yOpbszcHoLZOOgFPD/7d13fBRl4gbwZ3Y3IY30QgIh9ICICAJSBAUFQU48OcUKtvPOwsmd5eygB6dYzvP0RPSU+wB2xIKKHAoiLUgTkN7Te9tsNsm2+f2x6g80Ccns7LwzO8/38/EvMjOPySTz7Mw779vQ0Igt23bhs5Xf4IPlK1FYVBrsQ64CcDk44Q9piH+pSKRwAP+Df2Bg0NlsVgwa0AtDB/VFn55d0LNbBrIy0xDbMQqRkR0QHxv42wSSrQNskamQLDYVElMw2escqK9vQF1dPXLzC3H0WC6OHMvFth17sHX7HrXe5W+L3QBGA+Da06QpFgBzSQMwFsAQAH0B9ASQDCAaQKTAXESkrQYA9QAqABwFcAj+iYe+AVAmMBdpiAUg9KUDuOHH/waCP3MiapkM/1s6bwF4F/61CChE8WIQunrCP4/4rQB4P5qI2ssHYDmAOQAOCM5CQcACEHqSATwD4GYAGs+TS0QhyAdgEYCHAFQKzkIqYgEILdcCeAVAouggRBRyKgDcDUDVOY9JHE4FHBoi4L/wPw0O5iOi4IgCcDWATgDWgK8sGh7vABhfPIAV8L9GRESkhW8BXAGgVnQQUo4FwNiS4W/i54gOQkSmsxvAJfA/GiADYgEwrigAXwMYIToIEZnWNgDjADhEB6H24yhxY7IAWAZe/IlIrKEA3gE/TBoSBwEa08MA7hAdgogIQDb8MwtuEh2E2oetzXiGAtgMTu5DRPrhATAcwA7RQajtWACMxQIgB8Aw0UGIiH5hO/wlIGjrJZO6OAbAWG4HL/5EpE9D4J+BlAyCdwCMIwzAYQDdBOcgImrJcfjHBHCSIAPgc2TjuB4qXfxtFgkX947FxOx4DOkSjdQYGxKi9HUqWDqEw9IhXHQMopBUVe9GWZ0b207asXJvBdYcrIbHJ6ux6x4ArgOwVI2dUXDxDoBxbAQwKtCdXNYvHo9dnIFeyREqRAoeFgAi7Rwpc+JvX5zAFz+ostbPBgBj1NgRBRcLgDH0gv/2v+Kfl9Ui4ZFxGfjTBWnqpQoiFgAi7S3OKcZfPzoKtzeguwEy/H+zjquTioKF8wAYw20AJijdWAKwYGp33Dw0Wb1EQSbZrJBsPD2JtHRuZkd0T47E5z8ENLuvBCAP/jeWSMf4FoAxjA1k41mjO2HqgAS1shBRCLtqcCr+NDYz0N2MUyMLBRcfAeifBf4Vt2KUbNwlPhxbZvZHuM1YP2o+AiASp9Htw9Cnt6GwpknpLuwAEgD41EtFauMdAP3LgsKLPwDcNybdcBd/IhIrIsyCByZ0DWQXsQACvo1AwcUCoH/ZSjcMs0qY3C9ezSxEZBJXDExBmDWgDw991MpCwcECoH9dlG44NDMa8ZEcSEdE7RcXacOQrNhAdsE7ADrHAqB/HZVu2C2hg5o5iMhkuicFNF+I4r9dpA0WAP2LVrphSkyYmjmIyGTSYgMaiMsCoHMsAPqneI7e8MCe3xGRyYXbArpE6Gt+cfoVFgAiIiITYgEgIiIyIRYAIiIiE+IzGmqT/BoX3txajrVH7ciraYLTxQm+iPQiKtyKbkkRuLhvAm4blYGuifpe7ZP0gQWAWiXLwL83leKZb4rgCmyFMCIKEqfLi/3F9dhfXI/XNxTh4YlZuGccX8On1rEAUKueWF2AV3PKRMcgojZq8vjwxOcnUO5wY+6UHqLjkI5xDAC16IsDNbz4ExnUK+sKsHJvpegYpGMsANQsWQbmfV0oOgYRBeDJz09A5pM7agELADVrV5ETxyoVLwVKRDpwpMyJPYUO0TFIp1gAqFl7ip2iIxCRCnbl14mOQDrFAkDNqnR6REcgIhWUO9yiI5BOsQBQs7w+PjgkCgX8XaaWsAAQERGZEAsAERGRCbEAEBERmRALABERkQmxABAREZkQCwAREZEJcTEgUt1jM7rg8Zu6BLQPOW2YSmmIjG/egu8wb8F3omNQiOEdACIiIhNiASAiIjIhFgAiIiITYgEgIiIyIRYAIiIiE2IBICIiMiG+Bki6UF7jxlurK7BySzUOFzSgyr4NifER6J0Vj8kXdcf0K/ohKSFSdEyiNquobsDSTw9g5boTOJJbg6qaRp7TpCssACSULAMvLivGU0sLYHd6T/u3kvJ6lJTXY8P2Qjy1cCseuWMYZt00GJIkKCxRG8gy8OLinXh64VbYHa7T/o3nNOkJCwAJ4/HKuPmpo1i2rvKMX2t3uPDQ8xuxc18ZFs2fAJuVT69IfzxeH255cDWWrTp8xq/lOU2isQCQMPe9crJNF/9TffDlYSQnRuKFhy8MUip1OJxubN5ZhJzvi3DoRDXyiurgcLrR5PKeeWNqVodwK2KiwpDVORbZ3RMwYlA6Rg7OQHRkmOhoP7t//vo2XfxPZZRzmkIPCwAJsX63HQs/LVW07YK3d2PKuJ646PzAphsOhjU5efjvh/vw+brjaGzixT4Ytu/9//MmooMVl4/tiVuv6o+xwzMFpgI2bC/Ewnf3KNpWz+c0hS7ecyIh5izKD2j7uQu2qJREHeu3FWDUNe9h8u2f4MP/HeHFXyONTV4sW3UYk37/MUZf9z42bi8UlmX2vzYHtL3ezmkKfSwApLmiChdy9tUFtI/NO4tQWOpQKZFydfUu3PbIV7j01o+wY1+Z6Dimtu2HUoy/ZTn+8PjXcDjdmh67qMyBLbuKA9qHXs5pMg8WANLchj12yHJg+5BlYPP3ReoEUujQiWqMvOY9vL3iQMD/P6QOWQaWfLwfo655D0dO1mh23A3bi0LinCZzYQEgzRVVqPPprLBE3KelHfvKMG7Gh5peZKjtDp2oxtjpy7BzvzZ3ZYrK1DkXRZ7TZD4sAKQ5td55tljEvDx94FgVLv/jJ6isbhByfGqbiuoG/OYPn+Dg8aqgH0utM1HUOU3mxAJAmktPUue1rfTUaFX20x41dU248q4VqKpp1PzY1H5VNY2YevdnqP3FhDxqS0+NUWk/2p/TZF4sAKS50efEBnwXQJKAkYMy1AnUDnfNWYOThXbNj0vKHc+vxZ+eXBvUY4wekmHYc5rMiwWANJeRHI4R/TsGtI+RgzPQOU2dT11t9b8Nufho9VFNj0nq+ODLw/hy/cmg7T8jNQbDz00PaB8izmkyNxYAEuLJWwObtGX23cNVStI2Xp+M+5/5VtNjkroefn4jfL7gva7xt1kjA9pe63OaiAWAhBgzMBZ3/raTom1n3nguLhym7YxpH60+whH/BnfweBU+/ip4d3BGD+mMO68fqGhbEec0EQsACfP8XVmYNjapXdtMm9QH8x+4IEiJWvaf9/dqfkxS35sfBvfn+NyDozFtUp92bSPqnCZiASBhbFYJSx7tjWfvzEJctLXVr42LCcdzD47B4mcnar5qWkFJHTbuEDfFLKln3XcFKC6rD9r+bVYLFj87Ec88MBpxMeGtfq3Ic5oI4GJAJJgkAbOuSscN41Pw9lfl+CKnGofzG1Fp9yIpIQLZ3RNw2YXdceOUfkiMjxCScU1OflCfHZN2fD4Za7fk4YYp/YJ2DEkCZt00CDdO6Yu3VhzEym9P4PDJalRWN+rmnCYCWABIJ5LjbJh1VTpmXeUfSS2nDROc6P9t2hnY9Kwdo6y4/bedMXZIAuKi+SunVI3Dg7Xbq/HGp4VwOJUvtrRhe1FQC8BPkhIiMeumQZh106CgH4tICf41IjqDQGaSi4+xYdn8AeidGaViInPqCuCcXjGYNCIJ0x75AbUOj6L9aDEzIJER8MET0RmcLFA+8c99N3TlxV9l2VlRuPf6roq350RORH4sAERnUBfANLKTRiarmIR+Mmlk+94eOZW9rknFJETGxQJAdAYNTcpuNQNAUpw66x7Q6VLiWx9h3xpno/KfJ1EoYQEgCiK1Vj6k0/H7ShQ4FgAiIiITYgEgIiIyIb4GSKQjPhnYdagOW/bWorTKBbcndCcgCrNJSEsMx/Cz43BudkdYeFufSFMsAEQ6sXlPLZ584zgO5TpFR9Fc36wozLm9B0YMiBMdhcg0+AiASAeWrizG9Dn7THnxB4CDuU7cOHsf3vqyRHQUItNgASASbO32asx5/Ti8Jl9vwOuTMfu1Y1i3o1p0FCJTYAEgEsjtkfHEf47D5Nf+n/lk4PHXjsPl9omOQhTyWACIBFqzrQp5JY2iY+hKfmkjvt1ZIzoGUchjASASaNOeWtERdGnDLhYAomBjASASqLic89I3p4jfF6KgYwEgEqjBpXxd+1DG7wtR8LEAEBERmRALABERkQmxABAREZkQCwAREZEJsQAQERGZEAsAERGRCXE1QCKDumfGIGR3TxAdo0UHj1fh5aW7RMcgohawABAZ1KQx3TB2eKboGC1am5PPAkCkY3wEQEREZEIsAERERCbEAkBERGRCLABEREQmxEGAREHU7YpNoiMQETWLdwCIiIhMiAWAdEoWHYCIKKSxAJA+ySwARETBxAJAOqWfAmCxSKIjNMtq1WcuIjIGFgDSJ9knOsHPkhMiRUdoVmpSlOgIRGRgLACkTzoqAJmdYkRH+BWLRUJGqv5yEZFxsACQPumoAIwb0VV0hF8ZMiANsTHhomMQkYGxAJAuST6P6Ag/u3JCL9ERfuXK8frLRETGwgJAuiTL+ikAg89KxWUXdhcd42cpiZH4/dVni45BRAbHAkC6JPncoiOcZv4DF6BjtD5uuT/34BjdZGlJWaUTSz89IDoGEbWCBYB0SdbRIwAA6NMtAf+dP0H4K4F/vnkwrp2cLTRDa2odLjz5cg76TVyMdz8/KDoOEbWCBYB0SW93AADgN2N74ONXpiBOwOA7SQLuv+08PHXvKM2P3RYutxdvLtuLAZOX4OnXtqG+QX8/PyI6HRcDIn3yuUQnaNalo7Ow6f1r8egLm/DpmmOaHHNg3xTMv/8CjB2eqcnx2sPrk7H0k/2Yt2ArCkrqRMchonZgASB98jSJTtCiXlnxeP9fk/HD4Qp88tVRfPNdAfKL61Ba4YTL7Q1o3xaLhNSkKKSnRGPYOZ0w5eIeGHt+pvBHD78ky8AnXx/FEy/l4NCJatFxiEgBFgDSJ69+C8BPBvRJxoA+yXj8btFJtJXzfTEee3ETNu0oCtoxUhP0PciRKBSwAJA+yV7/f5JVdBL60c79ZXj8n5uxJicv6MfKStfn9MtEoYQFgPTL2wjYokWnML3cQjuefWM7/rt8H3w+bRZpmjgiSZPjEJkZCwDpluR2QmYBEKaozIG/v7oViz/aD49Xu6mZx56XgL5ZXOiIKNhYAEi/PA2iE5hStb0J/3hzO155azcamrSdjyE1IRzzZ3KaYyItsACQfnmcohOYirPRg38v3YUXFu1ATZ32gzB7donEgr/2RVoiBwASaYEFgHRL5h0ATbg9Pvx3+T48tXArSsrrNT9+eJgFMy7rhHuv74qoiLYN+pS1GYpAFNJYAEi3JJ8bstcNWMNERwlJPp+MD/93BE++vAXH8mo0P77VIuHKsSm497quyEjp0K5ty6qVTxSl93UUiLTCAkD65q4DrImiU4Sc1RtzMftfm7HrQLmQ408YnoQHbuyK3pnKBvut3lKp+NgJce0rG0ShigWAdE1yOyBHsACoZevuEjz24mas31Yg5Pjnnx2Hh2ZkYVB2R8X7OFHUgBfeUT4XQVoy3ywhAlgASO/cnF9eDQeOVWHOSzlYodH6Bb/Uv0c0/jo9CxcOTlC8D49Xxgdfl2L+4lzY65W/nTCoX4ribYlCCQsA6ZvbCcg+QOLClUrkFdVh7oIteGfFQXg1msTnVN3SI3Dv9V3xm9EpULqcgSwDKzdX4Pm38nCiKPCBoUPOTgt4H0ShgAWAdE4G3A4gPFZ0EENxNnrw9MKteGnJ92hyBbZAkRKpCeG455pMXDshDTar8oWMNuyqwbNLcvHDMYcquSwWCeNHZamyLyKjYwEg3ZNctZBZANpsbU4+7npiDU4W2jU/dmy0DXdM7YxbLs9AZAfld212H3Hg2aUnsWl3rYrpgAuHdUF6KscAEAEsAGQETbVATKboFIbw0pLv8fDzGzW/3R8RbsFNk9Nx51VdEB+j/M/KsYIGPP92LlblVAblXf+brjxL/Z0SGRQLAOmfx+lfHtjK17dac//89fj3W7s0PabNKuHqi1Mx69qu6JSk/P364oomvPhePpavLYPHG5zy0rdHIq6e1Cco+yYyIhYAMgTJZYccydHbLZm34DtNL/6SBFw2Mhn33dAVPTorX7q3us6DBR8WYMnKYjS5grvg0OyZw2FVOhKRKASxAJAxuGoAFoBmffDlYcxb8J1mxxt9bjwemJ6Fc3rFKN6Hs9GLRZ8V47WPClDnDP4gxd9d2htTJ3CRIaJTsQCQMTTVALIXkNo2V7xZFJU5MGvuN5oca2DvGPx1ehZGDYxXvA+3R8a7q0vw8gcFKA9gOt/26JwWg5cfH6vJsYiMhAWAjEGWITVVQ45IFp1EV2bNW4dqe3BX7uvZJRL335CFiSOSICm8g+6TgRXry/HCO3nIK2lUN2ArEmI7YMXCK5AYH6HZMYmMggWAjKOxCmAB+Nm2H0rx2drjQdt/elI4Zl3XFVeNSw3oXf6126vx3Fu5OHBC25UG42LC8fGCKejfO0nT4xIZBQsAGYfLzscAp/j7q8F57p/Q0YY7f9cFMyanIyJc+bv82w/Y8eySXGzdr/18BD0y4/DRK5ejbw+uI0HUEhYAMg7ZB6mxEnJkqugkwhWX1eOrjbmq7jMqwopbL0/HH6d2Qcco5SXrUK4Tzy3NxdfbqlRM13bXTs7GCw9fyNv+RGfAAkDG0lAOsABg2arDqk32Y7NKuO7STrhnWhekJCh/l7+grAkvvJOHT9aVQcCyA+jdLR7/fOQiXDKyq/YHJzIgFgAyFne9f2Igm7J15EPFV5uUL4f7k5/e5X9geha6pSv/tFxd58HrHxdi0WdFQX+XvzkZqTF49M5huGnqWbBZuWgUUVuxAJDhSA3lkDuad0EXWQZ27CsNaB9D+sVi7h97oF935fPiO5xe/OeTQrzxaRHqG7VfcCgxLgL33XYe7rphICI78E8ZUXvxt4aMp6HCvzaASZcILiipQ1WN8lfpJgxPwqsPZiueFc/l9mHplyV4ZVkBquxuxTmUioqwYeb0c3HvrechviOnhyZSigWAjEf2QmqsMO1gwNJKp+Jtw8Ms+PsdPRRd/H0y8OXmCjyzJFfTd/l/EmazYMaVZ+GxO8/nin5EKmABIGNylgARKVA8M42B1dYpn/hnQM9oRQP9Vm+pxHNv5eFIvvLyoZQkAVdP7IM5fxqOnl2Vz0JIRKdjASBj8jT6pweOSBCdRHP1TuW33ZPi23fx33vMgcdfO47vD9UpPmYgJlyQhb/NGolz+3EdCCK1sQCQcTWUmLIABPKGXXvulyxaUYSnF5+E26P9O33DBnbCvD+PxJihXTQ/NpFZsACQYUmuOsDtgBymfFU6at4n35bjb2+e0Py42d0TMHvmcEyd0NuMT3eINMUCQMZWXwDE9xWdIqSUVrnw0L+PanrMzPSOmH33cFw/pa/itxOIqH1YAMjYmuz+NQLCY0UnCRlLVxajUaMJfRLjI3DvLedh5o3nIqID13gg0hILABmfowBIPEt0ipCx+rvgz+EfExWGWTcNwqybBiM2Rvn0w0SkHAsAGZ7kdkB21QLhcaKjGJ4sA/mlwXvH/6d3+WffPRxpyeaezplINBYACglSXT7kpFi0b5w7/VJ9gxcNTerf/rdYJFw7ORtzZg5HVmc+riHSAxYACg0eJyRnBeQovi+uN+NGZOLp+y7AwL782RDpCQsAhQzZkQ9EJgISB5O1ZPsBO26cva/Ff/d41Xvnf9R5GZj351EYMShdtX0SkXpYAChkSLIHqC+EHMP14FtSWevGxt01QT1Gv56JeOyu8/G7S3sH9ThEFBgWAAot9aX+NQJskaKTmE6YzYLX543HNZf1gYXv8hPpnjnXU6UzCmQyFptV5B9/GZL9uMDjm1dkhA3X/SabF38ig2ABoGYlRyu/OZSWGKZiEgXc9YCzVGyGILLodI5cveYiouaxAFCzBqYrf0f7vD7i12qXHPmAV/s167WQnKDPxxvJifrMRUTNYwGgZp2THotgC30AAA+MSURBVIXeyRHt3q5v10gM7CW+AED2Qao76Z/ZJsRkpOrg+9uMjFQuykRkJCwA1CxJAh67JKPd2z31Bx2NwG+yh+SjgKzOseimw8l0xgztLDoCEbUDCwC1aFLfeNw1Mq3NX3/fNRmYPCIhiInaT6rPBzxO0TFUd/m4HqIj/MqUi3uKjkBE7cACQK16YkJnzBnfGeG2lgd4RYRbMP+PWfr69P8TWYZUewyANqvbaeUvtwxGVIR+3uK97MLuOCc7WXQMImoHFgA6o7tHpWHLzP6YOSoNZ6VFIjrcgphIKwb0iML912Zg7+KB+Ms0Hc/25mkA6nJFp1BVRmoM7pkxSHQMAEBEByvm/WWk6BhE1E76+QhButYlPhyzx3fG7PH+57xxo421hKvkLAfCOkKOCJ1PqY/PHI5dB8uxav1JoTleemwszuqVJDQDEbUf7wCQedhPAJ560SlUY7VIWPLsREwc003I8cNsFrw8eyxmXHmWkOMTUWBYAMg8ZBlSzRFIPrfoJKqJjQnH8n9fjjl/GoHoSO0mYDqrVxJWvTkVt08boNkxiUhdfARA5uJ1AbXHgIRsAKExc53VIuHhPw7Frb/rj9fe24MVa45h75FK1Y8T0cGKsednYtplfTDtsuyAposmIvFYAMh8XHZItccgx/USnURVaclRmD1zOGbPHA67w4WiMgfKKp3weAKbDCkq0obOaTFIS45CeBiXWiYKFSwAZE6NVYC1CIhp/2RHRhAbE47YmET07ZEoOgoR6RTHAJBpSfUFkBorRMcgIhKCBYDMrfYE0FQjOgURkeZYAMjkZEi1R4GmWtFBiIg0xTEARLIPUu0RID4bcnhH0WlUUVndgO/2lKCkvB5VtU2K92OzSkhNikL3LnEYek4abFZ+ZiAKFSwARAAg+4Caw0BCXyBMn8vtnoksA++vPIQ3lu1Fzs4ieH3qLoWcENsBl13UAw/8/jwOLiQKAazzRD+RvZCqDwAuu+gk7bbrQDlGXfMebn7wf9i4vVD1iz8AVNub8PaKAxhy5Tu4Z+43aGjyqH4MItIOCwDRqWQfpJrDgMs4YwI+Wn0UF8/4EDv3l2lyPI/Xh9ff/wEXT/8QhaUOTY5JROpjASD6pZ9KQFO16CRntHpjLqbf/yXqG7Sf3njn/jJMvO0jVNuVjzEgInFYAIia8+O6AXCWik7SooPHq3DDfV8G5XZ/Wx05WYPp938JWVwEIlKIgwCpTfJrXHhzaznWHrUjr6YJkgXonh6BCcPicceUNGR16iA6YlBIdbmApxFyx66ApK+57+97ej3q6l2iY+DrzXlYtuowpk3qIzoKEbUD7wBQq2QZeHljKUa8vA8LNpfiYFkDnC4f6ht92HvCiRfeL8KAm3fjH+8XiY4aPA2l/rkC4BOd5GfrvivAmpw80TF+NudfOfB49fP9IaIzYwGgVj2xugBzvy6Ey9vyPd4mtw+PvJ6HBxfmaphMY03VQNVBwCf+EzcALPlkv+gIpzlRUIvNO0O4BBKFIBYAatEXB2rwak7bR5a/uKwYn23S/8A5pSS3A6jcBzSJfU3Q4/Vh1YaTQjM057O1x0VHIKJ2YAGgZskyMO/rwnZv9+gbeSE9IEzyuSHVHATqi4VlyCuqQ1VNo7Djt+T7A+WiIxBRO7AAULN2FTlxrLL9r3cdymvArqP1QUikL5Ij3/+WgE/7yXBKyvX5/S0u02cuImoeCwA1a0+xU/G2Ow6Z5ELQVA2p8gfNFxKq1OGnfwCoqFJ+zhCR9lgAqFmVTuWfbMtrtJ+URhifG1LNIUj2XGj17MOn02cs+kxFRC1hAaBmBTK5jKeVNwZCVkMppKp9gNskdz+IyPA4ERCRWjxOSNX7IUekAB27ApL++nX3jEhMHJHU4r83uX1YtIKv8xGZAQsAkZpkGVJDGeCqhRzbDQiPE53oNH26RuHBGVkt/rvD6WUBIDIJ/X1EIQoF3iZI1Yf8rwx6GkSnISL6Fd4BIF0or3HjrdUVWLmlGocLGlBV60FinA19ukRi8ogE3DghBclxBjxdm+yQmvYCkamQO3YBJKvoRKSRiuoGLP30AFauO4EjuTWoqmlEYnwEemfFY/JF3TH9in5ISogUHZNMzIB/USmUyLJ/BsGnlhbA7vSe9m8llW6UVLqxfrcdf19SgEdndMGsq9L1tiZPG8j+QYJNlZBjOgMRqbpbWIjUI8vAi4t34umFW2F3nD51dEl5PUrK67FheyGeWrgVj9wxDLNuGszTgYRgASBhPF4ZNz91FMvWVZ7xa+1OLx5cmIsdhxz478O9YLMa8C+mz+N/XdBRDDm6ExCZxiIQYjxeH255cDWWrTp8xq+1O1x46PmN2LmvDIvmT4DNyieypC2ecSTMfa+cbNPF/1QffFOJB141+KJDPhekujxIlXv8AwZ1+l4/td/989e36eJ/qg++PIy/PrshSImIWsYCQEKs323Hwk9LFW274OMSrPte7II8qvA2AfaTQPn3kOoLIflMNIFSCNqwvRAL392jaNsFb+/Guu8KVE5E1DoWABJizqL8gLafuziw7fVEkj2AoxCo2A3YcwEPp9Q1otn/2hzQ9nMXbFEpCVHbcAwAaa6owoWcfXUB7WPT3joUlrvQOSVcpVQ6IPsgNZQCDaWALRqISoEckazqhEInihrw6vKWP2m6PHwcoURRmQNbdgW2QuTmnUUoLHWgc1qMSqmIWscCQJrbsMce8GNvWQY276vD1Re1PKudoXnqAXs9JEc+5IhEoEMSENYx4EGDh/OceGaJwcdQ6NCG7UXqnNPfF+HqiX3UCUV0BiwApLmiCnWedReWu878RUbn80JylgPOcsiWMP/Mgm5OLKQ3RWUOVfZTWKLOfojaggWANKfWm28Wk71BJ/ncQGMFrM5q0VGaZbIfx2nU+n+3mO2kJqE4CJA0l54Ups5+kkPo+X87JOl0RsSUpCjREYRJT1XnuX16arQq+yFqCxYA0tzoc2IDvgsgScDI/h3VCWQw6Un6LD7pKea9eI0ekqHOOT0oQ51ARG3AAkCay0gOx4gAL96jzu4YWm8AtEPXtHBdrosw6KxU0RGEyUiNwfBz0wPax8jBGXwDgDSlv78iZApP3pqJ8ffuV7z97JszVUxjLFaLhEnnJ2Dp6nLRUU4z5YIUoLFKdAxh/nbn2Rj/B+WvAs6+vX/L3z+uKElBwAJAQowZGIs7f9sJr35S0u5tZ07thAvPjQ1CKuOYMTFFVwWgZ+cIjOhWC6k2BGZoVGhMTwR0Tl/Uuw6obWF+DBMXKwoePgIgYZ6/KwvTxrbvPf5pY5PwzB1ZQUpkHGMGxmLC0HjRMX4297ZMYy7QpDKe02QkLAAkjM0qYcmjvfHsnVmIi7a2+rVx0VY8f1cWljzamxeaH/3j7izERrX+fdPCpcPiMXVMiE7I1E48p8lI+AiAhJIkYNZV6bhhfAre/qocX+RU43B+Iypr3UiKC0N21whMHp6AGyakICmWp+up+mRG4p3ZvXHFI4fg9YmZwrdPZiSWPNqLqxqfguc0GQXPPtKF5DgbZl2VjllXBTaS2mzGD43H8rnZmPH3I7A7vZoee2CvaCyf2wfxMfwz0hy9nNO+Jhc8dmUzDPqaTDDbponxEQCRwU0aHo81L/bHednavIdvs0q444o0fPtSf2SmdtDkmESkPlZ3ohBwTs8obHplAJatq8R/PivFph/qVH8skBRrw+QRCXjgugz0yYxUdd9EpD0WAKIQIUn+EeXTxiah0u7BtgMOFFW6UFThQkOTT9E+k2Jt6JQUjh4ZHTC0bwysnKueKGSwABCFoKRYGyaer5/XBIlIfzgGgIiIyIRYAIiIiEyIjwBIdfOWFGDekgLRMYiIqBW8A0BERGRCLABEREQmxAJARERkQiwAREREJsQCQEREZEIsAERERCbEAkDN4pSvRKGBv8vUEhYAalZyNKeIIAoFqVyumVrAAkDNGpgeJToCEang3Axtlokm42EBoGadkx6F3skRomMQUQD6pETg7E5cupmaxwJAzZIk4LFLMkTHIKIAPH5JZ9ERSMdYAKhFk/rG466RaaJjEJECM0el4dLsONExSMc4OoRa9cSEzkiJtuHpb4rg8sii4xDRGXSwWfDwuHSWdzojFgA6o7tHpeGK/glYtK0ca4/akVvdhHqXT3QsIvpRdLgFWQkdcHHvWNwyNAVd4sJFRyIDYAGgNukSH47Z4ztj9ng+UyQiCgUcA0BERGRCLABEREQmxAJARERkQiwA+udRuqHLy1H7RKRcgH9DFP/tIm2wAOhfvdINyxxuNXMQkckU212BbF6nVg4KDhYA/VP8S3SyqknNHERkMnk1LAChjAVA/wqUbri9oB41DV41sxCRSVQ3eLA9X/ENSADIVysLBQcLgP4dVLqh2yvj8wPVamYhIpP4bH8NPL6AxgAcUisLBQcLgP7lIYBbaS+sL0GTh7P2EVHbNbp9+Of6kkB2YQfvAOgeC4D++QBsULpxQY0Lz60L6BeZiEzmmXXFKKwN6Pn/egB8DUnnWACM4ZtANn55YwmW/1ClVhYiCmEf7qnCgk2lge5mrRpZKLisogNQmxQBmAVAUrqDVYdq0cFqwfldY9RLRUQhZcmOCtz3WR4Ce/QPGcBdAGpUCUVBwwJgDDUALgHQVekOZBlYf7wOe4qdOLtTFJKiuQ4UEfkdKm/Enz/Nxas5ZYFe/AH/I8t/Bp6Kgk3xJ0rS3AwAi9XYkc0iYWyvWEzMjsPQzGikxYQhIYqFgMgsqpwelNa5sa2gHqsO1mLdMXugI/5PNR3AW2rtjIKHBcA4wuB/raa76CBERC04DiAbnAbYEDgI0DjcAJ4WHYKIqBXzwIu/YfAOgLFYAGwGcL7oIEREv7ANwHD4X10mA2ABMJ4hAHIA8KE9EemFG/6L/07RQajt+BaA8RQBcMH/VgARkR48BGC56BDUPrwDYEwSgBUAfiM6CBGZ3qcArgRn/jMcFgDjigLwFYCRooMQkWltBTAOQEDLBpIYfAvAuJwArgCwW3QQIjKlXQAuAy/+hsUCYGwVAC6A/04AEZFW1gG4CECl2BgUCA4CND4XgGUAkgAMFZyFiELfK/DPTMpP/gbHMQChZRr8v5zJooMQUcgph3+Rnw9FByF18A5AaNkHYBGABACDwIJHRIHzAngdwFQAOwRnIRXxAhG6egB4EMAt8K8jQETUHm4A7wF4CsBBwVkoCFgAQl8nANcBuAHAYPBnTkQt88E/m9/bAN4FUCo2DgUTLwbmkgL/yN2hAPoC6AX/4MEY+OcVICJzcAJwwD+K/wj8K41uhX90f4W4WKSl/wNdXy4df9+3HAAAAABJRU5ErkJggg==;" parent="1" vertex="1">
          <mxGeometry x="92.38" y="1195.32" width="55.25" height="55.25" as="geometry" />
        </mxCell>
        <mxCell id="LN-XwHLoH8wJf_DFHqXR-20" value="" style="rounded=1;whiteSpace=wrap;html=1;fillColor=none;dashed=1;strokeWidth=3;strokeColor=#4A919B;" parent="1" vertex="1">
          <mxGeometry x="177" y="1236.13" width="117" height="109.87" as="geometry" />
        </mxCell>
        <mxCell id="LN-XwHLoH8wJf_DFHqXR-21" value="" style="shape=image;verticalLabelPosition=bottom;verticalAlign=top;imageAspect=0;aspect=fixed;image=data:image/svg+xml,PHN2ZyB4bWxuczp4bGluaz0iaHR0cDovL3d3dy53My5vcmcvMTk5OS94bGluayIgeG1sbnM9Imh0dHA6Ly93d3cudzMub3JnLzIwMDAvc3ZnIiBoZWlnaHQ9IjIwMCIgd2lkdGg9IjIwMCIgdmVyc2lvbj0iMS4xIiB2aWV3Qm94PSIwIDAgMTAyNCAxMDI0IiBjbGFzcz0iaWNvbiI+PHBhdGggZmlsbD0iIzRBOTE5QiIgZD0iTTg4Ni43IDI0Ny42TDcxMy40IDczLjRjLTYtNi0xNC4yLTkuNC0yMi43LTkuNEgxOTJjLTM1LjMgMC02NCAyOC43LTY0IDY0djc2OGMwIDM1LjMgMjguNyA2NCA2NCA2NGg2NDBjMzUuMyAwIDY0LTI4LjcgNjQtNjRWMjcwLjJjMC04LjUtMy4zLTE2LjYtOS4zLTIyLjZ6TTgzMiA4NjRjMCAxNy43LTE0LjMgMzItMzIgMzJIMjI0Yy0xNy43IDAtMzItMTQuMy0zMi0zMlYxNjBjMC0xNy43IDE0LjMtMzIgMzItMzJoMzg0djE2MGMwIDM1LjMgMjguNyA2NCA2NCA2NGgxNjB2NTEyek03MDQgMjg4Yy0xNy43IDAtMzItMTQuMy0zMi0zMlYxMjhsMTYwIDE2MEg3MDR6Ii8+PHBhdGggZmlsbD0iIzRBOTE5QiIgZD0iTTY3MSA2NzJIMjg3Yy0xNy43IDAtMzIgMTQuMy0zMiAzMnMxNC4zIDMyIDMyIDMyaDM4NGMxNy43IDAgMzItMTQuMyAzMi0zMnMtMTQuMy0zMi0zMi0zMnpNMjg3IDQ4MGMtMTcuNyAwLTMyIDE0LjMtMzIgMzJzMTQuMyAzMiAzMiAzMmgzODRjMTcuNyAwIDMyLTE0LjMgMzItMzJzLTE0LjMtMzItMzItMzJIMjg3ek0yODcgMzUyaDE5MmMxNy43IDAgMzItMTQuMyAzMi0zMnMtMTQuMy0zMi0zMi0zMkgyODdjLTE3LjcgMC0zMiAxNC4zLTMyIDMyczE0LjMgMzIgMzIgMzJ6Ii8+PC9zdmc+" parent="1" vertex="1">
          <mxGeometry x="212.75" y="1251.13" width="46" height="46" as="geometry" />
        </mxCell>
        <mxCell id="LN-XwHLoH8wJf_DFHqXR-22" value="&lt;font style=&quot;font-size: 14px;&quot; color=&quot;#4a909b&quot;&gt;socket文件&lt;/font&gt;" style="text;html=1;strokeColor=none;fillColor=none;align=center;verticalAlign=middle;whiteSpace=wrap;rounded=0;" parent="1" vertex="1">
          <mxGeometry x="192.75" y="1295.13" width="86" height="30" as="geometry" />
        </mxCell>
        <mxCell id="LN-XwHLoH8wJf_DFHqXR-23" value="" style="shape=image;verticalLabelPosition=bottom;labelBackgroundColor=default;verticalAlign=top;aspect=fixed;imageAspect=0;image=data:image/svg+xml,PHN2ZyB4bWxuczp4bGluaz0iaHR0cDovL3d3dy53My5vcmcvMTk5OS94bGluayIgeG1sbnM9Imh0dHA6Ly93d3cudzMub3JnLzIwMDAvc3ZnIiBoZWlnaHQ9IjEyOCIgd2lkdGg9IjEyOC4xMjUiIHZlcnNpb249IjEuMSIgdmlld0JveD0iMCAwIDEwMjUgMTAyNCIgY2xhc3M9Imljb24iPjxwYXRoIGZpbGw9IiM0QTkxOUIiIGQ9Ik0yMDguMSAzMDQuOGMzNy4zIDAgNjkuNCA4IDk2LjYgMjEuNnYtMjkuNWMwLTE1LjYtMTIuNy0yOC4zLTI4LjMtMjguM0gxMzAuM2MtMTUuNiAwLTI4LjMgMTIuNy0yOC4zIDI4LjN2MzQuNGMyOS4xLTE2LjYgNjQuNC0yNi41IDEwNi4xLTI2LjV6TTgyMC45IDMwNC44Yy0zNy4zIDAtNjkuNCA4LTk2LjYgMjEuNnYtMjkuNWMwLTE1LjYgMTIuNy0yOC4zIDI4LjMtMjguM2gxNDYuMmMxNS42IDAgMjguMyAxMi43IDI4LjMgMjguM3YzNC40Yy0yOS4yLTE2LjYtNjQuNS0yNi41LTEwNi4yLTI2LjV6Ii8+PHBhdGggZmlsbD0iIzRBOTE5QiIgZD0iTTg0NC41IDQ1NC40YzE0LjgtMTQuOCAxNC44LTM4LjggMC01My41LTE0LjgtMTQuOC0zOC44LTE0LjgtNTMuNSAwLTE0LjggMTQuOC0xNC44IDM4LjggMCA1My41IDE0LjcgMTQuOCAzOC43IDE0LjggNTMuNSAweiIvPjxwYXRoIGZpbGw9IiM0QTkxOUIiIGQ9Ik05NDMuNSA0OTkuOWMtMTQuOC0xNC44LTM4LjctMTQuOC01My41IDAtMTQuOCAxNC44LTE0LjggMzguOCAwIDUzLjUgMTQuOCAxNC44IDM4LjggMTQuOCA1My41IDAgMTQuOC0xNC43IDE0LjgtMzguNyAwLTUzLjV6TTY5Ni42IDQ5NS4yYy0xNC44IDE0LjgtMTQuOCAzOC44IDAgNTMuNSAxNC44IDE0LjggMzguOCAxNC44IDUzLjUgMCAxNC44LTE0LjggMTQuOC0zOC44IDAtNTMuNS0xNC44LTE0LjctMzguOC0xNC43LTUzLjUgMHoiLz48cGF0aCBmaWxsPSIjNEE5MTlCIiBkPSJNNzk1LjYgNTk0LjNjLTE0LjggMTQuOC0xNC44IDM4LjggMCA1My41IDE0LjggMTQuOCAzOC44IDE0LjggNTMuNiAwIDE0LjgtMTQuOCAxNC44LTM4LjggMC01My41LTE0LjktMTQuOC0zOC44LTE0LjgtNTMuNiAweiIvPjxwYXRoIGZpbGw9IiM0QTkxOUIiIGQ9Ik0xNzQuMSAzNzkuNmMtMy45IDAtNy4xIDMuMi03LjEgNy4xdjQxLjljMCAzLjkgMi41IDkuMSA1LjUgMTEuNWwyOC41IDIyLjhjMyAyLjQgOCAyLjQgMTEgMGwyOC42LTIyLjhjMy0yLjQgNS41LTcuNiA1LjUtMTEuNXYtNDEuOWMwLTMuOS0zLjItNy4xLTcuMS03LjFoLTY0Ljl6TTYyIDU1Ni42YzAgMy45IDMuMiA3LjEgNy4xIDcuMUgxMTFjMy45IDAgOS4xLTIuNSAxMS41LTUuNWwyMi44LTI4LjVjMi41LTMgMi41LTggMC0xMWwtMjIuOC0yOC42Yy0yLjQtMy03LjYtNS41LTExLjUtNS41SDY5Yy0zLjkgMC03LjEgMy4yLTcuMSA3LjF2NjQuOXpNMjM5LjEgNjY4LjhjMy45IDAgNy4xLTMuMiA3LjEtNy4xdi00MS45YzAtMy45LTIuNS05LjEtNS41LTExLjVsLTI4LjUtMjIuOGMtMy0yLjQtOC0yLjQtMTEgMGwtMjguNSAyMi44Yy0zIDIuNC01LjUgNy42LTUuNSAxMS41bC0wLjEgNDEuOWMwIDMuOSAzLjIgNy4xIDcuMSA3LjFoNjQuOXpNMzUxLjIgNDkxLjdjMC0zLjktMy4yLTcuMS03LjEtNy4xaC00MS45Yy0zLjkgMC05IDIuNS0xMS41IDUuNWwtMjIuOCAyOC41Yy0yLjQgMy0yLjQgOCAwIDExbDIyLjggMjguNWMyLjQgMyA3LjYgNS41IDExLjUgNS41bDQxLjkgMC4xYzMuOSAwIDcuMS0zLjIgNy4xLTcuMXYtNjQuOXoiLz48cGF0aCBmaWxsPSIjNEE5MTlCIiBkPSJNNzc2LjEgMTYuM2MtOTIgMC0xNjIuOCAyNi41LTIxMC41IDc4LjctNjMuNCA2OS40LTY1LjUgMTYxLjctNjQuNSAxODkuMmgyOC4zYy0wLjctMjEuNyAwLjItMTA4IDU3LjMtMTcwLjMgNDIuMS00NiAxMDUuOS02OS4zIDE4OS40LTY5LjMgNy44IDAgMTQuMS02LjMgMTQuMS0xNC4xcy02LjMtMTQuMi0xNC4xLTE0LjJ6Ii8+PHBhdGggZmlsbD0iIzRBOTE5QiIgZD0iTTgxNC4xIDMxNC4zYy00NC45IDAtODYuNCAxNC4xLTEyMC42IDM3LjloLTIxLjljLTUuMi0xOC4xLTIxLjctMzEuNC00MS41LTMxLjRINTg3di0xLjZjMC0xNS42LTEyLjctMjguMy0yOC4zLTI4LjNoLTg3LjJjLTE1LjYgMC0yOC4zIDEyLjctMjguMyAyOC4zdjEuNmgtNDYuOWMtMTkuOCAwLTM2LjIgMTMuMy00MS41IDMxLjRoLTIxLjljLTM0LjItMjMuOS03NS43LTM3LjktMTIwLjYtMzcuOS0xMTYuNiAwLTIxMS4xIDk0LjUtMjExLjEgMjExLjF2NDI0LjJjMCA0NyA0MCA3OS4yIDkzLjYgMTkuOSA1MC42LTU1LjkgMTkyLjktMTk1LjkgMjU3LjktMjY4LjIgMS0wLjkgMi0xLjkgMy4xLTIuOCAxNC44IDE1IDM1LjMgMjQuNCA1OCAyNC40IDM3LjcgMCA2OS4yLTI1LjggNzguNC02MC42aDQyYzkuMyAzNC44IDQwLjcgNjAuNiA3OC40IDYwLjYgMjIuNyAwIDQzLjItOS4zIDU4LTI0LjQgMSAxIDIuMSAxLjkgMy4xIDIuOCA2NSA3Mi4zIDIwNy4zIDIxMi4zIDI1Ny45IDI2OC4yIDUzLjYgNTkuMyA5My42IDI3LjEgOTMuNi0xOS45VjUyNS40YzAtMTE2LjYtOTQuNS0yMTEuMS0yMTEuMS0yMTEuMXpNMjA2LjYgNzA0Yy05OS4zIDAtMTc5LjgtODAuNS0xNzkuOC0xNzkuOHM4MC41LTE3OS44IDE3OS44LTE3OS44Yzk5LjMgMCAxNzkuOCA4MC41IDE3OS44IDE3OS44UzMwNS45IDcwNCAyMDYuNiA3MDR6IG0yNzAuMS04My4zYzAgMy43LTIuOCA1LjYtNi4zIDQuMmwtNDMuMS0xOGMtMy41LTEuNS0zLjUtMy44IDAtNS4zbDQzLjEtMThjMy40LTEuNCA2LjMgMC40IDYuMyA0LjJ2MzIuOXpNNTk5IDYwNi45bC00MyAxOGMtMy41IDEuNC02LjMtMC40LTYuMy00LjJ2LTMyLjhjMC0zLjcgMi44LTUuNiA2LjMtNC4ybDQzIDE4YzMuNSAxLjQgMy41IDMuNyAwIDUuMnpNODE5LjkgNzA0Yy05OS4zIDAtMTc5LjgtODAuNS0xNzkuOC0xNzkuOHM4MC41LTE3OS44IDE3OS44LTE3OS44Yzk5LjMgMCAxNzkuOCA4MC41IDE3OS44IDE3OS44UzkxOS4yIDcwNCA4MTkuOSA3MDR6Ii8+PC9zdmc+;" parent="1" vertex="1">
          <mxGeometry x="208.75" y="1173.63" width="50" height="50" as="geometry" />
        </mxCell>
        <mxCell id="LN-XwHLoH8wJf_DFHqXR-24" value="&lt;font style=&quot;font-size: 14px;&quot; color=&quot;#4a909b&quot;&gt;socket_fd&lt;/font&gt;" style="text;html=1;strokeColor=none;fillColor=none;align=center;verticalAlign=middle;whiteSpace=wrap;rounded=0;" parent="1" vertex="1">
          <mxGeometry x="190.75" y="1150.13" width="86" height="30" as="geometry" />
        </mxCell>
        <mxCell id="LN-XwHLoH8wJf_DFHqXR-25" value="&lt;font color=&quot;#808080&quot;&gt;内核空间&lt;/font&gt;" style="text;html=1;strokeColor=none;fillColor=none;align=center;verticalAlign=middle;whiteSpace=wrap;rounded=0;" parent="1" vertex="1">
          <mxGeometry x="203.75" y="1316" width="60" height="30" as="geometry" />
        </mxCell>
        <mxCell id="LN-XwHLoH8wJf_DFHqXR-26" value="&lt;font color=&quot;#ffffff&quot;&gt;socket&lt;/font&gt;" style="rounded=1;whiteSpace=wrap;html=1;strokeColor=none;fillColor=#4A909B;" parent="1" vertex="1">
          <mxGeometry x="186" y="1226.13" width="97" height="18.63" as="geometry" />
        </mxCell>
        <mxCell id="LN-XwHLoH8wJf_DFHqXR-27" value="" style="endArrow=none;html=1;rounded=0;strokeColor=#FDD276;startArrow=classic;startFill=1;strokeWidth=2;dashed=1;" parent="1" edge="1">
          <mxGeometry width="50" height="50" relative="1" as="geometry">
            <mxPoint x="233.64999999999998" y="1251.13" as="sourcePoint" />
            <mxPoint x="233.64999999999998" y="1206.76" as="targetPoint" />
          </mxGeometry>
        </mxCell>
        <mxCell id="LN-XwHLoH8wJf_DFHqXR-28" value="&lt;font color=&quot;#808080&quot;&gt;用户空间&lt;/font&gt;" style="text;html=1;strokeColor=none;fillColor=none;align=center;verticalAlign=middle;whiteSpace=wrap;rounded=0;" parent="1" vertex="1">
          <mxGeometry x="204.61" y="1069" width="60" height="30" as="geometry" />
        </mxCell>
        <mxCell id="LN-XwHLoH8wJf_DFHqXR-29" value="&lt;font style=&quot;font-size: 14px;&quot; color=&quot;#4a909b&quot;&gt;客户端B&lt;/font&gt;" style="text;html=1;strokeColor=none;fillColor=none;align=center;verticalAlign=middle;whiteSpace=wrap;rounded=0;" parent="1" vertex="1">
          <mxGeometry x="78.5" y="1274.9499999999998" width="86" height="30" as="geometry" />
        </mxCell>
        <mxCell id="LN-XwHLoH8wJf_DFHqXR-30" value="" style="rounded=1;whiteSpace=wrap;html=1;fillColor=none;dashed=1;strokeWidth=3;strokeColor=#4A919B;" parent="1" vertex="1">
          <mxGeometry x="898" y="938.97" width="115" height="177.46" as="geometry" />
        </mxCell>
        <mxCell id="LN-XwHLoH8wJf_DFHqXR-31" value="" style="shape=image;verticalLabelPosition=bottom;labelBackgroundColor=default;verticalAlign=top;aspect=fixed;imageAspect=0;image=data:image/svg+xml,PHN2ZyB4bWxuczp4bGluaz0iaHR0cDovL3d3dy53My5vcmcvMTk5OS94bGluayIgeG1sbnM9Imh0dHA6Ly93d3cudzMub3JnLzIwMDAvc3ZnIiBoZWlnaHQ9IjEyOCIgd2lkdGg9IjEyOCIgdmVyc2lvbj0iMS4xIiB2aWV3Qm94PSIwIDAgMTAyNCAxMDI0IiBjbGFzcz0iaWNvbiI+PHBhdGggZmlsbD0iIzRBOTE5QiIgZD0iTTY5MS4yIDY0SDMzNWMtNTguMiAwLTEwNy41IDQ3LTEwNS4zIDEwNS4zdjY4NS40YzAgNTguMiA0NyAxMDUuMyAxMDUuMyAxMDUuM2gzNTRjNTguMiAwIDEwNy41LTQ3IDEwNy41LTEwNy41VjE2OS4zQzc5Ni41IDExMSA3NDkuNCA2NCA2OTEuMiA2NHogbTYyLjcgNzkwLjdjMCAzNS44LTI5LjEgNjIuNy02Mi43IDYyLjdIMzM1Yy0zNS44IDAtNjIuNy0yOS4xLTYyLjctNjIuN3YtNDdoNDgxLjZ2NDd6IG0wLTkxLjhIMjcyLjNWMjU2LjZoNDgxLjZ2NTA2LjN6IG0wLTU1MS4xSDI3Mi4zdi00MC4zYzAtMzUuOCAyOS4xLTYyLjcgNjIuNy02Mi43bDM1Ni4yLTIuMmMzNS44IDAgNjIuNyAyOS4xIDYyLjcgNjIuN3Y0Mi41eiIvPjxwYXRoIGZpbGw9IiM0QTkxOUIiIGQ9Ik01NDUuNiAxMjIuMmgtNjkuNGMtMTMuNCAwLTIyLjQgOS0yMi40IDIyLjQgMCAxMy40IDkgMjIuNCAyMi40IDIyLjRoNjkuNGMxMy40IDAgMjIuNC05IDIyLjQtMjIuNCAwLTEzLjQtOS0yMi40LTIyLjQtMjIuNHpNNTEyIDkwNGMxNy45IDAgMzEuNC0xMy40IDMxLjQtMzEuNCAwLTE3LjktMTMuNC0zMS40LTMxLjQtMzEuNC0xNy45IDAtMzEuNCAxMy40LTMxLjQgMzEuNFM0OTQuMSA5MDQgNTEyIDkwNHoiLz48L3N2Zz4=;" parent="1" vertex="1">
          <mxGeometry x="1023" y="1054.54" width="114" height="114" as="geometry" />
        </mxCell>
        <mxCell id="LN-XwHLoH8wJf_DFHqXR-32" value="" style="shape=image;verticalLabelPosition=bottom;labelBackgroundColor=default;verticalAlign=top;aspect=fixed;imageAspect=0;image=data:image/png,iVBORw0KGgoAAAANSUhEUgAAAgAAAAIACAYAAAD0eNT6AAAABHNCSVQICAgIfAhkiAAAAAlwSFlzAAAOxAAADsQBlSsOGwAAABl0RVh0U29mdHdhcmUAd3d3Lmlua3NjYXBlLm9yZ5vuPBoAACAASURBVHic7N13mBRV1sDhX1XnyYmchpyj5CwiZkUBUQyYd3WNq6urq67u6q7sqp+7rlnMgmLGrCiSREUQARWJimSYwOSO9f3RoIgDTFfd7urpOe/z9CNC31tnerq7Tt2691wNIUR95gEK9z6aA/lAI6Bg75/3PTyABuTsbecG0vf+uRII7P1zKWAAfqBov8duYNfeP28FNgI/7n2eEKIe0uwOQAhxWDrQDugN9AA6AG33Ppph3+fYALYRTQY2AuuAlcDXe/8/YlNcQog6kARAiOTiAHoBQ4me8HsRPemnH6pREqoAviGaDHwNfEo0OQjbGZQQ4heSAAhhr3SgLzAMGL73v7m2RhQ/lcByYCGwaO9/S2yNSIgGTBIAIRKvHXAScCIwkuj9+IYoTDQheAt4E1hG9LaCEEIIkRLSgUnAE0Qn0BnyqPWxBZgOTATSTL3SQgghhM28RK/ynwHKsP/kWt8eVURHBc6l/s1/EEII0cA4iA7rP4ec9FU+yoBngRP2vsZCCCFEUmgB3AD8gP0ny1R/bAXuIroEUgghhEg4F3Aa8C7RyWx2nxgb2iO897U/be/vQgghhIirTOAqolXw7D4JyiP62AbcRuounxRCCGGjZkRPMiXYf8KTR+2PMuA/QJvaf4VCCCFE3XUHZgBB7D/ByaNujwDRiZhda/l9CiGEEIdUCDwChLD/hCYPc48wMAvohBBCCHEYrYme+OWKP3Ue+xKB9gghfialgIWIyiN6j/931LfSvG4HNMuCppmQlwY5PsjyQLYXsryQ64O0vT+SzwUODd3pxJeZgc/pQ68OYYQjEI5gVEV3BTaq/ESKq4jsqSKypzr635IqIkUVhLeWEt5aihEI2fhDmxIAHgJuR/YgEEISANHgOYHfEz0p5Nkcy6FleaFDPrQvgJbZ0CwzeuLPT6/bJ1kDj+7G5/TicVjMcQwI7y4nvKUkmhBsKia4ZjuhtTuIlFVb6zv+ioBbgUeJ3uIRokGSBEA0ZOOA/wO62R3Ib/hc0L0JdG4M7fOjj8YZprrSAI/DS7rLh1OPfyG98I4yQmu2E1y7g+B3Wwmu3IJRHYj7cU1YBVwDzLE7ECHsIAmAaIhaAf8DTrY7kJ/5XNC9KfRqCj2bQccCcOiWutQ1nTSnD5/Lg461viwJRwiu3kZg+U8Elm8iuHJzsiUErwFXEN2MSIgGQxIA0ZDowKXAP4Asm2OJDt8Pbg2D20Sv9i2e8PfRNZ10pw+f04eWjJ/wcITA1z/hX7QW/6J1hLeV2h0RRGsI3EB0AqhhcyxCJEQyfj0IEQ9dgceAYbZG0bEAhhZGT/qFagvX7bviT3N60ZLyzF+70Pqd+Betw79gDcE12+0OZwFwCbDa7kCEiLf68y0hhDlO4M/AzYDHlggaZ8CYDtFHqxzl3WtopLvSSEvWK/4YhH4soub9ldR8+C3hnWV2hVED3AFMQyYJihRWz78uhDikdkQrwg1J+JG9ThjRDo7qGL2vH6czs8/pJcOdZu89/niIGAS++pGaD76h5pPVGDVBO6JYBJwDbLTj4ELEmyQAIlVNIrrMS/0l96E0zYTju8CxXSAzfgMOHoebDHc6Ti3+s/rtZlT6qX53JVUvf2nHfIEy4E9E30tCpBRJAESqyQYeAM5K6FG7NYHxPWBoG2WT+Wrj0BxkutOtr+Ovj/aOClS9/CX+xesSPVXvZaJFoooTelQh4kgSAJFK+hP9om6T0KP2agbTToj7YdKcPjLcaWjysaX48ucIrtyc6MP+AEwAliX6wELEQ4rdOBQN2DnAfOzYCnb1TohjWVyXw0m+N4dMd7qc/AGjJkho9TY7Dl0IfApcZMfBhVBNEgBR33mI7gH/DOCzJYJAGL7dqbxbDchwpZPnycGpO5X3X18Fvv4JIxi26/AeostJH6G+7RkhxAEkARD1WSuiV/1X2h0Iq9SuX3fqTvK8OaS77MlpkllwxU92hwDRWgHzgBZ2ByKEWZIAiPqqF9Hh2IF2BwLAhiI1/WiQ7koj3ytX/QcTWrvD7hD2GQwsAY6wOxAhzJAEQNRHxwALgZZ2B/Kz9dYTAF3TyfVkkeFKUxBQ6gquU3+7xYJmREcCTrI7ECFiJQmAqG8uB94GMu0O5Fd2VkC1+WI1bt1Fvi8Hty63lQ/FqKghUlRhdxgHSie6odCldgciRCwkARD1hQ7cC9wPxKX6Tbu2HfB6Ldxz31VpqlmGK41cT3bqVfOLg/DOctNtvV4f7dp2UBjNrziAB4F/I9+rop6QN6qoDxzAdKJ7tyunaRpTz76ATz5YRNvCtuY72hXblamGRo4nk3RXmlTkqKPwDvP7A7Rv254FH33GVX/4I7oet6++64Bnie5BIURSkwRAJDs38CJwXjw6b9O6kDdeepd7/3U/6ekZtC1sb76z4qo6P9Wh6eR5s/E47NmfqL6KFJsf/i8sbIfX6+PWv/yd1158m9at4lYyYgowE1kmKJKcJAAimfmI3ludEI/Op559AfPnfM6woSN+/rvGjRqb77CmbsWA3LqLPG+uzPI3wajja1ybJo2b/Pzn4cNGsuCjLzhnynkKoqrVROBV7KpNIUQdSAIgklU6MBs4XnXHGRkZPPbQU9z7r/vJyMj49UHT08137D/8ycnr9JDrzUav7/v22sTwm59oeeDvNiMjg/vufoBnps8kOyvbami1OQF4l2SbsCrEXnIJIpJRGtEvzhGHe2KsenbvxROPPnvQyWCWJgEGDl2dLs3pI9NtIcGIUXhrKaEfdhPeVETopxLCm4uJlNdgVAcwymt+3mJX87rQMr1oPjd6phdHyzycrfNwtM7H2SYfR/PEbqh4SBYqAHo83lr//oTjTqZL566cf/HZfPPdKtP9H8Qo4C3gOKDu94iESABJAESycRPd0Ef5yf/0iWdy77T/4vMdfJ19dXW1+QN4D/5xynJn4HPWfgJSJbyjjMCyHwgs20Rg2Y9EdtdtxrwRDEN5zS9/sXzTr/5dL8jE3a9N9HFEGxyNs1SGHRPN6zLdtqbm4L/b9u068uE787jtjlt4dPqDpo9xECOBN4jWCqg5zHOFSBhJAEQycQEvEb1aUsbj9nDPtP9y5uSzD/vcigrzy8xI++3JSdM0slwZeJ3xmexnVPrxL1xL9furCCz7IS5b5EZ2l1PzwSpqPoheHbs6N8U7rgfeo7ujZyf2FreWZn5eXUXFoScQejxe/vn3f9Oje0+uu+EqAsGA6WPVYizRiYGTgPjtHCVEDCQBEMnCQXT51MkqOy3IL+Dp6TMZPHBonZ5fXGJhu/cDTk4akO3OxONQPxk8tHYHlTM/w79gLUYcdyKsTfD77QS/307FI5/gGdGJ9CmDcHZocviGClhJAOr6uz3rjHNpW9iO8y6aQlGxohLPUeOJblp1NhBR2bEQZkgCIJLFI8BklR126dyVGU+/TJvWhXVus37DWvMH9P0yAqChkePNwq2bH7KuTXDlZipnfIZ/8bq4XO3HwgiEqPnoW2o++hb3EYVkXDgCV/f47o2j+cwnAOvX1/13O3TwcN5/6xPOOm8S369ZbfqYtTgTKAd+p7JTIcyQVQAiGdwCXKiyw7FjxvHe7LkxnfzD4TAbNm4wf9BG0RUFGhq53mylJ//wlhJKr59F8eXP4f/U/pP/gQJLf6D4smcp/fNLhLeWxu04jibm5x+s37ieSKTuF95tC9vx3uy5jBk91vQxD+IS4CbVnQoRK0kAhN0mA7er7HDSaZN57slZZGbGtvrqu++/xe83OUdL06B5FpqmkePNxKVojb8RDFM54zOKzpuO/3MLyUmC+Bevp+i8x6l4cmFcbk04WuaBbm4JZU1NdcxX81lZWbzw7KtMmXyOqWMewh1EbwUIYRtJAISdRgBPo7AQ7oXn/44H//s4LlfsV9/zF8w1f+CmmeB2kO3OVLahT/D77dGT6SOfJPw+vxWGP0TlUwspuuAJgmu2K+1b8zgtrUJYsOiTmNs4HA7+e+9DXPa7K00ftxYa0fLWR6rsVIhYSAIg7NIFeB1QNj3+hmv/wr/uvNd0nff5Cz8xf/AW2eR41E34q35zOSV/eJbw5hIl/dkh/FMxJZc9S9XLXyrt19E6z3TbeQs+MdVO0zT+/td/cv21Skfu3URXvXRS2akQdSUJgLBDDvAmYP6bfD+apnHXHXdb+nIuLilm3nzzIwCers2V1PU3Kv2U3vwqZXe/F12fX88ZwTDl989hz19fx6hWs6zO1amp6bZzP5lD6R7zcxRuuPYv/PPv/0ZTV8kxn+hnIS6lCIU4FEkARKJpwBOAkn1ZNU1j2h33cPEF1rZif+31lyyt+07rb2ETob0iJZWUXD0T/4I1lvtKNjWfrKbkqhlESqwXw3P3M7+Jjz/g5/XZr1g6/iUXXsZdd9ytMgnoRHQJrNSHFgkVl33VhTiEWwFrZ+v93HHbXVxy0WWW+jAMg2v+dDk7d+001V7zOMm86mg0h/l8Orx9DyXXzCS0cZfpPpJdpKgC//zv8Qxpj55lvoCQnp9B1YtfQNjcUvrt27cy9ewLLJ3A+/XtT3p6BnPnfWS6jwN0BoLAAlUdCnE4kgCIRDoaeAxFI083//k2rrjsGsv9vP/hOzz82AOm27v7tMZ3fC/T7UObiim54nki2/eY7qO+MMprqJn3PZ4hHUxXEdScOoGlPxA2+Xrt2LmDfn37076dtUGogf0HkZGeqTIJGA0sAdap6lCIQ5EEQCRKO+BDohv9WPbn627m2qtvsNyPYRhceuVFbN++zXQfaRP74+rW3FTbyO5ySq6eSWSXhRLE9YxRFSCwcA2e0V3Q083NmzDKqwks2Wg6hh82beTsM6daHsYf2H8QhmHw6eKFlvrZSwOOBWYB8SumIMRekgCIRHAS3RGto4rOzjvnQm6/9R8quuL5F57hyWceN9+BQyf7huNNVagzKv2UXPsC4U0Wyg/XU0ZVgMCXG/GO6Ybmib1mgqN5DlUvfQmGuYpIW7dtobBNW3p072mq/f6GDx1JcXExy5YrWe2QBgwDnkLKBYs4k0knIhH+DtysoqPjjjmRpx+fgcNhPXctLilm8Ig+luq9e4a0J+euSTG3M4JhSq6ZSXDlZtPHrguHw0GP7r0YMmgYnTt1oUP7jrRo3pLs7BzS06JbE1dWVbJnTymbt/zE+g3r+H7Naj79bCGrvlkRU+U8M9y9W5F775ngjP2uUOn1sywVRyooaMTnC5aTk219u+NwOMy5F5zBex++Y7mvvW4HblPVmRC1kQRAxNswYB4KRpv69O7Hm6+8R9reE5cVhmEw9aIpvP3ubEv9ZN82Hu+RXWJuV/7AR1TNWmLp2AfjcDgYPXIMp0+cwtgx40yf4EpKS5jz8QfMenkG8xbMJRyOz7LE9DMHkfH72Ovh1Mz5lj1/t/b7O/nEU3ny0ecs9fFzPDXVjJ90AkuWfq6iuwgwhuhnR4i4kARAxFM2sBwotNpRm9aFvP/mXBo1amw5KICHHr2fm2/7s6U+HI0yyZ/5ezRXbLmNf9FaSv/yivJ6/unpGZx/7oX8/uLLadbU3JyEg9m2fSsPPXo/Tz4znaqqSqV9o0HOPyfhGRLbUkojGGb3GQ8T2W1t/sS0O+/hovN/b6mPfYqKizj2pDFs2KhkHt9GoA9QpqIzIQ4kcwBEPD1BtNyvJVlZWbz5yvu0atlaQUjw4Ufvc9V1l1ke3s64cCTuni1jahPeUUbp9bMw/OpK+zqdTn530R94evpMjj/mRDIzYtsDoS4yMzI5ctRYpp59AYFAgK9XfKX09kDgi434xnVHS6v7pEDNoaNpWJoMCDBvwVz69e1P28J2lvoBSPOlceSoo3jx5RkEApYLH+UCLYHXLAcmRC0kARDxcgpwp9VONE1j+sPPMGjAEAUhwdJlSzhz6kTzm/7speemk33TiWjO2D5CZf94i9A6c/UGanNEvwHMfOYVzpg0BZ/P/Nr6ukrzpXHUkUdz7LgTWLHqa7Zt36qkX8MfIry9DO+YrjG1c7ZvTPWbyy0lVJFIhHfee4tRI46kWTPrIyf5efl06tjZcsGhvXoDy4DUqw4lbCcJgIiHbOBtwPyuLXtde/UNXDD1YusRAYs+XcAZ555GRUWF5b7SzxuGu29sFen8i9ZS+ZSS5WJomsYlF17GYw89RbMmzZT0GYsmjZswZfI56LrO4s8XYZicjb+/8I9FuLo0w9mq7hWiNacDwgaBZT9aOnYwGOCNt15lwBGDaN3KfKXBfTp26EwgGOCzzz+13BfRUbTpgF9FZ0LsIwmAiIf/oGCXs7FjxnHfvx9QUnL19dmvcN5FU6iqsl6K1tEyl+wbT4yp8p9RE6T0xpcxKqx/h3u9Pp545BkuveQKJashzNJ1neFDR9K1czfe/eAdwmHrtzWC327Fd3KfmF5bV+dm1Mz5FqPC2qiO3+/n1TdepmOHTnTuFNtIRG2GDx3J0mVL2PiD5W2cs4gm1cqWGAgBkgAI9UYC92Nxgmmb1oW8PHO25WHtQDDALbffyF///hdCCk5QADm3nIKzdX5MbapmfK6kxn92VjYvPvcqY0YfbbkvVTp36sKQwcN4+93Z+P3WEhyjvAYtzR3T3ArNqeNonkPNR99aOjZAOBxi9luvUVZexvBhIy0lWJqmcfRRx/LGm6+yx8IGRHsdAXwE/GS1IyH2kc2AhEpeoqV+LZ38nU4njzzwhOX12V+v+IpjTxrDI48/oGSIGsA7ugvugW1jamNUB6h6yfqSv/T0DF6eOZshg4ZZ7ku1oYOH8/KM2UqWaFbN+gKjJhhTG8/QDnhGqNlV1zAMHnr0fo47+ShWrPraUl+5Obk8/L/pOJ2xFzs6gE70s6Vs+2whZARAqPRnIPaqOAf40zU3cvqEM0233717F7fdeQvX3nClsklqAHpOGjl3TkBLi63qX/UrX+JftNbSsV0uF89Mf4FhQywvqoib5s1a0L/fAF5/4xVLNQOMmiB6Thqu7i1iaufq0YKa91cpW2Gxfcc2npvxFEXFRfTp3Y+0NHNVrFs0b0kkEmHRYsv7/DQCKgE1E0lEgycJgFClBfAiEHtN3P0M7D+Y+//vYXQ99sGpLVs3M+3uO7n0yov4Yslnyq76AdA1sm8/FVenJjE1M4Jh9vztDYwqa0vC7rrjHiacerqlPhKhTetCMjIy+Gjuh5b6Ca3fRdqp/WKaC6Cne3AWFlDzsfVbAfsYhsGyr77kiacfo7i4iC6du5KZGfvc1sEDhzJv/ly2bttiNaRBRMsEW5/JKho8KQQkVHkGOMdKB5mZmXzywWIK29R9iL2ouIg5H73Piy/PYMGieXErXZt+1mAyLhkdczsV1epOOek0nnjkWUt9JNrUi6bw1jtvWOoj+6+nxLwsEKD8oblUvaCkGt9v6LrOyOGjmTxxCkeNGUd+Xt3ngvzw40ZGjxtCebnljZ+eAs632okQkgAIFQYBi7H4furdqy9nnXEuHTt0olXLVmRl5ZCRkYGmaVRWVlJaWsKWLZtZt2FttF794gV8890qtVf6tXD3aU3uvWdADFej+5T8aRaBL8zPAm/cuAmfzf+K7Kxs033YoaS0hMEj+rC7aLfpPjyD25MzzcQdpVCE4mtmElwR3/lyuq7TvWsPhgweTudOXejYvhPNm7cgJyeX9PR0DMOgoqKCsrJSftr8E+vWr+X5F55h+dfLrB46AgwmunWwEKZJAiCs0oie/AfZHUg8ONs2Ivf+s9AzvTG3jeyuYNekByBiPkF56P7pnD7hDNPt7TTjxWe54hoLJXYdOo1e/gN6XuwTC41KP8VXziC0bof54ye3xUT32Yhv9itSmqwCEFZNJkVP/o6m2eTeM9nUyR+gZs43lk7+A/sPZtJpk023t9uZp59Nv779zXcQjlAzx9z9fC3dQ+60iTia1q+RkxgMASbaHYSo3yQBEFY4SNEtS/WCDHLvnoyen2G6D//i9ZZiuO6aPyspgmQXTdO49uobLPXh/8z8a6gXZJLz78noBeZ/h0nudmQit7BAEgBhxTlAZ7uDUM3RPIe8+8/GEUNJ2gMZ/hDBb8zP+O7VozdjRo813T5ZHDP2OHp062m6fXDlZoyA+WV9ztZ55D1wDs7W5n+XSawrYH69rGjwJAEQZrmAW+wOQjVXl2bkPXQujubWihAFV27GCJpfCz/1nAvr9dX/Ppqmce7ZF5hubwSsJVKw91bOA+fGXFegnvgrYLnKkGiYJAEQZp0PWN8/NYl4j+pK7n+moOeYK/iyv8BX5jen8Xi8jD95guUYksVp4yfhdpkvD2F1ox8APctL7j2T8Y7uYrmvJNMBmGp3EKJ+kgRAmOEBbrY7CFU0t5Osa48l+9ZT0LwuJX0G12w33XbM6LGWyyAnk9ycXEaPGmO6feh786/l/jSfm+zbx5N5zTg0d0pdNN9MdEROiJhIAiDMmAK0sjsIFfTWeeQ9dC6+k/so7Tf8Y7HptqNGjFYXSJIYOXy06bahn8y/lrVJG9+PvAfPiXlDpyRWCNTPtaLCVpIACDOutjsAy9xOtLOPIH/6hTg7NFbateEPEd5VZrr98KGjFEaTHEaOML87dHj7HksTAWvj7NiE/CcvJPOKsWg+S9Wrk8WfkLouIkaSAIhYHQv0sjsIS4a0gccmknH+cHS3+lVU4c3Fptf/e70+OndKufvUdO3cDY/HXD0FIgbhLZa30/0tp07axP7kP3kBnmEd1fefWD2B+r9sRCSUJAAiVtfZHYApGjCoNdx3Mtx6NHqTLHxOX1wOFd5h/uq/fdv2pjZCSna6rtOurfk5o+EdexRG82uOZjnk/GMC+dPPj04SrL/X0fXzsylsk1IzYUTc9QaOsjuImLidMKwQJvWCtr+sBU9z+uL2PW9Um9/5r337en8lelDt23Xku9XmKvsZldZ2U6wLZ4cmZN8+nvR1O6mc+Rn++WuU33qIs6OJjs6tsDsQUT9IAiBiYe3ev9sJwVD8q5drQPemMLYjDG8L6e4D/lnD5/LE7fBWtv7Ny03JgjWAtZ/NSlIVK2eHxmTfcjJGpZ+auaupfn8VwZU/xf99q2toLgeG33TSoQFXAReqC0qkMkkARF1lA9Y2pL90MAxqA0s3w5Kf4JvtUFSlJrrGGdC7efTRpznkH3wtv8/pRY/j3S8rCUBGRsqWrSUjI9N0W6PKrzCSutHSPfhO7I3vxN6Ed5UTXPYjgb2P8E7zt3n252iUiatXSzyD2uMe2Bb/orWU/fs9K11OBq4B1AQoUpokAKKuzgLMV8jJ8cGYjuB2RK/Mx+4d6i6ugrW7YWMx7KiAneWwqxKqguAPQVUAdA3SXJDmjj4y3dAiG1rmQKtsaJUDTep+cklzxefe/z4WruDMT5SrB3w+86+7UWPvULyjUSaOY3rgPaYHAOFtpYQ2FRP+cTehn4oJbyomUuHHqPJjVNRgVAcxwhH0dA94XOjpbvQmWTiaZONomo2zXSNcXZr9ZqdD77geVDw+n0iJ6cQ4negy3Yet/LyiYZAEQNTVRZZan9QtevI/UF5adHLeoNaWuq8rj8ONQ4vvJDvNY/5j5ffXKIwkuVRXV5tuq3mT66vK0SwHR7McGKS2GKbmdpI2vh8VTy600s1FSAIg6iD1phuLeBgI9DXd2u2A45JjaZvPGf8rbC3N/LryiooKhZEkl4qKctNttbT4zdlINr7x/SwlkcARQD9F4YgUJgmAqIuLLbU+uhPkxnfYvS4cmo7HEf+iL1YSgOIStVXvkomVn83Ka1rf6DlpeMf1sNqNtRE70SBIAiAOx4uVyX+aBuMtf5kp4U3A1T9gqbLc+vVrFUaSXNZvMP+zNaQEACDt9AFW6xGcATSsF03ETBIAcTjHAlmmW/dtDi2z1UVjQSKG/wEcTcy/XOs3ricSiSiMJjlEIhE2bNxgur2jSXK8hxLF2Tof9xGFVrrIBcapiUakKkkAxOFY22RkXCdFYVjjTsDkv30cLfOiKxdMqKmp5vs1qxVHZL9vV39jfoKjruFokTq7I9aV7zjLFbcnq4hDpC5JAMShpAEnmG6d7o7W3U8C3gTc+99H8zhxNDY/CrBg0SfqgkkS8xfMNd3W0TQ71bbvrRPPyE5oGZZGrU4B7J98I5KWJADiUE4EzFemGd0+Wv3PZpqm4XEkdha5o7X5qnfzFnyiLpAkMX/hJ6bbOlulbnXEQ9HcTrxHWlo9k0n0Fp4QtZIEQBzKJEutxyZHXXu3w42uJXaHF1enpqbbzv1kDqV74rD7nU2KS4qZN9/8CICzSzOF0dQvvuMt3wawVr1TpDRJAMTBuIFjTLdukQ2dG6uLxgKvnvjJ0O5+5m99+AN+Xp/9isJo7PXa6y8RCJovj2zltazvXN2a42yTb6WL4wGXonBEipEEQBzMCKJDiOZ0b0L8d085PA0Ssvb/QK4eLS3dt3762ekYhv2vn1WGYfDM80+abq95nLi6NVcYUT0TMXB1b2GlhyxgqKJoRIqRBEAczHGWWn+wBi5+Gd5dDSH7lrW5HG60BA//g/UT14pVXzPn4w8URmSP9z98h1XfrjTd3moiVV8ZwTDVby6naOpjVL9jeXdfa59lkbIkARAHY/1LY8se+O9CuHAWfLTWlgEBj8O+0U/PsA6W2t993131ehTAMAzuvm+apT48Q629hvWR/9N1FE19nLK73yO0SUllSJkIKGolCYCoTSugm7LedlbA3fPg+reiSUEC2TH8v4/36O7gMP8R+3LpF8x6eabCiBLr+Ree4avlS8134NDxjumqLqAkF95aSskfX6D0xpcJbylR2XUvwNJ9BJGaJAEQtYnPkOGq7fCH1+DNb+PS/YGcugOHVssOhAmi56bj6V9oqY9b/35TvVwRUFxSzN/uvMVSH56BbX+zXW6qqnplKUXnTyew9Id4dK9hZUKvSFmSAIjajIlbz/4QPPgp/O1DqDQ/M7wu3DZe/e9jdVOX3bt3cc2fLlcUTWIYg9tdTgAAIABJREFUhsHV1/2BouIiS/14j+mpKKLkZVQF2HP7G5T/90OMmmA8D3VkPDsX9ZMkAKI28Z81vPhHuPbN6O2BOHFr9k8e84zqjF5gfjEFwOy3XuPxJ+vP9u4PP/Y/3n53tqU+HI0y8QxPjjoS8RLZXU7xFc9T8/F3iTjcsEQcRNQv9o2PimTVCrgtIUfaUwMLNkK/FpCjuGKpBpmeDDSLW6pZDsOho2kQWLLRUj/zFsylT+9+tGvbXlFk8fHhR+9z1XWXWd7QKOOikbh7tFQUVfIJrdtJ8VUzCG9Weq//UHKBx4DyRB1QJD8ZARAHGp7QoxVVwp/fgR+UzHb+mVNzoifJ29t3cl/0bGsJTjAY5ILfncOyr75UFJV6S5ct4YLfnUMwaG0oW89Nx3dCb0VRJZ/Q+p2U/HEmkd3xG/06CBkFEL+SHN+QIpkkvmjInhq48V2lKwTcNi7/O5DmdZF2+kDL/VRWVjDhzJNYtHiBgqjUWvTpAiZOOZmqqkrLfaVNHoDmTZ7fn0qhTUWU/PEFInuq7Ti8JADiVyQBEAdK7AjAPqXVcPN70WRAAZdu//3//aVNGoCjmfUtbcvKypg0ZTyz33pNQVRqvD77FSZNOYWysjLLfTla5pI2ob+CqJJPpKya0htfJlJaZVcI9ny2RdKSBEDszwtYm7ZuxfZyuGMOhK1XDnTpyXUFqXmcZP1xnJK+/P4aLvjdOdx4y58s1di3KhQK8bc7b+GiS6fiD/iV9Jl5xdjUrPwXilB60yuJvOdfm15AYrfFFElNEgCxv+6Avd++q7bDc8ssdaGj49CS763tHtgOz4hOSvoyDINHpz/IcScfxYpVXyvpMxZfr/iKcSeO5j8P3KusWqF3dBc8g5N7kqNZFdPnE1y52e4wXICl/YVFakm+b0lhJ/uu/vf34tfw9VbTzZ1JNvy/v8wrx6JnqVvxsPzrZYw9bgR/vvk6dhftVtbvwezevYvr//JHjj5hFF+v+EpZv3pOGplXjFXWXzIJLP2Byhc+tzuMfSzvLyxShywDFPubCgyxOwgAVm6HY7uAM/Yc1et0J0URoNro6R6chQXUfKyuGqJhGCz76kueePoxiouL6NK5K5mZWcr6B9iydTPT7r6TS6+8iC+WfKZ2jwJdI/v2U3F1aqKuzyRh1AQpveEljDI1c1sUWAd8aHcQIjnICIDYn+nSa6NGHEmjRo3VRbKjHF4wd4WZzCMAEN3gJm3yIOX9VlVV8tCj99N7QBcmnHESs16eaakaX1FxES++NIPTJp9In4Fdefix/1FdrX4CW/qZg/AMaqe832RQ+dRCwlvVlXJu1Kgxo0ZYKuonIwDiZ/ZWSRHJZgdg6iz+1GPPM2L4aP7+j1t5+rkn1Fwhuh3w2CRonBFTs3xfDs4kqAJ4SKEIxdfMJLjip7geRtd1unftwZDBw+ncqQsd23eiefMW5OTkkp4erbNfWVlJaWkJW7ZsZt2GtXy/ZjWfLl7AN9+tivtuhO4+rcm99wxLmyYlq/C2UorOeQwjGLbcl6ZpnH/uRdx84+3Mm/8x519yttmutgHm96kWKUUSALFPAbDLbOPPFyynQ/to6dZX33iJK665lJoaBWudx3WCa0bG1KRxWkG9eGMblX6Kr5xBaN0Ou0OxhbNtI3LvPws902t3KHGx5863qPlgleV+fL40HrjvEU456TQA1qz9niGj+lnpMg+wdTmCSA6pl3YLs9qabehxeyhs80vz006ZxDuvf0hBfoH1qOasjS4PrCOHpteLkz+Alu4hd9okHE2z7Q4l4RyNs8j516SUPfmHt5ZSM+cby/00atSYd96Y8/PJH6BtYTvcLktzXEx/1kVqkQRA7FNotmHHDp1wOn895N67V19enfU2OdkWi99EDHij7l+kyX7//0B6QQY5/56MXhDbbY76TC/IIPfeM3A0VjtRMZlUvbQk+t61ICsri1nPvUavHr8ui+xyuWjXztJyyUIrjUXqkARA7FNotmHnTl1r/fvuXXvwzBMv4HJZLMrzwfdQE6rTUx31LAEAcLbOI++Bc3C2zrM7lLhzNM8h7/6zcbRK3Z/VqApQ/e5KS324XW5mPvMKvXr2qfXfu3TuZqV7GQEQgCQA4hemvxRat25z0H8bNmQE1//xJrNdR1UFYfEPdXqqo56+pR1Ns8l94Fxc3VvYHUrcuLo0I++hc3E0t14SOZn5F6zBqLZWofHGG25l8MCDb8vRumVrK90XWmksUkf9/LYU8VBotmGL5ofetvWqy69lyCCL+5B8vL5OT3No9WUGwG/pWV5y75mMd3TqFWvzHtWV3P9MQc9JszuUuKu2eO9/2JARXP77qw75nJbWEgAZARCAJADiFwe/jD+MVof5MnI4HNx15z3ouoW32/ItUH34bWZ1vX7XttJ8brJvH0/2TSemxI54mttJ5hVjyb71lJT4eQ7HqPQTWPaj6fa6rvPPO+4+7GflcJ+5wzD9WRepRRIAsY/pMmx1+TLq0a0np5x42mGfd1ChSLQ64GEk4x4AZniP6UHe/87G2Trf7lBMc7bJJ++hc0mbmJq7+9UmsOzH6HvVpAnjJ9G96+ErcltMABRW7BL1WWp8WwqrdMD0jdmWLQ59C2Cfa6++wewhor7acsh/1jQNPYXe0s6OTch/8sLoDnm+5CxtXBvN4yT9vOHkTb8AZ4eGda6xcvUPcM2V19fpeRYTgDykBoxAEgARlYfJfSHS0tJJT6/bErauXboddFZznaw99GY3Glrqfa05ddIm9if/yQvwDOtodzSH5RnRifxnLybj/OForvp9O8aM4Optptv27XMEnTvVbf5HRkYGXq/pTaWcWEj4Reqof2umRDyYXpOVm5Mb0/MnTzyTFSuXmzvYhiIwDDjIRD+9Hk8APBxHsxxy/jGB0LodVD67mJp5qyG+VXrrTgPPkA6knzMUV7cGXGU2YhDaYLqYJqdPOCOm5+fm5LJtu+lqm/lINcAGTxIAAdEywKbEmgAcOcrClq/VQdhZAU0ya/1nLUXu/x+Ks0MTsm8fT/q6nVTO/Az//DUYgbrVSFBN8zjxjOxM+pmDcLZvWEP9tQlv34NRc/iJqgcT62cjLzePbdtNb5tdQHRnQNGASQIgwEICkJcX2yS1Th07k52VzZ6yPeYOuKvyoAlA/SkCbJ2zQ2OybzkZo9KPf+Faqt9fRWDZDwkZFXB1bop3XA+847qjZ5kehk454R0m39NAdlY27dt1iKlNTm5syfcB6u/sUqGMJAACwHQd2pwYRwA0TaNnz94sXDTf3AF3VRyy74ZGS/fgPaYH3mN6EN5VTnDZjwT2PsI7y5Qcw9EkC3e/NnsfhQ2qbHEsIrvqvmfFgXr36hvzMtncHEvVFGvPokWDIgmAADA9xTwzI/bvkWZNmpk9HFQcvMKa1oBGAGrjaJSJY28yANHtaEObign/uJvQT8WENxUTqfBjVPkxKmow9tZV0HxutAwPWpoHPdOLo1Uuzlb5ONrk42yT3yA3KzIjUuE33bZpk6Yxt8nMtHQO91hpLFKDJAACLHwZeDyxN82xcuXiP/j97oZ9+v8tR7McHM1yYFA7u0NpEKzc/8/NjX1E3uKOgPVnXamIm9SfNSXqwvSXgdMZe3U3S1cugfDB/60BTAIUSSx4iPfmYaSnp8fcxu22dBEvIwBCEgABWBoBiD13MD0BEOAQa8s1I1nWxYkGyULdg7Ky2OdruN2WSivLCICQBEAAFr4MXCaGIYuLisweDjyHuGvVACcBiuShHeq9eRglJcUxtzHz2duPjAAISQAEAKYvJZzO2L/0dhebL5ZCxsG/9OT0L+ykZ3hNt91dFPtnwu2WOQDCGkkABCTw3GkYBqtWrTDfQaPY75UKkQh6I/NzW1asXI6R2FtYki8LSQBEYn2/ZjUlpRYqkBZIAiCSk6Nxlum2JaUlrF23RmE0QhyeJAAioRZ/vsh8Y7fzoFUAhbCbo1k2mtv8PABLnw0hTJAEQCTUS6+8YL5x21zQZeRSJCmHjrPQdFVtXn71RYXBCHF4kgCIhPl+zWo+X7LYfAcdzH+5CpEIzs6xV/TbZ/Hni1i3fq3CaIQ4NEkARMI8/uTD1jro3YC3mhX1grtvG9NtDcPg8ScfURiNEIcmCYBIiDVrv+fZGU+Z70DToJeFPQSESAB3vzaW5tc//ex0GQUQCSMJgEiIm2+7gWDQfK10ujeBbPPrrIVIBD03DVePlqbbB4IBbvjLHxVGJMTBSQIg4u7ZGU/x0dwPrXUyUja0EfWD98gultp/Mv9jnn/hGUXRCHFwshugiKsvl37BDTdZvKJxOSQBqAsDImXVGJV+jFAEozoAgRBGIIRRE8QIhjGqAhCO/KapluYBxy9j15qmRbcIzvCiZ3rR0j3o6R5wyjXD4XjHdKXiobkYFjYH+tON19CtS3f69jlCYWRC/JokACJuNv6wnqkXTcEfML9POgAj2zbo4X+jOkB4aynh7XuI7K4gUloVfeypIlJUSWRP9c//TyS+1eQ0ryuaDGR40DK9ONs2wjOoHZ6hHcAhyQGAnpuOZ1RnauZ8a7oPv7+Gcy88kzdffZ/CNm0VRifELyQBEHHx7XffMOHMk9i5c4f1zk7ubr2PJBfeUUZ4S0n0RL9t32MP4a2lREqr7A7vZ0ZNEKMmSKSoAoDgqi1Uv7kcR6s8sm84HldP8/e/U0nahP6WEgCArdu2cPz4sbwy8026dummKDIhfiEJgAAImW0YCAR+83cffzKHSy47z1rJ330GtIJOjer01PqwGbBREyS0YRehDTsJrd9FaP1OQht2ESmvsTs0S8I/FVNyzUyybx+PZ1hHu8Oxnatbc9wD2xL4YqOlfnbs2M5Jp43j0QefYszosb/6t9o+ezEw/ZkXqUMSAAFg+hKzdL+TfHV1FX/9+1944unH1GxsogHn1P0eqJFkKYBREyS4ehvBlZsJrt1BaN1OwttK4z5MbxcjGGbP398kf/r5OFrk2h2O7TIuGEnxko2WM9OS0hJOP2s8F0y9mNtvuROfLw349WfPhOQZVhK2kQRAgIUvg+KSYoLBIC++PIN77pvGpp9+VBfVUR2hY92r/yV4N7XfCO8sI7hyC8FvthBctZngup21TrhLZUZ1gIpH55F9+3i7Q7Gdq2szvEf3oOaDVZb7MgyD6U89yocfvc+1V9/A5IlTKC4pttJlpeWgRL0nhdUFwBnATDMNWzRvia7r/LR5k9qI0t3w2CTI9dW5icfhIceTuM2CwltLCSzZSODrTQRXbiG8syxhx05qDp1Gr1+BnlX3392hGIEQ/rmr8X/5A5Fd5dFDtMrF3bs17iMK0XPTlBwnHiLFlew++1GMSosTYQ/QqmVrIpEIW7ZuNtvFZGCWwpBEPSQJgAAYCiTXVmTXjYqOAMTAqTvJ9+bEKaDo1W1g2Y8ElmzE/8VGwlsUzHFIUTnTJuEZ3N5yP/4Fayj7vw9+nnT4Gxo4OzTBM6At7v6FuHq1QnM5LB9Xpep3V1B21zt2h3GgIcBndgch7CW3AATAD3YH8Csj28V88gcIRUIYhoGmKcprDQiu3U7gi43RK/1VmyHUsIb0zVKxcqFq1heUP/DxoZ9kQGjtDkJrd1A54zM0rwt371a4+7fFPaAtzrb2byDlO64X/sXr8c/73u5Q9qd4yE7UR5IACIDtQAWQYXcgtMqBK4ebbh42wjg1a2/r8LZSat5fRfX7qwhvLbXUV0N1QuP25OV1YFOgjE3+CnYEq2OapBlY+gPlDx7m5F8LoyaI//MN+D/fAICzsADvsT3wHd0DvcC+t3f29cdRtGEX4Z8s3bdXpYzoZ140cHILQOwzHxhhawQZHrjvZGiRbbqLLHcGPqe5okHhraVUPD6Pmo+/qx9rCpPYN0vfoVuXDj//f1U4xDp/KaurS1lTXcqamuhjU005kQNfbAOKznuc0A+71QXk0PEd25P084fjaJS4eSL7C20qovj3zyifD2DCPGC03UEI+0kCIPa5F7jGtqN7nHDnsdDd/H7qAB6HmxxPVkxtjJogFY/Oo+qNZTLEr0CPbp1YueStOj23JhLiu+oSvq7czfKq3XxduZtvln7DrkvjUwtfcztJO30A6ecNt2WuQGD5Jkqvn4Xht3UZ/r3AtXYGIJJDcs2WEXbKAE635chuB/x1HPRubrmrCBHSnL46zwMIrd1B6XUv4v9sfcquz0+0/959Cz261W0Oh1PTaeZOp096I47NacN5jbsSnvs9H338aXyCC0cIrtiM/9P1uHu3Qs9J7AoCR9NsnB2bROcD2Pd+mwYk1YQEYQ8p3i32mQNY2K/XJJ8L/nYs9GuhpDvDMAhE6vZj1HzwDcWXPkNoU5GSYwuYetapTJ54vKU+dmzbpSiagwut20HxJU/hn5/486BncHtypk1C87kTfmyin/HYJ1eIlCQJgNhnD4leCpifDtNOgN7NlHZbHao+7HOqXlvGnn++ZWnHNvELTdO49OIpTH/oH5b7Sk9TUz/gcAx/iNK/vk71OysScrz9uY8oJPe+M+2YmLgIKE/0QUVyklUAYn+vkKjJQT2awk1HxVTop6784SChSBinXvsdrqpXl1L+nw+VHzcZ+HxeGhXk4fN6yMhIx+t14/N6SUvz4fG4ycxIx+n87esSCASprPolcaqp8VO6p4w9e8rZU1ZOaWn0v7Ud76jRQ7juqgsZNWKgkp+hV4/OSvqpk4hB2b/egYiB78TeiTsu4OrSjPxHz6P01tcIrtqSqMO+kKgDieQnkwDF/vKArYAnbkdw6HBGHzizT1y3j/U5vWS5f3t1FViykZIbXqp3JXqzMjNo17YV7dq2onWr5jQqyKNpkwIaFeTRqCCPxo3yadK4gPT0+F49l5TuYc+eCvyBAC6nk1Ytm+Fyqb2OKCndQ+vOo6ioSGC5eqdO7t2Tcfdtk7hj7hOKUPHMIiqfWxzv96UfaAZIBSsBSAIgfmsWMCkuPXcogCuG1Xl3Pys0TSPfm4tD+yXJCG8poeiSpzEqknPnvZzsLHr17Eznjm2jJ/vCVrQtjJ708/PiV+EwGd146z3cdc8jCT2mnuUj77HzcDQ1vwzViuB32yi75z1CaxVsoV27F4mW/RYCkARA/NYwYKHSHnN90V39ju0Mqqr01cGvlgQaUHLNTAJfKdysyCSHw0HH9m3o1bMLvXt2oWf3TvTq0Zk2rdVMhEwFfn+AEUefyZKlKxN6XPeAtuTePTmhx/yViEH1W19T8cQCIiXK9+sZBHyhulNRf0kCIGqjpiiQ1wnn9ofju0TX+dsg15ON2+Gi+t2VlN31ti0xNG/WmKGD+zFscD+GDOpLrx6d8fnMFStqSEr3lDHprCuZMzdOSwIPIvvmk/Ae3T2hxzyQUROkevZyKqbPx6hRsjhnPjBKRUcidcgkQFGbO4H3LPdSE4KSanDb9zbbEygnjwwqHpmbkOM5HA569ejMsCHRk/2wwf3kyt6knOwsPnjzSWbMepMHH53B4s+/SsiWz+UPfoxnVGc0G9+3mttJpKRS1ckf4DZVHYnUISMA4mDeA45R0tOg1nD1CMhJzPKuAznf/p7Q/xbErf+2hS05ZuwIjhk7gjGjB5OVaf+WCqlo2/ZdfPDRQj6Ys5A5cz9l56741W/IuvZYfCf3iVv/hxIpqaJs2tv4F69X1eU7wAmqOhOpQxIAcTDdgeWoGiXK9cHvh8CIdol910UMuHAWbFe39Dk9zcvIob04btxojhk3lk4dC5X1LerGMAyWr/iODz5ayIcfLWLh4qX4/QFl/Tta5FLw3CWgJ/DNakDNx99Rfv8clff/g0Bf4BtVHYrUIQmAOJRpwPVKe+zeFM7pp6Tsb518tQVuetdyN26XkykTjuKM045k6MAeeNwunL4CdLc9G8uIX6uqqubjeZ/x4KPP896HC5TcKsi978yELQsMLP2BiicXEly5WXXXdwC3qO5UpAZJAMSheIClREcD1OpYAOM6RUcEsuM4Ie6hxTDb2sVP9y6FzJp+Kx3a/vpeviQAyenrlauZdPaVrF33g6V+0ib2J/OKsWqCqkWkpIqaT1ZT8+4Kgt/HZXfe74he/du+/aBITpIAiMPpB3xKvIoDOfRofYBeTaF9PjTPhoL06B4BXgV3H6a+ADsrTDc/cnhfXnrir2Rm/Hb+giQAyaukdA+nnH4pCxZ9aboPR9NsCl681HIsRnUAoyZIeGc54c0lhNbuILD8x+hJP34bAlUDQ4Cv43UAUf9JAiDq4hwgPvuzJrHGjXJZOuchGjfKrfXfJQFIbjt3FdF70Mls3xH/zYWS0IXAE3YHIZKbbAcs6mIF0BTob3cgifTEf6/niD6dDvrvuisNzRG/qsnCmvT0NFq1aMbLr1tf0VrP3A9Y35VJpDwZARB15SC6kchEuwNJhMaNctnw5XOHrHMvIwDJLxQK06rTyIY0CvAmcCog21yKw5LtgEVdhYneCkhMRR2bTZkwRvkmNyLxnE4HZ55+ot1hJMoHwGTk5C/qSBIAEYsa4ETA+rq6JDfp5NF2hyAUmTheTT2rJPcucArRyX9C1IkkACJWVcB4YKbdgcRL65aNOaJ3R7vDEIoMHtiHFs2b2B1GPD1D9DOZnNtciqQlCYAwIwCcRbTASFw3MLfD1b+bgJbAXQtFfOm6ztWXn2d3GPFgAH8BphL9TAoRE/mWE1YdR/QKpMDuQFRo06oJKxdMx+N2Hfa5zrRG6C6p+18fVFfX0Kn3ODZviUvBHTtsJ3ri/8DuQET9JSMAwqp3gR7AG3YHYpWua/z3H5fX6eSvaQ50Z3oCohIq+Hxe/nfvrakysjMb6I2c/IVFkgAIFXYQvQd5JvCTzbGYdv0VZ3DsUQPr9FzdkwUxnEx27S7m7v9MZ/SxZ9O8/TA8ud1p3n4Yo489m3v++wS7dhebDbveSvRrcsqJY7n2yguU9plgm4HTiE7222lzLCIFpEQ6LJJKGnAdcC2QZXMsdXbeGcfw4L+vxuGoQ06s6bgzW4F2+OcahsG/73ucO+56kPKKg+/wlpWZwS03/oFrr7wgVa5SD8rO1yQUCnPB72/k2ZmvK+kvQUqAu4H/AMq2CRRCKgEK1YLAPOBhoBzoCST1WPnVv5/AfXf+AV2v24CYw5OJ7jr8jxQMhjjzvD/ynweeJhAIHvK5/kCADz9axOo1Gxh/0tF1jqW+sfs10XWdU048ij1l5Xy+JOnL5G8D/k10wu2HRD9bQigjCYCIlxpgAdGypCuBTKAtSXTbqUWzAp5/+CZ+f97JMVxhajjTGqFph//oXHHt33j6+ddiiumbb9dSUrqH448ZFVO7+iIZXhNN0zj26JEMOKIn8xZ+QXl5Ul5U3wycTrTwlizvE3GR2mONItksI7o9qa1aNm/EHy44hYvPPbHWXf4ORXel40xrfNjnfbLgc4489hyzITLn7ac5avQQ0+2TUTK+JmXlFTz8+Ezuf+jZZFshMA34s91BiNQmCYBIlB5ERwISKj3NS6OCHFo2K2DIgO6MGdGXEYN7mi7z60pvhub0HvZ5w446g08/W2bqGADDhx7Bgg9Tq9ZSMr8mwWCITxZ8zseffMbCxV+yZesOdu4qorLStsJ6m4iOmKVcnQ2RPCQBEInyL+BPZhtffM4J/G/alQrDiZ2mO3Fltjrs87Zs3UGrTiMxDPN7vWuaxqbv59GyRVPTfSSThviaDB0zmcWff2Wli5FEb6MJERdJcz9WpDSd6BJB0y48+3hFoZinu+u2qGH+wiWWTnQQnSm/aLH5q+Vk0xBfk/PPmWC1i7NUxCHEwUgCIBLhaKCl2caDjuhK354dFIZjhlanmf8AW7btUHLEzVuT6p60JQ3xNZk88XjS0mKbY3KA0wGPonCE+A1JAEQimJ/5RXT4326604um123eQEVFlZJjJunsdFMa4muSlZnBhFMs7USYCzSIrQyFPSQBEPHmJVq5zJS8nEwmnjxSYTjm6K5Mu0MQ9dAFUy3fBjhVRRxC1EYSABFvYwDTO+acNWksPq/No6CaA92VZm8Mol4aNXwgbQtN3/0COAGp1yLiRBIAEW+mr/4Bpkw4SlUcpulOX0x1/4XYR9M0Jk+wdAurETBYUThC/IokACKeNKJXMKa0bdMsCSb/UefJf0LUZsJ4y7fxT1IRhxAHkgRAxNNAoIXZxqefMtr+jXE0Dd11+MI/QhxM/349aNf28PUjDuFkVbEIsT9JAEQ8WbpySYrJfw4f8jERVp160tFWmncFOioKRYifyTebiKdjzTbs1L4lvbq1UxmLKTL5T6gw8VTTH4V9xqqIQ4j9SQIg4iUb6GO28aknjFAYilkamiQAQoFBA3rTonkTK12MVhSKED+TBEDEy3AsLF86evQRCkMxR3O467TtrxCHo2ka444abqWL0cjeLUIxSQBEvJi+gZ+Z4WPwEV1VxmKK7pDJf0Kdo8cMs9K8MdBFUShCAJIAiPgZZbbh6GF9TG/Xq5LmlDLsQp2jjxqGrlv6yj1SVSxCgCQAIj4ygH5mG48dabqpUrpTRgCEOgX5ufTpZWlka7SiUIQAJAEQ8TEAcJltfPSR/RWGYo6mu0Du/wvFLN4GGKQqDiFAEgARH73NNmzaJI/2hc1VxmKKDP+LeDhylKVzeGuipYGFUEISABEPphOAAX06q4zDNN1paR93IWo1aEBvq/MAkuP+mEgJkgCIeDCdAPRPkgRAc7jtDkGkoJzsLDp1KLTShf3rY0XKkARAqOYkWrrUlAF9kyQB0ExPYRDikAYNMJ0fgyQAQiFJAIRqnQFT0+c1TaNvL/tLnmu6W7b/FXEzeKDpApkgCYBQSBIAoVp3sw3btmlKXk6mylhM0Rxy9S/ix+IIQGtA9qcWSkgCIFQzvYNPl46tVcZhmqZLAiDip1uXDjgcppeYakB7heGIBkwSAKFaG7MNk2H5H+y9BSBEnHg8bgrbtLDSRQdVsYiGTRIAoVqh2YavlBruAAAgAElEQVQd2lr6UlRGbgGIeOva2dJFvP0TZURKkARAqFZotmGHtskyAmD/PgQitXXpZPpOGcgIgFBEEgChkkZ0kpIpSXELQNNAk4+FiK+uXWQEQNhPvumESvlAmpmGuq7RumUTxeHETpP6/yIBOrQzPVUGIDnulYl6TxIAoVKe6YY5WTgcSfB2lKt/kQAtmltKdhurikM0bPJtJ1TKMdswPy9LZRymaZrc/xfx17yZpXN4FiCbVQjLJAEQKmWbbZifmxwJALrcAhDx5/N5ycm29J6XUQBhmSQAQqUUGAGQBEAkRrOmlnb2lQRAWCYJgFDJ9AhAMpQAjpI9AERiSAIg7CYJgFDJ9Fk8Lc3U/kHqyflfJEh2tqWkN0NVHKLhkgRAqGR6/NxCbfSkk5mpZq+W7KzU+Y6X1+S3fF5LSa9HVRyi4ZIEQCSFpFgCCEq2AW7eVM3obPNm9tdFUEVek9+yOOqVJENmoj5Lkm9dkSJMnz2TJgEwrCcAI4cPQLOYSGiaxrAh/SzHkizkNfmttDRLK/kkARCWJcm3rmjodAVX3iqoCKNF8yYMHdzXUh/Dhx5ByxZNrQeTJOQ1+S25BSDsJgmASApWrw5VMRTNArzzr3+01P72m69UEkcykdfk15xOS/NeJAEQlkkCIFQyzDasrKpRGYd5RlhJN6NGDOQPvzvLVNur/jCVI0cOVhJHMpHX5NcCgaCV5pYaCwGSAAi1ykw3LK9UGYd5RkRZV/f962YmTzw+pjZnTDqBu//xZ2UxJBt5TX7hDwSsNE+SjFnUZ5IACJX2mG5YlnoJgNPpYOZT/8c9/7yR7KxDr/nOzsrk/6bdxIwn77U6NJzU5DX5hcURAL+qOETDJTufCJVKzTbckyQjAIbpmxi10zSNP155PueeNZ5nnn+dt96dy/drN7C7qISC/Fy6dGrHiccdyblnnUp+nulKyvWKvCZRfr+lEQBJAIRlyTHzSqSKQcBnZhr26dGBzz94QHE4sdNdaTjTUmetuUheZ0y9mhdffsds87OB5xWGIxoguQUgVDI9ArCryHRTtSKKhwCEOIit23ZaaV6hKg7RcEkCIFQqMdtw244iqmvsH9U0CNkdgmggNm/ZbqX5VlVxiIZLEgCh0i6gykzDSMTgh007FIcTOyMcxMJqRiHqJBwOWx0BkARAWCYJgFDJADaabfz9up8UhmKeEVFTC0CIg/nmu3VWJgGGAUvDB0KAJABCvQ1mG3665BuVcZhmRKTGioivJUtXWGm+lWgSIIQlkgAI1dabbfjpF6tUxmGaEbZ/LoJIbZ8v+dpKc0uNhdhHEgCh2lKzDb9auY7SMvsnNxshKbIm4scwDN79YL6VLpapikU0bJIACNUWm20YCoWZ/e6nKmMxJRKWBEDEz5KlK62uADCdZAuxP0kAhGrria4GMOXlNy1dGalhGHIbQMTNa7M/tNqFjAAIJSQBEPFg+jL+4wVfsW1HkcpYTIkEkqM0sUgtgUCQJ599xUoX3wGbFYUjGjhJAEQ8mK5vGgyGePCJ2SpjMSUSqkTqAQjVZr36Djt27rbSxduqYhFCEgARD7MB09vqPf7s21RW2Xsf3oiEMEKWNmsR4lcMw+A/DzxttRvTybUQB5IEQMTDduBzs42LS8t5YPrrCsMxJxwotzsEkUJeef19vlxmaalrKbBQUThCSAIg4sbSjc5/3f8CO3eZ3lpAiUiwHCMiewMI64LBEDfddq/VbmYCUqVKKCMJgIiXZ7CwZ3l5RTV/nWZ5uNSyiIwCCAXuvf8J1q77wWo30xWEIsTPHHYHIFJWFdAN6Gm2g+Wr1tO/Tyc6tGuhLqoYGZEADncWaJptMYj6bfWaDZw59RpCIUvVe1cAtyoKSQhARgBEfD1spbFhGFz6p/9QXGrjVbgRIey391aEqL+CwRBTL76eGutbXVv6LAlRG0kARDzNB7600sHW7bu54Mp/EQ6bXlRgWdhfhhGRFQEidldc+ze++NLSxj8Q3fznSQXhCPErcgtAxNtWYIqVDtZt2EJldQ1HjzpCUUgmRELo7gz7ji/qnYcem8Hf/vk/FV3dDCxS0ZEQ+5MEQMTbWuA4oKWVTj778jsK8rIZ0LezmqhiZERCaLoTzeGx5fiifnnl9fe58LKbiEQsF5PaBkwFZDmKUE4SAJEIm4BzrHby/twvKcjLor9NSUAkXI3uTEfT5WMjDm722x8x+dyrrE762+d64DMVHQlxIPkmE4mwHugFdLXa0ftzvyQj3cfg/t2sR2WCEfHjcGfacmyR/J6d+TrnXnQ9gYCS5fpLgEuRmtQiTiQBEImyGLgYcFvtaM68pWzdVsS4I/vjcCR4HmskjGGE0V1piT2uSGqGYXD7P/7HNdf/Q9WVfwSYiGz8I+JIEgCRKGVAABinorOvVq5j/qcrGD2sDznZiZ2cZ4QDoDnQnTIfQMCOnbuZfO7VPP7ULJXdPgg8prJDIQ4kCYBIpC+A0UAbFZ39tGUnT7/4Po0b5dKnRwcVXdaZEapBc7jRHK6EHlckl9ffnMPxp17E1ytXq+z2W+B0pOyviDMpbyYSrSWwHMhX2emoYb2Zdusl9O2Z2ETAmdYY3ZWe0GMK+61es4Fr//xP3nl/nuquq4FBwErVHQtxIEkAhB1OBl5H8ftP1zWmTDiKP10+mS4dW6vs+hA0nL5G6G5JAhqC9Rs2cc9/n+Dxp2YRDMZlZd5lwEPx6FiIA0kCIOzyN+CWeHSsaRrHjBnA5ReewpgR/RIwUVDD4c3B4cmJ83GEHSKRCAsWfckDjz7Pq298QDisZJJfbR4FfhevzoU4kCQAwi4a0R0Dz47nQRoV5HDaCcM55bhhDO7fjfQ0b9yOpbszcHoLZOOgFPD/7d13fBRl4gbwZ3Y3IY30QgIh9ICICAJSBAUFQU48OcUKtvPOwsmd5eygB6dYzvP0RPSU+wB2xIKKHAoiLUgTkN7Te9tsNsm2+f2x6g80Ccns7LwzO8/38/EvMjOPySTz7Mw779vQ0Igt23bhs5Xf4IPlK1FYVBrsQ64CcDk44Q9piH+pSKRwAP+Df2Bg0NlsVgwa0AtDB/VFn55d0LNbBrIy0xDbMQqRkR0QHxv42wSSrQNskamQLDYVElMw2escqK9vQF1dPXLzC3H0WC6OHMvFth17sHX7HrXe5W+L3QBGA+Da06QpFgBzSQMwFsAQAH0B9ASQDCAaQKTAXESkrQYA9QAqABwFcAj+iYe+AVAmMBdpiAUg9KUDuOHH/waCP3MiapkM/1s6bwF4F/61CChE8WIQunrCP4/4rQB4P5qI2ssHYDmAOQAOCM5CQcACEHqSATwD4GYAGs+TS0QhyAdgEYCHAFQKzkIqYgEILdcCeAVAouggRBRyKgDcDUDVOY9JHE4FHBoi4L/wPw0O5iOi4IgCcDWATgDWgK8sGh7vABhfPIAV8L9GRESkhW8BXAGgVnQQUo4FwNiS4W/i54gOQkSmsxvAJfA/GiADYgEwrigAXwMYIToIEZnWNgDjADhEB6H24yhxY7IAWAZe/IlIrKEA3gE/TBoSBwEa08MA7hAdgogIQDb8MwtuEh2E2oetzXiGAtgMTu5DRPrhATAcwA7RQajtWACMxQIgB8Aw0UGIiH5hO/wlIGjrJZO6OAbAWG4HL/5EpE9D4J+BlAyCdwCMIwzAYQDdBOcgImrJcfjHBHCSIAPgc2TjuB4qXfxtFgkX947FxOx4DOkSjdQYGxKi9HUqWDqEw9IhXHQMopBUVe9GWZ0b207asXJvBdYcrIbHJ6ux6x4ArgOwVI2dUXDxDoBxbAQwKtCdXNYvHo9dnIFeyREqRAoeFgAi7Rwpc+JvX5zAFz+ostbPBgBj1NgRBRcLgDH0gv/2v+Kfl9Ui4ZFxGfjTBWnqpQoiFgAi7S3OKcZfPzoKtzeguwEy/H+zjquTioKF8wAYw20AJijdWAKwYGp33Dw0Wb1EQSbZrJBsPD2JtHRuZkd0T47E5z8ENLuvBCAP/jeWSMf4FoAxjA1k41mjO2HqgAS1shBRCLtqcCr+NDYz0N2MUyMLBRcfAeifBf4Vt2KUbNwlPhxbZvZHuM1YP2o+AiASp9Htw9Cnt6GwpknpLuwAEgD41EtFauMdAP3LgsKLPwDcNybdcBd/IhIrIsyCByZ0DWQXsQACvo1AwcUCoH/ZSjcMs0qY3C9ezSxEZBJXDExBmDWgDw991MpCwcECoH9dlG44NDMa8ZEcSEdE7RcXacOQrNhAdsE7ADrHAqB/HZVu2C2hg5o5iMhkuicFNF+I4r9dpA0WAP2LVrphSkyYmjmIyGTSYgMaiMsCoHMsAPqneI7e8MCe3xGRyYXbArpE6Gt+cfoVFgAiIiITYgEgIiIyIRYAIiIiE+IzGmqT/BoX3txajrVH7ciraYLTxQm+iPQiKtyKbkkRuLhvAm4blYGuifpe7ZP0gQWAWiXLwL83leKZb4rgCmyFMCIKEqfLi/3F9dhfXI/XNxTh4YlZuGccX8On1rEAUKueWF2AV3PKRMcgojZq8vjwxOcnUO5wY+6UHqLjkI5xDAC16IsDNbz4ExnUK+sKsHJvpegYpGMsANQsWQbmfV0oOgYRBeDJz09A5pM7agELADVrV5ETxyoVLwVKRDpwpMyJPYUO0TFIp1gAqFl7ip2iIxCRCnbl14mOQDrFAkDNqnR6REcgIhWUO9yiI5BOsQBQs7w+PjgkCgX8XaaWsAAQERGZEAsAERGRCbEAEBERmRALABERkQmxABAREZkQCwAREZEJcTEgUt1jM7rg8Zu6BLQPOW2YSmmIjG/egu8wb8F3omNQiOEdACIiIhNiASAiIjIhFgAiIiITYgEgIiIyIRYAIiIiE2IBICIiMiG+Bki6UF7jxlurK7BySzUOFzSgyr4NifER6J0Vj8kXdcf0K/ohKSFSdEyiNquobsDSTw9g5boTOJJbg6qaRp7TpCssACSULAMvLivGU0sLYHd6T/u3kvJ6lJTXY8P2Qjy1cCseuWMYZt00GJIkKCxRG8gy8OLinXh64VbYHa7T/o3nNOkJCwAJ4/HKuPmpo1i2rvKMX2t3uPDQ8xuxc18ZFs2fAJuVT69IfzxeH255cDWWrTp8xq/lOU2isQCQMPe9crJNF/9TffDlYSQnRuKFhy8MUip1OJxubN5ZhJzvi3DoRDXyiurgcLrR5PKeeWNqVodwK2KiwpDVORbZ3RMwYlA6Rg7OQHRkmOhoP7t//vo2XfxPZZRzmkIPCwAJsX63HQs/LVW07YK3d2PKuJ646PzAphsOhjU5efjvh/vw+brjaGzixT4Ytu/9//MmooMVl4/tiVuv6o+xwzMFpgI2bC/Ewnf3KNpWz+c0hS7ecyIh5izKD2j7uQu2qJREHeu3FWDUNe9h8u2f4MP/HeHFXyONTV4sW3UYk37/MUZf9z42bi8UlmX2vzYHtL3ezmkKfSwApLmiChdy9tUFtI/NO4tQWOpQKZFydfUu3PbIV7j01o+wY1+Z6Dimtu2HUoy/ZTn+8PjXcDjdmh67qMyBLbuKA9qHXs5pMg8WANLchj12yHJg+5BlYPP3ReoEUujQiWqMvOY9vL3iQMD/P6QOWQaWfLwfo655D0dO1mh23A3bi0LinCZzYQEgzRVVqPPprLBE3KelHfvKMG7Gh5peZKjtDp2oxtjpy7BzvzZ3ZYrK1DkXRZ7TZD4sAKQ5td55tljEvDx94FgVLv/jJ6isbhByfGqbiuoG/OYPn+Dg8aqgH0utM1HUOU3mxAJAmktPUue1rfTUaFX20x41dU248q4VqKpp1PzY1H5VNY2YevdnqP3FhDxqS0+NUWk/2p/TZF4sAKS50efEBnwXQJKAkYMy1AnUDnfNWYOThXbNj0vKHc+vxZ+eXBvUY4wekmHYc5rMiwWANJeRHI4R/TsGtI+RgzPQOU2dT11t9b8Nufho9VFNj0nq+ODLw/hy/cmg7T8jNQbDz00PaB8izmkyNxYAEuLJWwObtGX23cNVStI2Xp+M+5/5VtNjkroefn4jfL7gva7xt1kjA9pe63OaiAWAhBgzMBZ3/raTom1n3nguLhym7YxpH60+whH/BnfweBU+/ip4d3BGD+mMO68fqGhbEec0EQsACfP8XVmYNjapXdtMm9QH8x+4IEiJWvaf9/dqfkxS35sfBvfn+NyDozFtUp92bSPqnCZiASBhbFYJSx7tjWfvzEJctLXVr42LCcdzD47B4mcnar5qWkFJHTbuEDfFLKln3XcFKC6rD9r+bVYLFj87Ec88MBpxMeGtfq3Ic5oI4GJAJJgkAbOuSscN41Pw9lfl+CKnGofzG1Fp9yIpIQLZ3RNw2YXdceOUfkiMjxCScU1OflCfHZN2fD4Za7fk4YYp/YJ2DEkCZt00CDdO6Yu3VhzEym9P4PDJalRWN+rmnCYCWABIJ5LjbJh1VTpmXeUfSS2nDROc6P9t2hnY9Kwdo6y4/bedMXZIAuKi+SunVI3Dg7Xbq/HGp4VwOJUvtrRhe1FQC8BPkhIiMeumQZh106CgH4tICf41IjqDQGaSi4+xYdn8AeidGaViInPqCuCcXjGYNCIJ0x75AbUOj6L9aDEzIJER8MET0RmcLFA+8c99N3TlxV9l2VlRuPf6roq350RORH4sAERnUBfANLKTRiarmIR+Mmlk+94eOZW9rknFJETGxQJAdAYNTcpuNQNAUpw66x7Q6VLiWx9h3xpno/KfJ1EoYQEgCiK1Vj6k0/H7ShQ4FgAiIiITYgEgIiIyIb4GSKQjPhnYdagOW/bWorTKBbcndCcgCrNJSEsMx/Cz43BudkdYeFufSFMsAEQ6sXlPLZ584zgO5TpFR9Fc36wozLm9B0YMiBMdhcg0+AiASAeWrizG9Dn7THnxB4CDuU7cOHsf3vqyRHQUItNgASASbO32asx5/Ti8Jl9vwOuTMfu1Y1i3o1p0FCJTYAEgEsjtkfHEf47D5Nf+n/lk4PHXjsPl9omOQhTyWACIBFqzrQp5JY2iY+hKfmkjvt1ZIzoGUchjASASaNOeWtERdGnDLhYAomBjASASqLic89I3p4jfF6KgYwEgEqjBpXxd+1DG7wtR8LEAEBERmRALABERkQmxABAREZkQCwAREZEJsQAQERGZEAsAERGRCXE1QCKDumfGIGR3TxAdo0UHj1fh5aW7RMcgohawABAZ1KQx3TB2eKboGC1am5PPAkCkY3wEQEREZEIsAERERCbEAkBERGRCLABEREQmxEGAREHU7YpNoiMQETWLdwCIiIhMiAWAdEoWHYCIKKSxAJA+ySwARETBxAJAOqWfAmCxSKIjNMtq1WcuIjIGFgDSJ9knOsHPkhMiRUdoVmpSlOgIRGRgLACkTzoqAJmdYkRH+BWLRUJGqv5yEZFxsACQPumoAIwb0VV0hF8ZMiANsTHhomMQkYGxAJAuST6P6Ag/u3JCL9ERfuXK8frLRETGwgJAuiTL+ikAg89KxWUXdhcd42cpiZH4/dVni45BRAbHAkC6JPncoiOcZv4DF6BjtD5uuT/34BjdZGlJWaUTSz89IDoGEbWCBYB0SdbRIwAA6NMtAf+dP0H4K4F/vnkwrp2cLTRDa2odLjz5cg76TVyMdz8/KDoOEbWCBYB0SW93AADgN2N74ONXpiBOwOA7SQLuv+08PHXvKM2P3RYutxdvLtuLAZOX4OnXtqG+QX8/PyI6HRcDIn3yuUQnaNalo7Ow6f1r8egLm/DpmmOaHHNg3xTMv/8CjB2eqcnx2sPrk7H0k/2Yt2ArCkrqRMchonZgASB98jSJTtCiXlnxeP9fk/HD4Qp88tVRfPNdAfKL61Ba4YTL7Q1o3xaLhNSkKKSnRGPYOZ0w5eIeGHt+pvBHD78ky8AnXx/FEy/l4NCJatFxiEgBFgDSJ69+C8BPBvRJxoA+yXj8btFJtJXzfTEee3ETNu0oCtoxUhP0PciRKBSwAJA+yV7/f5JVdBL60c79ZXj8n5uxJicv6MfKStfn9MtEoYQFgPTL2wjYokWnML3cQjuefWM7/rt8H3w+bRZpmjgiSZPjEJkZCwDpluR2QmYBEKaozIG/v7oViz/aD49Xu6mZx56XgL5ZXOiIKNhYAEi/PA2iE5hStb0J/3hzO155azcamrSdjyE1IRzzZ3KaYyItsACQfnmcohOYirPRg38v3YUXFu1ATZ32gzB7donEgr/2RVoiBwASaYEFgHRL5h0ATbg9Pvx3+T48tXArSsrrNT9+eJgFMy7rhHuv74qoiLYN+pS1GYpAFNJYAEi3JJ8bstcNWMNERwlJPp+MD/93BE++vAXH8mo0P77VIuHKsSm497quyEjp0K5ty6qVTxSl93UUiLTCAkD65q4DrImiU4Sc1RtzMftfm7HrQLmQ408YnoQHbuyK3pnKBvut3lKp+NgJce0rG0ShigWAdE1yOyBHsACoZevuEjz24mas31Yg5Pjnnx2Hh2ZkYVB2R8X7OFHUgBfeUT4XQVoy3ywhAlgASO/cnF9eDQeOVWHOSzlYodH6Bb/Uv0c0/jo9CxcOTlC8D49Xxgdfl2L+4lzY65W/nTCoX4ribYlCCQsA6ZvbCcg+QOLClUrkFdVh7oIteGfFQXg1msTnVN3SI3Dv9V3xm9EpULqcgSwDKzdX4Pm38nCiKPCBoUPOTgt4H0ShgAWAdE4G3A4gPFZ0EENxNnrw9MKteGnJ92hyBbZAkRKpCeG455pMXDshDTar8oWMNuyqwbNLcvHDMYcquSwWCeNHZamyLyKjYwEg3ZNctZBZANpsbU4+7npiDU4W2jU/dmy0DXdM7YxbLs9AZAfld212H3Hg2aUnsWl3rYrpgAuHdUF6KscAEAEsAGQETbVATKboFIbw0pLv8fDzGzW/3R8RbsFNk9Nx51VdEB+j/M/KsYIGPP92LlblVAblXf+brjxL/Z0SGRQLAOmfx+lfHtjK17dac//89fj3W7s0PabNKuHqi1Mx69qu6JSk/P364oomvPhePpavLYPHG5zy0rdHIq6e1Cco+yYyIhYAMgTJZYccydHbLZm34DtNL/6SBFw2Mhn33dAVPTorX7q3us6DBR8WYMnKYjS5grvg0OyZw2FVOhKRKASxAJAxuGoAFoBmffDlYcxb8J1mxxt9bjwemJ6Fc3rFKN6Hs9GLRZ8V47WPClDnDP4gxd9d2htTJ3CRIaJTsQCQMTTVALIXkNo2V7xZFJU5MGvuN5oca2DvGPx1ehZGDYxXvA+3R8a7q0vw8gcFKA9gOt/26JwWg5cfH6vJsYiMhAWAjEGWITVVQ45IFp1EV2bNW4dqe3BX7uvZJRL335CFiSOSICm8g+6TgRXry/HCO3nIK2lUN2ArEmI7YMXCK5AYH6HZMYmMggWAjKOxCmAB+Nm2H0rx2drjQdt/elI4Zl3XFVeNSw3oXf6126vx3Fu5OHBC25UG42LC8fGCKejfO0nT4xIZBQsAGYfLzscAp/j7q8F57p/Q0YY7f9cFMyanIyJc+bv82w/Y8eySXGzdr/18BD0y4/DRK5ejbw+uI0HUEhYAMg7ZB6mxEnJkqugkwhWX1eOrjbmq7jMqwopbL0/HH6d2Qcco5SXrUK4Tzy3NxdfbqlRM13bXTs7GCw9fyNv+RGfAAkDG0lAOsABg2arDqk32Y7NKuO7STrhnWhekJCh/l7+grAkvvJOHT9aVQcCyA+jdLR7/fOQiXDKyq/YHJzIgFgAyFne9f2Igm7J15EPFV5uUL4f7k5/e5X9geha6pSv/tFxd58HrHxdi0WdFQX+XvzkZqTF49M5huGnqWbBZuWgUUVuxAJDhSA3lkDuad0EXWQZ27CsNaB9D+sVi7h97oF935fPiO5xe/OeTQrzxaRHqG7VfcCgxLgL33XYe7rphICI78E8ZUXvxt4aMp6HCvzaASZcILiipQ1WN8lfpJgxPwqsPZiueFc/l9mHplyV4ZVkBquxuxTmUioqwYeb0c3HvrechviOnhyZSigWAjEf2QmqsMO1gwNJKp+Jtw8Ms+PsdPRRd/H0y8OXmCjyzJFfTd/l/EmazYMaVZ+GxO8/nin5EKmABIGNylgARKVA8M42B1dYpn/hnQM9oRQP9Vm+pxHNv5eFIvvLyoZQkAVdP7IM5fxqOnl2Vz0JIRKdjASBj8jT6pweOSBCdRHP1TuW33ZPi23fx33vMgcdfO47vD9UpPmYgJlyQhb/NGolz+3EdCCK1sQCQcTWUmLIABPKGXXvulyxaUYSnF5+E26P9O33DBnbCvD+PxJihXTQ/NpFZsACQYUmuOsDtgBymfFU6at4n35bjb2+e0Py42d0TMHvmcEyd0NuMT3eINMUCQMZWXwDE9xWdIqSUVrnw0L+PanrMzPSOmH33cFw/pa/itxOIqH1YAMjYmuz+NQLCY0UnCRlLVxajUaMJfRLjI3DvLedh5o3nIqID13gg0hILABmfowBIPEt0ipCx+rvgz+EfExWGWTcNwqybBiM2Rvn0w0SkHAsAGZ7kdkB21QLhcaKjGJ4sA/mlwXvH/6d3+WffPRxpyeaezplINBYACglSXT7kpFi0b5w7/VJ9gxcNTerf/rdYJFw7ORtzZg5HVmc+riHSAxYACg0eJyRnBeQovi+uN+NGZOLp+y7AwL782RDpCQsAhQzZkQ9EJgISB5O1ZPsBO26cva/Ff/d41Xvnf9R5GZj351EYMShdtX0SkXpYAChkSLIHqC+EHMP14FtSWevGxt01QT1Gv56JeOyu8/G7S3sH9ThEFBgWAAot9aX+NQJskaKTmE6YzYLX543HNZf1gYXv8hPpnjnXU6UzCmQyFptV5B9/GZL9uMDjm1dkhA3X/SabF38ig2ABoGYlRyu/OZSWGKZiEgXc9YCzVGyGILLodI5cveYiouaxAFCzBqYrf0f7vD7i12qXHPmAV/s167WQnKDPxxvJifrMRUTNYwGgZp2THotgC30AAA+MSURBVIXeyRHt3q5v10gM7CW+AED2Qao76Z/ZJsRkpOrg+9uMjFQuykRkJCwA1CxJAh67JKPd2z31Bx2NwG+yh+SjgKzOseimw8l0xgztLDoCEbUDCwC1aFLfeNw1Mq3NX3/fNRmYPCIhiInaT6rPBzxO0TFUd/m4HqIj/MqUi3uKjkBE7cACQK16YkJnzBnfGeG2lgd4RYRbMP+PWfr69P8TWYZUewyANqvbaeUvtwxGVIR+3uK97MLuOCc7WXQMImoHFgA6o7tHpWHLzP6YOSoNZ6VFIjrcgphIKwb0iML912Zg7+KB+Ms0Hc/25mkA6nJFp1BVRmoM7pkxSHQMAEBEByvm/WWk6BhE1E76+QhButYlPhyzx3fG7PH+57xxo421hKvkLAfCOkKOCJ1PqY/PHI5dB8uxav1JoTleemwszuqVJDQDEbUf7wCQedhPAJ560SlUY7VIWPLsREwc003I8cNsFrw8eyxmXHmWkOMTUWBYAMg8ZBlSzRFIPrfoJKqJjQnH8n9fjjl/GoHoSO0mYDqrVxJWvTkVt08boNkxiUhdfARA5uJ1AbXHgIRsAKExc53VIuHhPw7Frb/rj9fe24MVa45h75FK1Y8T0cGKsednYtplfTDtsuyAposmIvFYAMh8XHZItccgx/USnURVaclRmD1zOGbPHA67w4WiMgfKKp3weAKbDCkq0obOaTFIS45CeBiXWiYKFSwAZE6NVYC1CIhp/2RHRhAbE47YmET07ZEoOgoR6RTHAJBpSfUFkBorRMcgIhKCBYDMrfYE0FQjOgURkeZYAMjkZEi1R4GmWtFBiIg0xTEARLIPUu0RID4bcnhH0WlUUVndgO/2lKCkvB5VtU2K92OzSkhNikL3LnEYek4abFZ+ZiAKFSwARAAg+4Caw0BCXyBMn8vtnoksA++vPIQ3lu1Fzs4ieH3qLoWcENsBl13UAw/8/jwOLiQKAazzRD+RvZCqDwAuu+gk7bbrQDlGXfMebn7wf9i4vVD1iz8AVNub8PaKAxhy5Tu4Z+43aGjyqH4MItIOCwDRqWQfpJrDgMs4YwI+Wn0UF8/4EDv3l2lyPI/Xh9ff/wEXT/8QhaUOTY5JROpjASD6pZ9KQFO16CRntHpjLqbf/yXqG7Sf3njn/jJMvO0jVNuVjzEgInFYAIia8+O6AXCWik7SooPHq3DDfV8G5XZ/Wx05WYPp938JWVwEIlKIgwCpTfJrXHhzaznWHrUjr6YJkgXonh6BCcPicceUNGR16iA6YlBIdbmApxFyx66ApK+57+97ej3q6l2iY+DrzXlYtuowpk3qIzoKEbUD7wBQq2QZeHljKUa8vA8LNpfiYFkDnC4f6ht92HvCiRfeL8KAm3fjH+8XiY4aPA2l/rkC4BOd5GfrvivAmpw80TF+NudfOfB49fP9IaIzYwGgVj2xugBzvy6Ey9vyPd4mtw+PvJ6HBxfmaphMY03VQNVBwCf+EzcALPlkv+gIpzlRUIvNO0O4BBKFIBYAatEXB2rwak7bR5a/uKwYn23S/8A5pSS3A6jcBzSJfU3Q4/Vh1YaTQjM057O1x0VHIKJ2YAGgZskyMO/rwnZv9+gbeSE9IEzyuSHVHATqi4VlyCuqQ1VNo7Djt+T7A+WiIxBRO7AAULN2FTlxrLL9r3cdymvArqP1QUikL5Ij3/+WgE/7yXBKyvX5/S0u02cuImoeCwA1a0+xU/G2Ow6Z5ELQVA2p8gfNFxKq1OGnfwCoqFJ+zhCR9lgAqFmVTuWfbMtrtJ+URhifG1LNIUj2XGj17MOn02cs+kxFRC1hAaBmBTK5jKeVNwZCVkMppKp9gNskdz+IyPA4ERCRWjxOSNX7IUekAB27ApL++nX3jEhMHJHU4r83uX1YtIKv8xGZAQsAkZpkGVJDGeCqhRzbDQiPE53oNH26RuHBGVkt/rvD6WUBIDIJ/X1EIQoF3iZI1Yf8rwx6GkSnISL6Fd4BIF0or3HjrdUVWLmlGocLGlBV60FinA19ukRi8ogE3DghBclxBjxdm+yQmvYCkamQO3YBJKvoRKSRiuoGLP30AFauO4EjuTWoqmlEYnwEemfFY/JF3TH9in5ISogUHZNMzIB/USmUyLJ/BsGnlhbA7vSe9m8llW6UVLqxfrcdf19SgEdndMGsq9L1tiZPG8j+QYJNlZBjOgMRqbpbWIjUI8vAi4t34umFW2F3nD51dEl5PUrK67FheyGeWrgVj9wxDLNuGszTgYRgASBhPF4ZNz91FMvWVZ7xa+1OLx5cmIsdhxz478O9YLMa8C+mz+N/XdBRDDm6ExCZxiIQYjxeH255cDWWrTp8xq+1O1x46PmN2LmvDIvmT4DNyieypC2ecSTMfa+cbNPF/1QffFOJB141+KJDPhekujxIlXv8AwZ1+l4/td/989e36eJ/qg++PIy/PrshSImIWsYCQEKs323Hwk9LFW274OMSrPte7II8qvA2AfaTQPn3kOoLIflMNIFSCNqwvRAL392jaNsFb+/Guu8KVE5E1DoWABJizqL8gLafuziw7fVEkj2AoxCo2A3YcwEPp9Q1otn/2hzQ9nMXbFEpCVHbcAwAaa6owoWcfXUB7WPT3joUlrvQOSVcpVQ6IPsgNZQCDaWALRqISoEckazqhEInihrw6vKWP2m6PHwcoURRmQNbdgW2QuTmnUUoLHWgc1qMSqmIWscCQJrbsMce8GNvWQY276vD1Re1PKudoXnqAXs9JEc+5IhEoEMSENYx4EGDh/OceGaJwcdQ6NCG7UXqnNPfF+HqiX3UCUV0BiwApLmiCnWedReWu878RUbn80JylgPOcsiWMP/Mgm5OLKQ3RWUOVfZTWKLOfojaggWANKfWm28Wk71BJ/ncQGMFrM5q0VGaZbIfx2nU+n+3mO2kJqE4CJA0l54Ups5+kkPo+X87JOl0RsSUpCjREYRJT1XnuX16arQq+yFqCxYA0tzoc2IDvgsgScDI/h3VCWQw6Un6LD7pKea9eI0ekqHOOT0oQ51ARG3AAkCay0gOx4gAL96jzu4YWm8AtEPXtHBdrosw6KxU0RGEyUiNwfBz0wPax8jBGXwDgDSlv78iZApP3pqJ8ffuV7z97JszVUxjLFaLhEnnJ2Dp6nLRUU4z5YIUoLFKdAxh/nbn2Rj/B+WvAs6+vX/L3z+uKElBwAJAQowZGIs7f9sJr35S0u5tZ07thAvPjQ1CKuOYMTFFVwWgZ+cIjOhWC6k2BGZoVGhMTwR0Tl/Uuw6obWF+DBMXKwoePgIgYZ6/KwvTxrbvPf5pY5PwzB1ZQUpkHGMGxmLC0HjRMX4297ZMYy7QpDKe02QkLAAkjM0qYcmjvfHsnVmIi7a2+rVx0VY8f1cWljzamxeaH/3j7izERrX+fdPCpcPiMXVMiE7I1E48p8lI+AiAhJIkYNZV6bhhfAre/qocX+RU43B+Iypr3UiKC0N21whMHp6AGyakICmWp+up+mRG4p3ZvXHFI4fg9YmZwrdPZiSWPNqLqxqfguc0GQXPPtKF5DgbZl2VjllXBTaS2mzGD43H8rnZmPH3I7A7vZoee2CvaCyf2wfxMfwz0hy9nNO+Jhc8dmUzDPqaTDDbponxEQCRwU0aHo81L/bHednavIdvs0q444o0fPtSf2SmdtDkmESkPlZ3ohBwTs8obHplAJatq8R/PivFph/qVH8skBRrw+QRCXjgugz0yYxUdd9EpD0WAKIQIUn+EeXTxiah0u7BtgMOFFW6UFThQkOTT9E+k2Jt6JQUjh4ZHTC0bwysnKueKGSwABCFoKRYGyaer5/XBIlIfzgGgIiIyIRYAIiIiEyIjwBIdfOWFGDekgLRMYiIqBW8A0BERGRCLABEREQmxAJARERkQiwAREREJsQCQEREZEIsAERERCbEAkDN4pSvRKGBv8vUEhYAalZyNKeIIAoFqVyumVrAAkDNGpgeJToCEang3Axtlokm42EBoGadkx6F3skRomMQUQD6pETg7E5cupmaxwJAzZIk4LFLMkTHIKIAPH5JZ9ERSMdYAKhFk/rG466RaaJjEJECM0el4dLsONExSMc4OoRa9cSEzkiJtuHpb4rg8sii4xDRGXSwWfDwuHSWdzojFgA6o7tHpeGK/glYtK0ca4/akVvdhHqXT3QsIvpRdLgFWQkdcHHvWNwyNAVd4sJFRyIDYAGgNukSH47Z4ztj9ng+UyQiCgUcA0BERGRCLABEREQmxAJARERkQiwA+udRuqHLy1H7RKRcgH9DFP/tIm2wAOhfvdINyxxuNXMQkckU212BbF6nVg4KDhYA/VP8S3SyqknNHERkMnk1LAChjAVA/wqUbri9oB41DV41sxCRSVQ3eLA9X/ENSADIVysLBQcLgP4dVLqh2yvj8wPVamYhIpP4bH8NPL6AxgAcUisLBQcLgP7lIYBbaS+sL0GTh7P2EVHbNbp9+Of6kkB2YQfvAOgeC4D++QBsULpxQY0Lz60L6BeZiEzmmXXFKKwN6Pn/egB8DUnnWACM4ZtANn55YwmW/1ClVhYiCmEf7qnCgk2lge5mrRpZKLisogNQmxQBmAVAUrqDVYdq0cFqwfldY9RLRUQhZcmOCtz3WR4Ce/QPGcBdAGpUCUVBwwJgDDUALgHQVekOZBlYf7wOe4qdOLtTFJKiuQ4UEfkdKm/Enz/Nxas5ZYFe/AH/I8t/Bp6Kgk3xJ0rS3AwAi9XYkc0iYWyvWEzMjsPQzGikxYQhIYqFgMgsqpwelNa5sa2gHqsO1mLdMXugI/5PNR3AW2rtjIKHBcA4wuB/raa76CBERC04DiAbnAbYEDgI0DjcAJ4WHYKIqBXzwIu/YfAOgLFYAGwGcL7oIEREv7ANwHD4X10mA2ABMJ4hAHIA8KE9EemFG/6L/07RQajt+BaA8RQBcMH/VgARkR48BGC56BDUPrwDYEwSgBUAfiM6CBGZ3qcArgRn/jMcFgDjigLwFYCRooMQkWltBTAOQEDLBpIYfAvAuJwArgCwW3QQIjKlXQAuAy/+hsUCYGwVAC6A/04AEZFW1gG4CECl2BgUCA4CND4XgGUAkgAMFZyFiELfK/DPTMpP/gbHMQChZRr8v5zJooMQUcgph3+Rnw9FByF18A5AaNkHYBGABACDwIJHRIHzAngdwFQAOwRnIRXxAhG6egB4EMAt8K8jQETUHm4A7wF4CsBBwVkoCFgAQl8nANcBuAHAYPBnTkQt88E/m9/bAN4FUCo2DgUTLwbmkgL/yN2hAPoC6AX/4MEY+OcVICJzcAJwwD+K/wj8K41uhX90f4W4WKSl/wNdXy4df9+3HAAAAABJRU5ErkJggg==;" parent="1" vertex="1">
          <mxGeometry x="1052.38" y="1083.9099999999999" width="55.25" height="55.25" as="geometry" />
        </mxCell>
        <mxCell id="LN-XwHLoH8wJf_DFHqXR-33" value="" style="rounded=1;whiteSpace=wrap;html=1;fillColor=none;dashed=1;strokeWidth=3;strokeColor=#4A919B;" parent="1" vertex="1">
          <mxGeometry x="898" y="1117.43" width="117" height="109.87" as="geometry" />
        </mxCell>
        <mxCell id="LN-XwHLoH8wJf_DFHqXR-34" value="" style="shape=image;verticalLabelPosition=bottom;verticalAlign=top;imageAspect=0;aspect=fixed;image=data:image/svg+xml,PHN2ZyB4bWxuczp4bGluaz0iaHR0cDovL3d3dy53My5vcmcvMTk5OS94bGluayIgeG1sbnM9Imh0dHA6Ly93d3cudzMub3JnLzIwMDAvc3ZnIiBoZWlnaHQ9IjIwMCIgd2lkdGg9IjIwMCIgdmVyc2lvbj0iMS4xIiB2aWV3Qm94PSIwIDAgMTAyNCAxMDI0IiBjbGFzcz0iaWNvbiI+PHBhdGggZmlsbD0iIzRBOTE5QiIgZD0iTTg4Ni43IDI0Ny42TDcxMy40IDczLjRjLTYtNi0xNC4yLTkuNC0yMi43LTkuNEgxOTJjLTM1LjMgMC02NCAyOC43LTY0IDY0djc2OGMwIDM1LjMgMjguNyA2NCA2NCA2NGg2NDBjMzUuMyAwIDY0LTI4LjcgNjQtNjRWMjcwLjJjMC04LjUtMy4zLTE2LjYtOS4zLTIyLjZ6TTgzMiA4NjRjMCAxNy43LTE0LjMgMzItMzIgMzJIMjI0Yy0xNy43IDAtMzItMTQuMy0zMi0zMlYxNjBjMC0xNy43IDE0LjMtMzIgMzItMzJoMzg0djE2MGMwIDM1LjMgMjguNyA2NCA2NCA2NGgxNjB2NTEyek03MDQgMjg4Yy0xNy43IDAtMzItMTQuMy0zMi0zMlYxMjhsMTYwIDE2MEg3MDR6Ii8+PHBhdGggZmlsbD0iIzRBOTE5QiIgZD0iTTY3MSA2NzJIMjg3Yy0xNy43IDAtMzIgMTQuMy0zMiAzMnMxNC4zIDMyIDMyIDMyaDM4NGMxNy43IDAgMzItMTQuMyAzMi0zMnMtMTQuMy0zMi0zMi0zMnpNMjg3IDQ4MGMtMTcuNyAwLTMyIDE0LjMtMzIgMzJzMTQuMyAzMiAzMiAzMmgzODRjMTcuNyAwIDMyLTE0LjMgMzItMzJzLTE0LjMtMzItMzItMzJIMjg3ek0yODcgMzUyaDE5MmMxNy43IDAgMzItMTQuMyAzMi0zMnMtMTQuMy0zMi0zMi0zMkgyODdjLTE3LjcgMC0zMiAxNC4zLTMyIDMyczE0LjMgMzIgMzIgMzJ6Ii8+PC9zdmc+" parent="1" vertex="1">
          <mxGeometry x="933.75" y="1132.43" width="46" height="46" as="geometry" />
        </mxCell>
        <mxCell id="LN-XwHLoH8wJf_DFHqXR-35" value="&lt;font style=&quot;font-size: 14px;&quot; color=&quot;#4a909b&quot;&gt;socket文件&lt;/font&gt;" style="text;html=1;strokeColor=none;fillColor=none;align=center;verticalAlign=middle;whiteSpace=wrap;rounded=0;" parent="1" vertex="1">
          <mxGeometry x="913.75" y="1176.43" width="86" height="30" as="geometry" />
        </mxCell>
        <mxCell id="LN-XwHLoH8wJf_DFHqXR-36" value="" style="shape=image;verticalLabelPosition=bottom;labelBackgroundColor=default;verticalAlign=top;aspect=fixed;imageAspect=0;image=data:image/svg+xml,PHN2ZyB4bWxuczp4bGluaz0iaHR0cDovL3d3dy53My5vcmcvMTk5OS94bGluayIgeG1sbnM9Imh0dHA6Ly93d3cudzMub3JnLzIwMDAvc3ZnIiBoZWlnaHQ9IjEyOCIgd2lkdGg9IjEyOC4xMjUiIHZlcnNpb249IjEuMSIgdmlld0JveD0iMCAwIDEwMjUgMTAyNCIgY2xhc3M9Imljb24iPjxwYXRoIGZpbGw9IiM0QTkxOUIiIGQ9Ik0yMDguMSAzMDQuOGMzNy4zIDAgNjkuNCA4IDk2LjYgMjEuNnYtMjkuNWMwLTE1LjYtMTIuNy0yOC4zLTI4LjMtMjguM0gxMzAuM2MtMTUuNiAwLTI4LjMgMTIuNy0yOC4zIDI4LjN2MzQuNGMyOS4xLTE2LjYgNjQuNC0yNi41IDEwNi4xLTI2LjV6TTgyMC45IDMwNC44Yy0zNy4zIDAtNjkuNCA4LTk2LjYgMjEuNnYtMjkuNWMwLTE1LjYgMTIuNy0yOC4zIDI4LjMtMjguM2gxNDYuMmMxNS42IDAgMjguMyAxMi43IDI4LjMgMjguM3YzNC40Yy0yOS4yLTE2LjYtNjQuNS0yNi41LTEwNi4yLTI2LjV6Ii8+PHBhdGggZmlsbD0iIzRBOTE5QiIgZD0iTTg0NC41IDQ1NC40YzE0LjgtMTQuOCAxNC44LTM4LjggMC01My41LTE0LjgtMTQuOC0zOC44LTE0LjgtNTMuNSAwLTE0LjggMTQuOC0xNC44IDM4LjggMCA1My41IDE0LjcgMTQuOCAzOC43IDE0LjggNTMuNSAweiIvPjxwYXRoIGZpbGw9IiM0QTkxOUIiIGQ9Ik05NDMuNSA0OTkuOWMtMTQuOC0xNC44LTM4LjctMTQuOC01My41IDAtMTQuOCAxNC44LTE0LjggMzguOCAwIDUzLjUgMTQuOCAxNC44IDM4LjggMTQuOCA1My41IDAgMTQuOC0xNC43IDE0LjgtMzguNyAwLTUzLjV6TTY5Ni42IDQ5NS4yYy0xNC44IDE0LjgtMTQuOCAzOC44IDAgNTMuNSAxNC44IDE0LjggMzguOCAxNC44IDUzLjUgMCAxNC44LTE0LjggMTQuOC0zOC44IDAtNTMuNS0xNC44LTE0LjctMzguOC0xNC43LTUzLjUgMHoiLz48cGF0aCBmaWxsPSIjNEE5MTlCIiBkPSJNNzk1LjYgNTk0LjNjLTE0LjggMTQuOC0xNC44IDM4LjggMCA1My41IDE0LjggMTQuOCAzOC44IDE0LjggNTMuNiAwIDE0LjgtMTQuOCAxNC44LTM4LjggMC01My41LTE0LjktMTQuOC0zOC44LTE0LjgtNTMuNiAweiIvPjxwYXRoIGZpbGw9IiM0QTkxOUIiIGQ9Ik0xNzQuMSAzNzkuNmMtMy45IDAtNy4xIDMuMi03LjEgNy4xdjQxLjljMCAzLjkgMi41IDkuMSA1LjUgMTEuNWwyOC41IDIyLjhjMyAyLjQgOCAyLjQgMTEgMGwyOC42LTIyLjhjMy0yLjQgNS41LTcuNiA1LjUtMTEuNXYtNDEuOWMwLTMuOS0zLjItNy4xLTcuMS03LjFoLTY0Ljl6TTYyIDU1Ni42YzAgMy45IDMuMiA3LjEgNy4xIDcuMUgxMTFjMy45IDAgOS4xLTIuNSAxMS41LTUuNWwyMi44LTI4LjVjMi41LTMgMi41LTggMC0xMWwtMjIuOC0yOC42Yy0yLjQtMy03LjYtNS41LTExLjUtNS41SDY5Yy0zLjkgMC03LjEgMy4yLTcuMSA3LjF2NjQuOXpNMjM5LjEgNjY4LjhjMy45IDAgNy4xLTMuMiA3LjEtNy4xdi00MS45YzAtMy45LTIuNS05LjEtNS41LTExLjVsLTI4LjUtMjIuOGMtMy0yLjQtOC0yLjQtMTEgMGwtMjguNSAyMi44Yy0zIDIuNC01LjUgNy42LTUuNSAxMS41bC0wLjEgNDEuOWMwIDMuOSAzLjIgNy4xIDcuMSA3LjFoNjQuOXpNMzUxLjIgNDkxLjdjMC0zLjktMy4yLTcuMS03LjEtNy4xaC00MS45Yy0zLjkgMC05IDIuNS0xMS41IDUuNWwtMjIuOCAyOC41Yy0yLjQgMy0yLjQgOCAwIDExbDIyLjggMjguNWMyLjQgMyA3LjYgNS41IDExLjUgNS41bDQxLjkgMC4xYzMuOSAwIDcuMS0zLjIgNy4xLTcuMXYtNjQuOXoiLz48cGF0aCBmaWxsPSIjNEE5MTlCIiBkPSJNNzc2LjEgMTYuM2MtOTIgMC0xNjIuOCAyNi41LTIxMC41IDc4LjctNjMuNCA2OS40LTY1LjUgMTYxLjctNjQuNSAxODkuMmgyOC4zYy0wLjctMjEuNyAwLjItMTA4IDU3LjMtMTcwLjMgNDIuMS00NiAxMDUuOS02OS4zIDE4OS40LTY5LjMgNy44IDAgMTQuMS02LjMgMTQuMS0xNC4xcy02LjMtMTQuMi0xNC4xLTE0LjJ6Ii8+PHBhdGggZmlsbD0iIzRBOTE5QiIgZD0iTTgxNC4xIDMxNC4zYy00NC45IDAtODYuNCAxNC4xLTEyMC42IDM3LjloLTIxLjljLTUuMi0xOC4xLTIxLjctMzEuNC00MS41LTMxLjRINTg3di0xLjZjMC0xNS42LTEyLjctMjguMy0yOC4zLTI4LjNoLTg3LjJjLTE1LjYgMC0yOC4zIDEyLjctMjguMyAyOC4zdjEuNmgtNDYuOWMtMTkuOCAwLTM2LjIgMTMuMy00MS41IDMxLjRoLTIxLjljLTM0LjItMjMuOS03NS43LTM3LjktMTIwLjYtMzcuOS0xMTYuNiAwLTIxMS4xIDk0LjUtMjExLjEgMjExLjF2NDI0LjJjMCA0NyA0MCA3OS4yIDkzLjYgMTkuOSA1MC42LTU1LjkgMTkyLjktMTk1LjkgMjU3LjktMjY4LjIgMS0wLjkgMi0xLjkgMy4xLTIuOCAxNC44IDE1IDM1LjMgMjQuNCA1OCAyNC40IDM3LjcgMCA2OS4yLTI1LjggNzguNC02MC42aDQyYzkuMyAzNC44IDQwLjcgNjAuNiA3OC40IDYwLjYgMjIuNyAwIDQzLjItOS4zIDU4LTI0LjQgMSAxIDIuMSAxLjkgMy4xIDIuOCA2NSA3Mi4zIDIwNy4zIDIxMi4zIDI1Ny45IDI2OC4yIDUzLjYgNTkuMyA5My42IDI3LjEgOTMuNi0xOS45VjUyNS40YzAtMTE2LjYtOTQuNS0yMTEuMS0yMTEuMS0yMTEuMXpNMjA2LjYgNzA0Yy05OS4zIDAtMTc5LjgtODAuNS0xNzkuOC0xNzkuOHM4MC41LTE3OS44IDE3OS44LTE3OS44Yzk5LjMgMCAxNzkuOCA4MC41IDE3OS44IDE3OS44UzMwNS45IDcwNCAyMDYuNiA3MDR6IG0yNzAuMS04My4zYzAgMy43LTIuOCA1LjYtNi4zIDQuMmwtNDMuMS0xOGMtMy41LTEuNS0zLjUtMy44IDAtNS4zbDQzLjEtMThjMy40LTEuNCA2LjMgMC40IDYuMyA0LjJ2MzIuOXpNNTk5IDYwNi45bC00MyAxOGMtMy41IDEuNC02LjMtMC40LTYuMy00LjJ2LTMyLjhjMC0zLjcgMi44LTUuNiA2LjMtNC4ybDQzIDE4YzMuNSAxLjQgMy41IDMuNyAwIDUuMnpNODE5LjkgNzA0Yy05OS4zIDAtMTc5LjgtODAuNS0xNzkuOC0xNzkuOHM4MC41LTE3OS44IDE3OS44LTE3OS44Yzk5LjMgMCAxNzkuOCA4MC41IDE3OS44IDE3OS44UzkxOS4yIDcwNCA4MTkuOSA3MDR6Ii8+PC9zdmc+;" parent="1" vertex="1">
          <mxGeometry x="929.75" y="1054.93" width="50" height="50" as="geometry" />
        </mxCell>
        <mxCell id="LN-XwHLoH8wJf_DFHqXR-37" value="&lt;font style=&quot;font-size: 14px;&quot; color=&quot;#4a909b&quot;&gt;socket_fd&lt;/font&gt;" style="text;html=1;strokeColor=none;fillColor=none;align=center;verticalAlign=middle;whiteSpace=wrap;rounded=0;" parent="1" vertex="1">
          <mxGeometry x="911.75" y="1031.4300000000003" width="86" height="30" as="geometry" />
        </mxCell>
        <mxCell id="LN-XwHLoH8wJf_DFHqXR-38" value="&lt;font color=&quot;#808080&quot;&gt;内核空间&lt;/font&gt;" style="text;html=1;strokeColor=none;fillColor=none;align=center;verticalAlign=middle;whiteSpace=wrap;rounded=0;" parent="1" vertex="1">
          <mxGeometry x="924.75" y="1197.3" width="60" height="30" as="geometry" />
        </mxCell>
        <mxCell id="LN-XwHLoH8wJf_DFHqXR-39" value="&lt;font color=&quot;#ffffff&quot;&gt;socket&lt;/font&gt;" style="rounded=1;whiteSpace=wrap;html=1;strokeColor=none;fillColor=#4A909B;" parent="1" vertex="1">
          <mxGeometry x="907" y="1107.43" width="97" height="18.63" as="geometry" />
        </mxCell>
        <mxCell id="LN-XwHLoH8wJf_DFHqXR-40" value="" style="endArrow=none;html=1;rounded=0;strokeColor=#FDD276;startArrow=classic;startFill=1;strokeWidth=2;dashed=1;" parent="1" edge="1">
          <mxGeometry width="50" height="50" relative="1" as="geometry">
            <mxPoint x="954.6500000000001" y="1132.43" as="sourcePoint" />
            <mxPoint x="954.6500000000001" y="1088.06" as="targetPoint" />
          </mxGeometry>
        </mxCell>
        <mxCell id="LN-XwHLoH8wJf_DFHqXR-41" value="&lt;font color=&quot;#808080&quot;&gt;用户空间&lt;/font&gt;" style="text;html=1;strokeColor=none;fillColor=none;align=center;verticalAlign=middle;whiteSpace=wrap;rounded=0;" parent="1" vertex="1">
          <mxGeometry x="929.75" y="940.58" width="60" height="30" as="geometry" />
        </mxCell>
        <mxCell id="LN-XwHLoH8wJf_DFHqXR-42" value="&lt;font style=&quot;font-size: 14px;&quot; color=&quot;#4a909b&quot;&gt;客户端C&lt;/font&gt;" style="text;html=1;strokeColor=none;fillColor=none;align=center;verticalAlign=middle;whiteSpace=wrap;rounded=0;" parent="1" vertex="1">
          <mxGeometry x="1038.5" y="1163.54" width="86" height="30" as="geometry" />
        </mxCell>
        <mxCell id="LN-XwHLoH8wJf_DFHqXR-43" value="" style="shape=flexArrow;endArrow=classic;startArrow=classic;html=1;rounded=0;strokeColor=none;fillColor=#FDD276;" parent="1" edge="1">
          <mxGeometry width="100" height="100" relative="1" as="geometry">
            <mxPoint x="328" y="941.9999999999999" as="sourcePoint" />
            <mxPoint x="391" y="941.9999999999999" as="targetPoint" />
          </mxGeometry>
        </mxCell>
        <mxCell id="LN-XwHLoH8wJf_DFHqXR-44" value="" style="shape=flexArrow;endArrow=classic;startArrow=classic;html=1;rounded=0;strokeColor=none;fillColor=#FDD276;" parent="1" edge="1">
          <mxGeometry width="100" height="100" relative="1" as="geometry">
            <mxPoint x="807" y="1068.1299999999999" as="sourcePoint" />
            <mxPoint x="870" y="1068.1299999999999" as="targetPoint" />
          </mxGeometry>
        </mxCell>
        <mxCell id="yEDIbU11GkPMaYCyJ-ew-4" value="" style="shape=image;verticalLabelPosition=bottom;labelBackgroundColor=default;verticalAlign=top;aspect=fixed;imageAspect=0;image=data:image/svg+xml,PHN2ZyB4bWxuczp4bGluaz0iaHR0cDovL3d3dy53My5vcmcvMTk5OS94bGluayIgeG1sbnM9Imh0dHA6Ly93d3cudzMub3JnLzIwMDAvc3ZnIiBoZWlnaHQ9IjEyOCIgd2lkdGg9IjEyOCIgdmVyc2lvbj0iMS4xIiB2aWV3Qm94PSIwIDAgMTAyNCAxMDI0IiBjbGFzcz0iaWNvbiI+PHBhdGggZmlsbD0iIzRBOTE5QiIgZD0iTTUxMiAwQzIyNy4zMjggMCAwIDIyNy4zMjggMCA1MTJzMjI3LjMyOCA1MTIgNTEyIDUxMiA1MTItMjI3LjMyOCA1MTItNTEyYzAtMjguNjcyLTE4Ljk0NC00Ny42MTYtNDcuNjE2LTQ3LjYxNi0yOC42NzIgMC00Ny42MTYgMTguOTQ0LTQ3LjYxNiA0Ny42MTYgMCAyMjcuMzI4LTE4OS40NCA0MTcuMjgtNDE3LjI4IDQxNy4yOC0yMjcuMzI4IDAtNDE3LjI4LTE4OS40NC00MTcuMjgtNDE3LjI4IDAtMjI3LjMyOCAxODkuNDQtNDE3LjI4IDQxNy4yOC00MTcuMjggNzUuNzc2IDAgMTYxLjI4IDE4Ljk0NCAyMTguMTEyIDY2LjU2djkuNzI4bC00Ny42MTYgNTYuODMyYy0xOC45NDQgMTguOTQ0IDAgNTYuODMyIDI4LjY3MiA1Ni44MzJsMjE4LjExMiA5LjcyOGMxOC45NDQgMCAzNy44ODgtMjguNjcyIDM3Ljg4OC00Ny42MTZsLTY2LjU2LTIwOC4zODRjLTkuNzI4LTI4LjY3Mi00Ny42MTYtMzcuODg4LTY2LjU2LTkuNzI4bC0zNy44ODggNTYuODMyQzcxMS4xNjggMjguNjcyIDYxNi40NDggMCA1MTIgMHoiLz48L3N2Zz4=;" parent="1" vertex="1">
          <mxGeometry x="568.6099999999999" y="945.6800000000002" width="59.78" height="59.78" as="geometry" />
        </mxCell>
        <mxCell id="yEDIbU11GkPMaYCyJ-ew-5" value="&lt;font color=&quot;#4a909b&quot;&gt;&lt;span style=&quot;font-size: 14px;&quot;&gt;线程&lt;/span&gt;&lt;/font&gt;" style="text;html=1;strokeColor=none;fillColor=none;align=center;verticalAlign=middle;whiteSpace=wrap;rounded=0;" parent="1" vertex="1">
          <mxGeometry x="555.5" y="960.5700000000002" width="86" height="30" as="geometry" />
        </mxCell>
        <mxCell id="yEDIbU11GkPMaYCyJ-ew-8" value="" style="shape=image;verticalLabelPosition=bottom;labelBackgroundColor=default;verticalAlign=top;aspect=fixed;imageAspect=0;image=data:image/svg+xml,PHN2ZyB4bWxuczp4bGluaz0iaHR0cDovL3d3dy53My5vcmcvMTk5OS94bGluayIgeG1sbnM9Imh0dHA6Ly93d3cudzMub3JnLzIwMDAvc3ZnIiBoZWlnaHQ9IjEyOCIgd2lkdGg9IjEyOCIgdmVyc2lvbj0iMS4xIiB2aWV3Qm94PSIwIDAgMTAyNCAxMDI0IiBjbGFzcz0iaWNvbiI+PHBhdGggZmlsbD0iIzRBOTE5QiIgZD0iTTUxMiAwQzIyNy4zMjggMCAwIDIyNy4zMjggMCA1MTJzMjI3LjMyOCA1MTIgNTEyIDUxMiA1MTItMjI3LjMyOCA1MTItNTEyYzAtMjguNjcyLTE4Ljk0NC00Ny42MTYtNDcuNjE2LTQ3LjYxNi0yOC42NzIgMC00Ny42MTYgMTguOTQ0LTQ3LjYxNiA0Ny42MTYgMCAyMjcuMzI4LTE4OS40NCA0MTcuMjgtNDE3LjI4IDQxNy4yOC0yMjcuMzI4IDAtNDE3LjI4LTE4OS40NC00MTcuMjgtNDE3LjI4IDAtMjI3LjMyOCAxODkuNDQtNDE3LjI4IDQxNy4yOC00MTcuMjggNzUuNzc2IDAgMTYxLjI4IDE4Ljk0NCAyMTguMTEyIDY2LjU2djkuNzI4bC00Ny42MTYgNTYuODMyYy0xOC45NDQgMTguOTQ0IDAgNTYuODMyIDI4LjY3MiA1Ni44MzJsMjE4LjExMiA5LjcyOGMxOC45NDQgMCAzNy44ODgtMjguNjcyIDM3Ljg4OC00Ny42MTZsLTY2LjU2LTIwOC4zODRjLTkuNzI4LTI4LjY3Mi00Ny42MTYtMzcuODg4LTY2LjU2LTkuNzI4bC0zNy44ODggNTYuODMyQzcxMS4xNjggMjguNjcyIDYxNi40NDggMCA1MTIgMHoiLz48L3N2Zz4=;" parent="1" vertex="1">
          <mxGeometry x="205.60999999999996" y="782.0000000000001" width="59.78" height="59.78" as="geometry" />
        </mxCell>
        <mxCell id="yEDIbU11GkPMaYCyJ-ew-9" value="&lt;font color=&quot;#4a909b&quot;&gt;&lt;span style=&quot;font-size: 14px;&quot;&gt;线程&lt;/span&gt;&lt;/font&gt;" style="text;html=1;strokeColor=none;fillColor=none;align=center;verticalAlign=middle;whiteSpace=wrap;rounded=0;" parent="1" vertex="1">
          <mxGeometry x="192.5" y="796.8900000000001" width="86" height="30" as="geometry" />
        </mxCell>
        <mxCell id="yEDIbU11GkPMaYCyJ-ew-10" value="" style="shape=image;verticalLabelPosition=bottom;labelBackgroundColor=default;verticalAlign=top;aspect=fixed;imageAspect=0;image=data:image/svg+xml,PHN2ZyB4bWxuczp4bGluaz0iaHR0cDovL3d3dy53My5vcmcvMTk5OS94bGluayIgeG1sbnM9Imh0dHA6Ly93d3cudzMub3JnLzIwMDAvc3ZnIiBoZWlnaHQ9IjEyOCIgd2lkdGg9IjEyOCIgdmVyc2lvbj0iMS4xIiB2aWV3Qm94PSIwIDAgMTAyNCAxMDI0IiBjbGFzcz0iaWNvbiI+PHBhdGggZmlsbD0iIzRBOTE5QiIgZD0iTTUxMiAwQzIyNy4zMjggMCAwIDIyNy4zMjggMCA1MTJzMjI3LjMyOCA1MTIgNTEyIDUxMiA1MTItMjI3LjMyOCA1MTItNTEyYzAtMjguNjcyLTE4Ljk0NC00Ny42MTYtNDcuNjE2LTQ3LjYxNi0yOC42NzIgMC00Ny42MTYgMTguOTQ0LTQ3LjYxNiA0Ny42MTYgMCAyMjcuMzI4LTE4OS40NCA0MTcuMjgtNDE3LjI4IDQxNy4yOC0yMjcuMzI4IDAtNDE3LjI4LTE4OS40NC00MTcuMjgtNDE3LjI4IDAtMjI3LjMyOCAxODkuNDQtNDE3LjI4IDQxNy4yOC00MTcuMjggNzUuNzc2IDAgMTYxLjI4IDE4Ljk0NCAyMTguMTEyIDY2LjU2djkuNzI4bC00Ny42MTYgNTYuODMyYy0xOC45NDQgMTguOTQ0IDAgNTYuODMyIDI4LjY3MiA1Ni44MzJsMjE4LjExMiA5LjcyOGMxOC45NDQgMCAzNy44ODgtMjguNjcyIDM3Ljg4OC00Ny42MTZsLTY2LjU2LTIwOC4zODRjLTkuNzI4LTI4LjY3Mi00Ny42MTYtMzcuODg4LTY2LjU2LTkuNzI4bC0zNy44ODggNTYuODMyQzcxMS4xNjggMjguNjcyIDYxNi40NDggMCA1MTIgMHoiLz48L3N2Zz4=;" parent="1" vertex="1">
          <mxGeometry x="925.6099999999999" y="970.58" width="59.78" height="59.78" as="geometry" />
        </mxCell>
        <mxCell id="yEDIbU11GkPMaYCyJ-ew-11" value="&lt;font color=&quot;#4a909b&quot;&gt;&lt;span style=&quot;font-size: 14px;&quot;&gt;线程&lt;/span&gt;&lt;/font&gt;" style="text;html=1;strokeColor=none;fillColor=none;align=center;verticalAlign=middle;whiteSpace=wrap;rounded=0;" parent="1" vertex="1">
          <mxGeometry x="912.5" y="985.47" width="86" height="30" as="geometry" />
        </mxCell>
        <mxCell id="yEDIbU11GkPMaYCyJ-ew-12" value="" style="shape=image;verticalLabelPosition=bottom;labelBackgroundColor=default;verticalAlign=top;aspect=fixed;imageAspect=0;image=data:image/svg+xml,PHN2ZyB4bWxuczp4bGluaz0iaHR0cDovL3d3dy53My5vcmcvMTk5OS94bGluayIgeG1sbnM9Imh0dHA6Ly93d3cudzMub3JnLzIwMDAvc3ZnIiBoZWlnaHQ9IjEyOCIgd2lkdGg9IjEyOCIgdmVyc2lvbj0iMS4xIiB2aWV3Qm94PSIwIDAgMTAyNCAxMDI0IiBjbGFzcz0iaWNvbiI+PHBhdGggZmlsbD0iIzRBOTE5QiIgZD0iTTUxMiAwQzIyNy4zMjggMCAwIDIyNy4zMjggMCA1MTJzMjI3LjMyOCA1MTIgNTEyIDUxMiA1MTItMjI3LjMyOCA1MTItNTEyYzAtMjguNjcyLTE4Ljk0NC00Ny42MTYtNDcuNjE2LTQ3LjYxNi0yOC42NzIgMC00Ny42MTYgMTguOTQ0LTQ3LjYxNiA0Ny42MTYgMCAyMjcuMzI4LTE4OS40NCA0MTcuMjgtNDE3LjI4IDQxNy4yOC0yMjcuMzI4IDAtNDE3LjI4LTE4OS40NC00MTcuMjgtNDE3LjI4IDAtMjI3LjMyOCAxODkuNDQtNDE3LjI4IDQxNy4yOC00MTcuMjggNzUuNzc2IDAgMTYxLjI4IDE4Ljk0NCAyMTguMTEyIDY2LjU2djkuNzI4bC00Ny42MTYgNTYuODMyYy0xOC45NDQgMTguOTQ0IDAgNTYuODMyIDI4LjY3MiA1Ni44MzJsMjE4LjExMiA5LjcyOGMxOC45NDQgMCAzNy44ODgtMjguNjcyIDM3Ljg4OC00Ny42MTZsLTY2LjU2LTIwOC4zODRjLTkuNzI4LTI4LjY3Mi00Ny42MTYtMzcuODg4LTY2LjU2LTkuNzI4bC0zNy44ODggNTYuODMyQzcxMS4xNjggMjguNjcyIDYxNi40NDggMCA1MTIgMHoiLz48L3N2Zz4=;" parent="1" vertex="1">
          <mxGeometry x="204.60999999999996" y="1093.2400000000002" width="59.78" height="59.78" as="geometry" />
        </mxCell>
        <mxCell id="yEDIbU11GkPMaYCyJ-ew-13" value="&lt;font color=&quot;#4a909b&quot;&gt;&lt;span style=&quot;font-size: 14px;&quot;&gt;线程&lt;/span&gt;&lt;/font&gt;" style="text;html=1;strokeColor=none;fillColor=none;align=center;verticalAlign=middle;whiteSpace=wrap;rounded=0;" parent="1" vertex="1">
          <mxGeometry x="191.5" y="1108.13" width="86" height="30" as="geometry" />
        </mxCell>
        <mxCell id="zPJYIlvPOgd2Jo2coLDm-1" value="" style="shape=curlyBracket;whiteSpace=wrap;html=1;rounded=1;labelPosition=left;verticalLabelPosition=middle;align=right;verticalAlign=middle;rotation=90;strokeWidth=3;strokeColor=#535F80;" parent="1" vertex="1">
          <mxGeometry x="592.0000000000001" y="985.47" width="16.38" height="307.76" as="geometry" />
        </mxCell>
        <mxCell id="t8Cal-_5nJgWGdAKieAY-1" value="" style="curved=1;endArrow=classic;html=1;rounded=0;dashed=1;strokeWidth=3;strokeColor=#535F80;" parent="1" edge="1">
          <mxGeometry width="50" height="50" relative="1" as="geometry">
            <mxPoint x="669" y="1103.58" as="sourcePoint" />
            <mxPoint x="633" y="991" as="targetPoint" />
            <Array as="points">
              <mxPoint x="671" y="1055.66" />
              <mxPoint x="642" y="1002.48" />
            </Array>
          </mxGeometry>
        </mxCell>
        <mxCell id="t8Cal-_5nJgWGdAKieAY-2" value="&lt;font color=&quot;#535f80&quot; style=&quot;&quot;&gt;2.epoll_wait返回哪个socket_fd能读写&lt;/font&gt;" style="text;html=1;strokeColor=none;fillColor=none;align=center;verticalAlign=middle;whiteSpace=wrap;rounded=0;" parent="1" vertex="1">
          <mxGeometry x="637" y="962.19" width="116" height="30" as="geometry" />
        </mxCell>
        <mxCell id="kaEjl2apzzeNmVv8A6bz-1" value="&lt;font color=&quot;#535f80&quot; style=&quot;font-size: 14px;&quot;&gt;1.底层遍历&lt;/font&gt;" style="text;html=1;strokeColor=none;fillColor=none;align=center;verticalAlign=middle;whiteSpace=wrap;rounded=0;" parent="1" vertex="1">
          <mxGeometry x="621" y="1140.43" width="71" height="30" as="geometry" />
        </mxCell>
        <mxCell id="kaEjl2apzzeNmVv8A6bz-6" value="&lt;span style=&quot;font-size: 14px;&quot;&gt;&lt;font color=&quot;#f19c99&quot;&gt;红&lt;/font&gt;&lt;font color=&quot;#4d4d4d&quot;&gt;黑树&lt;/font&gt;&lt;/span&gt;" style="text;html=1;strokeColor=none;fillColor=none;align=center;verticalAlign=middle;whiteSpace=wrap;rounded=0;" parent="1" vertex="1">
          <mxGeometry x="519.99" y="1284" width="166.01" height="30" as="geometry" />
        </mxCell>
        <mxCell id="P1BjQ-AUnv7ZsoXS6Ug_-1" value="" style="ellipse;whiteSpace=wrap;html=1;aspect=fixed;strokeColor=none;fillColor=#F19C99;" parent="1" vertex="1">
          <mxGeometry x="468.5" y="1236.13" width="55" height="55" as="geometry" />
        </mxCell>
        <mxCell id="P1BjQ-AUnv7ZsoXS6Ug_-8" style="rounded=1;orthogonalLoop=1;jettySize=auto;html=1;exitX=0;exitY=1;exitDx=0;exitDy=0;entryX=1;entryY=0;entryDx=0;entryDy=0;strokeColor=#808080;" parent="1" source="P1BjQ-AUnv7ZsoXS6Ug_-2" target="P1BjQ-AUnv7ZsoXS6Ug_-1" edge="1">
          <mxGeometry relative="1" as="geometry" />
        </mxCell>
        <mxCell id="P1BjQ-AUnv7ZsoXS6Ug_-9" style="rounded=1;orthogonalLoop=1;jettySize=auto;html=1;exitX=1;exitY=1;exitDx=0;exitDy=0;entryX=0;entryY=0;entryDx=0;entryDy=0;strokeColor=#808080;" parent="1" source="P1BjQ-AUnv7ZsoXS6Ug_-2" target="P1BjQ-AUnv7ZsoXS6Ug_-6" edge="1">
          <mxGeometry relative="1" as="geometry" />
        </mxCell>
        <mxCell id="P1BjQ-AUnv7ZsoXS6Ug_-2" value="" style="ellipse;whiteSpace=wrap;html=1;aspect=fixed;strokeColor=none;fillColor=#4D4D4D;" parent="1" vertex="1">
          <mxGeometry x="572.5" y="1173.63" width="55" height="55" as="geometry" />
        </mxCell>
        <mxCell id="3rUZ3CN064QcZNEnWqN9-28" value="&lt;font color=&quot;#ffffff&quot; style=&quot;font-size: 14px;&quot;&gt;socket&lt;br&gt;文件&lt;/font&gt;" style="text;html=1;strokeColor=none;fillColor=none;align=center;verticalAlign=middle;whiteSpace=wrap;rounded=0;" parent="1" vertex="1">
          <mxGeometry x="453" y="1251.13" width="86" height="30" as="geometry" />
        </mxCell>
        <mxCell id="P1BjQ-AUnv7ZsoXS6Ug_-3" value="&lt;font color=&quot;#ffffff&quot; style=&quot;font-size: 14px;&quot;&gt;socket&lt;br&gt;文件&lt;/font&gt;" style="text;html=1;strokeColor=none;fillColor=none;align=center;verticalAlign=middle;whiteSpace=wrap;rounded=0;" parent="1" vertex="1">
          <mxGeometry x="557" y="1186.13" width="86" height="30" as="geometry" />
        </mxCell>
        <mxCell id="P1BjQ-AUnv7ZsoXS6Ug_-6" value="" style="ellipse;whiteSpace=wrap;html=1;aspect=fixed;strokeColor=none;fillColor=#4D4D4D;" parent="1" vertex="1">
          <mxGeometry x="677.5" y="1238.63" width="55" height="55" as="geometry" />
        </mxCell>
        <mxCell id="P1BjQ-AUnv7ZsoXS6Ug_-7" value="&lt;font color=&quot;#ffffff&quot; style=&quot;font-size: 14px;&quot;&gt;socket&lt;br&gt;文件&lt;/font&gt;" style="text;html=1;strokeColor=none;fillColor=none;align=center;verticalAlign=middle;whiteSpace=wrap;rounded=0;" parent="1" vertex="1">
          <mxGeometry x="662" y="1251.13" width="86" height="30" as="geometry" />
        </mxCell>
      </root>
    </mxGraphModel>
  </diagram>
</mxfile>
